<svg width="1366" height="769" viewBox="0 0 1366 769" fill="none" xmlns="http://www.w3.org/2000/svg">
<path d="M250.961 -13C250.961 -13 278.332 73.8312 170.625 104.607C62.918 135.382 -2.1328 227.709 -2.1328 227.709L-2.1328 507.254C-2.1328 507.254 240.652 610.206 279.398 492.599C318.145 374.993 83.5352 399.173 158.895 278.636C234.254 158.098 297.883 207.925 362.578 143.443C427.273 78.9605 406.656 -13 406.656 -13H250.961Z" fill="url(#paint0_linear)"/>
<g filter="url(#filter0_f)">
<path fill-rule="evenodd" clip-rule="evenodd" d="M836.913 471.401L362.253 484.534L145.885 766.434L1102.34 774.4L836.913 471.401Z" fill="#F7E5D4"/>
<path fill-rule="evenodd" clip-rule="evenodd" d="M187.301 768.674L243.992 769.42C258.17 751.664 276.993 737.712 280.92 723.219C284.659 709.417 267.554 682.455 267.554 682.455L232.182 722.38L187.301 768.674Z" fill="#0A0500" fill-opacity="0.25"/>
<path fill-rule="evenodd" clip-rule="evenodd" d="M302.911 617.309C302.911 617.309 319.213 627.149 327.964 625.946C359.296 621.639 490.904 591.472 490.904 591.472L574.827 581.113C584.061 558.817 588.061 539.65 520.343 563.372L419.607 595.102L302.911 617.309Z" fill="#060301" fill-opacity="0.11"/>
<path fill-rule="evenodd" clip-rule="evenodd" d="M896.257 538.604L829.28 535.018L818.06 524.869L889.085 530.237L896.257 538.604Z" fill="#020100" fill-opacity="0.47"/>
<path fill-rule="evenodd" clip-rule="evenodd" d="M920.076 630.429L1014.69 753.008L1021.79 752.197C993.392 702.37 960.231 660.714 926.102 620.701L920.076 630.429Z" fill="#020100" fill-opacity="0.47"/>
<path d="M367.815 474.916H410.269V519.72H367.815V474.916Z" fill="#C68F68"/>
<path fill-rule="evenodd" clip-rule="evenodd" d="M0.84671 650.936L89.7071 762.736L199.311 762.352C211.848 756.357 222.865 749.14 231.269 739.838C236.011 733.026 239.195 724.976 241.291 716.044C242.841 701.231 242.494 686.413 241.917 671.596C237.008 660.421 230.486 652.009 221.873 647.179C218.392 632.556 209.589 621.354 198.698 611.493L188.482 547.001L183.364 544.302L179.945 505.553L173.976 501.717L173.433 473.722L169.424 462.531L172.389 419.914C166.338 392.235 153.827 368.663 138.074 347.153C89.4688 318.269 41.582 322.599 1.25153 350.389L0.84671 650.936Z" fill="#282D47"/>
<path fill-rule="evenodd" clip-rule="evenodd" d="M222.342 646.481L214.916 629.432C233.97 622.748 255.027 645.961 267.632 680.822L269.746 721.157C258.844 734.775 246.15 741.588 231.665 741.602L240.486 720.14C243.619 705.501 243.579 689.046 242.428 671.958C236.083 658.562 229.299 651.316 222.342 646.481Z" fill="#080522"/>
<path fill-rule="evenodd" clip-rule="evenodd" d="M250.022 646.921C257.103 657.701 261.253 674.326 263.012 690.239C264.773 706.152 264.142 721.356 261.664 729.285L270.005 720.795C269.332 706.371 268.897 700.321 267.995 681.711C263.096 668.586 257.213 656.837 250.022 646.921Z" fill="#AC978A"/>
<path fill-rule="evenodd" clip-rule="evenodd" d="M1.50133 350.992C38.5036 321.165 96.6938 320.083 138.623 347.521C143.082 346.181 148.37 345.914 150.713 346.16C115.648 316.438 81.8101 285.734 49.894 253.493L37.6 263.644C37.6 263.644 31.1208 256.121 26.9096 256.698C22.3663 257.322 14.5267 265.87 10.3398 267.384C7.61276 268.37 0.670349 267.913 0.670349 267.913L1.50133 350.992Z" fill="#404158"/>
<path fill-rule="evenodd" clip-rule="evenodd" d="M138.926 347.679C153.983 368.775 165.682 392.386 172.676 419.525L169.554 462.301L173.516 473.568L173.968 501.293L180.121 505.763L183.047 543.964L188.315 546.745L195.424 588.152C197.005 557.724 200.036 527.427 206.052 497.402C207.381 477.435 207.428 457.752 205.129 438.592C210.602 409.398 201.496 386.239 190.178 369.009C189.202 367.524 189.253 370.639 186.936 376.291L151.079 346.228C147.028 345.29 142.977 346.296 138.926 347.679Z" fill="#161732"/>
<path fill-rule="evenodd" clip-rule="evenodd" d="M206.916 433.755L195.97 579.163C222.675 596.777 252.151 609.325 280.631 616.886L274.131 602.525L309.366 518.754L299.445 522.858L291.235 516.361L277.894 515.335L271.394 505.078H264.895L263.868 498.24L256.685 492.085L251.553 493.11L236.501 480.118L235.817 465.757C230.951 456.307 224.791 451.603 218.149 448.661L206.916 433.755Z" fill="#2D3048"/>
<path fill-rule="evenodd" clip-rule="evenodd" d="M280.249 527.9C280.249 527.9 264.183 562.725 230.348 567.992C247.64 559.143 266.467 542.914 280.249 527.9Z" fill="#1C1F37"/>
<path fill-rule="evenodd" clip-rule="evenodd" d="M200.48 541.514C218.708 543.958 249.067 532.901 270.995 524.254C247.222 525.529 223.672 528.327 201.414 527.709L200.48 541.514Z" fill="#181831"/>
<path fill-rule="evenodd" clip-rule="evenodd" d="M200.023 582.106L202.236 567.04L214.993 574.063C214.993 574.063 238.659 573.694 246.98 582.194C236.256 588.662 235.701 587.553 235.701 587.553C235.701 587.553 231.079 591.619 241.247 593.652C251.971 594.945 252.896 595.315 252.896 595.315L269.167 592.358C269.167 592.358 291.843 549.113 300.967 538.766L274.343 602.153L280.445 616.567C251.143 608.657 225.418 596.026 200.023 582.106Z" fill="#0E0926"/>
<path fill-rule="evenodd" clip-rule="evenodd" d="M219.15 450.864C220.177 456.64 220.327 462.414 219.382 468.189C226.054 462.093 225.42 456.344 219.15 450.864Z" fill="#18182F"/>
<path fill-rule="evenodd" clip-rule="evenodd" d="M203.564 519.889C215.116 515.79 226.667 513.472 238.218 511.323L203.855 524.381L203.564 519.889Z" fill="#15162F"/>
<path fill-rule="evenodd" clip-rule="evenodd" d="M280.631 616.886L274.131 602.525L309.501 518.793L324.68 515.525L331.686 520.893L344.297 518.092L363.213 528.596L371.153 529.297L351.07 587.884L332.387 615.427L301.327 617.061L295.022 624.297L280.631 616.886Z" fill="#887879"/>
<path fill-rule="evenodd" clip-rule="evenodd" d="M294.889 558.894C311.441 572.049 328.698 582.854 346.197 592.852L348.97 589.849C331.677 576.568 314.447 562.889 296.507 553.813L294.889 558.894Z" fill="#3D3B57"/>
<path fill-rule="evenodd" clip-rule="evenodd" d="M332.052 520.687C331.307 522.501 332.378 523.985 335.103 525.169C337.428 522.875 341.2 521.203 345.734 519.856L343.654 518.469L332.052 520.687Z" fill="#201C26"/>
<path fill-rule="evenodd" clip-rule="evenodd" d="M291.127 578.659L292.763 594.127L313.332 608.218C304.295 599.229 297.403 587.648 291.127 578.659Z" fill="#1F293F"/>
<path fill-rule="evenodd" clip-rule="evenodd" d="M297.764 620.976C296.341 617.558 297.094 615.986 297.692 612.064C302.27 612.571 305.489 614.166 307.543 616.693L301.546 616.765L297.764 620.976Z" fill="#1C172B"/>
<path fill-rule="evenodd" clip-rule="evenodd" d="M274.673 601.981L280.052 602.674C281.144 599.825 280.538 594.232 279.264 591.383L274.673 601.981Z" fill="#100E2A"/>
<path fill-rule="evenodd" clip-rule="evenodd" d="M335.301 611.078C391.482 605.895 448.363 589.505 505.574 567.857C506.034 570.847 554.418 567.556 557.137 550.304C565.316 545.947 580.101 546.853 580.659 547.69L585.635 552.545C589.943 552.65 591.622 549.634 591.414 544.378C590.156 534.907 582.695 531.436 572.681 530.435L587.135 532.775L596.996 541.391C604.039 544.074 605.377 539.517 603.079 532.698L600.19 528.99L604.751 533.797L605.398 524.997L602.773 523.066L608.55 522.269C612.399 520.807 612.392 512.908 612.392 512.908C613.331 514.168 616.056 512.837 616.924 511.314C616.654 505.994 613.843 500.815 611.14 496.375L587.229 479.843L548.17 483.03L506.321 514.7C492.062 521.368 477.218 523.933 461.881 523.066C431.558 530.087 401.236 533.552 370.913 529.268L350.823 587.999L335.301 611.078Z" fill="#BF7255"/>
<path fill-rule="evenodd" clip-rule="evenodd" d="M1.41472 651.455L90.0774 763.75L0 761.788L1.41472 651.455Z" fill="#080522"/>
<path fill-rule="evenodd" clip-rule="evenodd" d="M186.367 374.828C189.645 367.475 196.035 362.008 203.924 361.162L264.075 366.39L272.397 347.379L281.669 334.309L284.046 328.13L295.696 316.487L298.549 305.318L313.954 301.972C318.833 299.971 318.846 293.715 317.52 286.288L308.724 254.445L317.52 245.177L318.947 199.789L289.703 203.829L246.909 223.434L226.106 234.722L194.699 247.411L182.526 239.426C173.211 229.876 163.461 229.469 153.615 231.062C143.978 232.64 134.342 241.751 124.705 252.354L87.8884 261.73C114.41 301.258 149.978 341.024 186.367 374.828Z" fill="#B86750"/>
<path fill-rule="evenodd" clip-rule="evenodd" d="M175.953 299.569C157.788 300.3 145.053 288.111 139.329 270.189C130.978 243.478 138.411 234.862 151.226 232.416C163.893 228.863 174.328 232.006 182.019 243.375L183.092 255.22L177.68 260.63C176.981 266.389 177.334 272.28 180.619 278.537C187.724 288.17 185.271 294.909 175.953 299.569Z" fill="#C8725A"/>
<path fill-rule="evenodd" clip-rule="evenodd" d="M197.767 246.171C197.767 246.171 199.838 284.719 196.601 294.557C194.399 301.248 181.385 298.852 178.341 305.203C173.329 315.666 189.782 353.105 193.938 352.35C196.966 354.129 200.048 355.695 203.179 357.062C221.91 365.242 241.96 365.106 264.388 365.812C268.15 359.067 272.042 353.732 273.367 347.393L266.796 356.17C258.465 359.102 248.326 359.655 242.594 358.041C239.819 352.118 238.893 347.672 241.316 343.362C243.671 340.933 247.392 339.913 250.617 338.663C232.084 334.677 219.137 327.688 212.299 317.858C208.5 311.695 219.838 285.889 224.276 285.206C222.741 279.484 221.826 276.856 220.946 274.406C220.778 262.904 222.696 249.839 225.131 236.385L197.767 246.171Z" fill="#000108" stroke="black" stroke-width="0.469219" stroke-miterlimit="1.5" stroke-linecap="round" stroke-linejoin="round"/>
<path fill-rule="evenodd" clip-rule="evenodd" d="M280.649 253.795L312.088 251.041C315.525 248.921 316.193 247.031 314.871 245.307C304.907 242.953 293.392 244.468 281.048 248.06C276.201 247.881 275.821 252.691 280.649 253.795Z" fill="black" stroke="black" stroke-width="0.469219" stroke-miterlimit="1.5" stroke-linecap="round" stroke-linejoin="round"/>
<path fill-rule="evenodd" clip-rule="evenodd" d="M68.4307 238.764L88.3622 261.92L124.61 252.395C130.776 245.422 137.196 239.213 143.956 234.022C154.001 229.359 171.4 226.292 181.446 238.321C186.315 240.809 191.761 246.585 196.035 247.764C224.607 237.115 262.078 219.24 290.182 201.975L163.874 201.798L70.2029 184.277C71.2374 193.632 72.2718 202.67 73.3056 211.299C70.2356 219.732 68.5993 228.882 68.4307 238.764Z" fill="black" stroke="black" stroke-width="0.469219" stroke-miterlimit="1.5" stroke-linecap="round" stroke-linejoin="round"/>
<path fill-rule="evenodd" clip-rule="evenodd" d="M166.632 229.821C174.752 232.763 184.643 238.802 196.071 247.527C225.748 235.365 252.832 222.316 280.982 207.977L247.515 205.35C223.751 203.916 199.742 206.389 175.462 213.218C169.857 215.85 165.519 224.607 166.632 229.821Z" fill="#0B0B0B"/>
<path fill-rule="evenodd" clip-rule="evenodd" d="M81.9285 221.538C96.4643 222.073 104.128 227.31 117.671 234.126C124.936 232.473 130.341 229.226 132.976 223.608C132.052 218.928 129.409 215.584 125.51 213.218L130.656 209.284C138.023 208.058 144.677 208.767 149.729 213.823C152.287 219.298 152.792 225.146 151.713 231.282C141.793 234.417 133.241 242.111 125.305 251.859L93.4328 260.014C84.9572 252.281 77.6981 244.306 72.5294 235.912C77.6725 232.498 80.7546 226.604 81.9285 221.538Z" fill="#0B0B0B"/>
<path fill-rule="evenodd" clip-rule="evenodd" d="M23.6671 157.255C33.671 167.731 48.0894 177.029 70.2029 184.277C140.412 204.347 213.125 208.153 287.371 201.996C321.501 200.162 348.44 195.044 354.294 180.29C350.043 169.134 335.861 165.856 323.521 163.595C320.761 130.036 320.572 96.6709 306.428 75.3034C294.514 45.175 181.544 19.1292 145.547 30.1194C118.976 31.5971 94.3477 42.1329 70.2029 54.9265C61.1432 60.7477 57.4821 75.0012 61.3396 100.997V139.093C38.1816 140.045 25.0282 145.813 23.6671 157.255Z" fill="#100D22"/>
<path fill-rule="evenodd" clip-rule="evenodd" d="M61.3396 139.093C147.593 155.931 234.524 156.67 322.73 153.344L323.52 180.961C319.229 193.826 89.4877 185.58 61.0778 153.432L61.3396 139.093Z" fill="#131227"/>
<path fill-rule="evenodd" clip-rule="evenodd" d="M226.106 185.588C246.838 174.572 267.865 165.33 289.258 158.281C300.471 154.506 311.683 153.942 322.895 153.818L323.994 180.509C315.848 188.89 260.389 187.531 226.106 185.588Z" fill="#231E3F"/>
<path fill-rule="evenodd" clip-rule="evenodd" d="M312.649 154.041C309.777 167.142 322.324 182.332 323.994 179.601L322.918 153.793C319.598 154.128 316.589 153.873 312.649 154.041Z" fill="#A197D9"/>
<path fill-rule="evenodd" clip-rule="evenodd" d="M322.923 153.429L319.719 153.45C321.121 114.887 309.753 80.038 287.031 57.8165C305.206 63.8439 319.837 87.3554 322.923 153.429Z" fill="#A197D9"/>
<path fill-rule="evenodd" clip-rule="evenodd" d="M239.034 131.187C202.297 117.538 190.549 107.178 179.153 80.6046C180.929 70.8367 282.722 71.774 297.706 100.532C296.01 125.091 272.258 131.942 239.034 131.187Z" fill="#1B182D"/>
<path fill-rule="evenodd" clip-rule="evenodd" d="M69.6594 67.5693C81.8452 70.5311 92.3848 63.425 101.987 55.0246C101.311 51.6412 99.4083 49.1765 96.6656 47.3418C87.2018 48.5855 77.7373 51.7457 68.2735 58.1535C66.243 62.9649 66.0067 65.3407 69.6594 67.5693Z" fill="#181432"/>
<path d="M175.408 440.518C177.368 440.518 178.957 438.65 178.957 436.346C178.957 434.041 177.368 432.173 175.408 432.173C173.448 432.173 171.858 434.041 171.858 436.346C171.858 438.65 173.448 440.518 175.408 440.518Z" fill="white"/>
<path d="M179.536 464.998C181.496 464.998 183.085 463.13 183.085 460.826C183.085 458.521 181.496 456.653 179.536 456.653C177.575 456.653 175.986 458.521 175.986 460.826C175.986 463.13 177.575 464.998 179.536 464.998Z" fill="white"/>
<path d="M184.902 486.865C186.862 486.865 188.451 484.997 188.451 482.692C188.451 480.388 186.862 478.52 184.902 478.52C182.942 478.52 181.352 480.388 181.352 482.692C181.352 484.997 182.942 486.865 184.902 486.865Z" fill="white"/>
<path fill-rule="evenodd" clip-rule="evenodd" d="M351.987 176.224C299.745 194.668 239.556 188.957 180.424 193.121C214.103 193.409 249.834 193.686 291.916 191.389C317.193 190.515 334.75 184.302 353.108 179.063L351.987 176.224Z" fill="#A197D9"/>
<path fill-rule="evenodd" clip-rule="evenodd" d="M303.631 252.015C307.893 266.579 310.95 281.144 312.134 295.709C311.988 296.838 311.099 300.408 310.59 301.537L313.628 301.969C324.446 299.31 312.551 269.458 308.036 253.137L303.631 252.015Z" fill="#DD917D"/>
<path fill-rule="evenodd" clip-rule="evenodd" d="M296.935 266.675C299.616 263.725 301.465 260.549 302.154 257.056C302.896 253.358 300.979 252.482 298.098 252.586C294.127 256.72 292.358 261.433 291.827 266.471L296.935 266.675Z" fill="#DD917D"/>
<path fill-rule="evenodd" clip-rule="evenodd" d="M291.818 302.835C296.009 293.681 297.966 289.432 302.222 285.904C301.622 284.583 299.172 284.45 296.035 284.759C289.55 288.708 286.262 295.286 285.886 303.081C285.408 312.98 284.676 312.32 289.865 308.38C293.365 305.723 297.732 302.981 291.818 302.835Z" fill="#6F2F1D"/>
<path fill-rule="evenodd" clip-rule="evenodd" d="M300.296 300.858C302.051 300.526 303.624 300.376 304.836 300.587C306.272 300.994 306.933 301.955 307.102 303.267L303.359 303.912C299.999 303.278 300.033 302.035 300.296 300.858Z" fill="#6F2F1D"/>
<path fill-rule="evenodd" clip-rule="evenodd" d="M275.066 318.153C271.44 317.191 270.519 315.177 270.967 312.632C271.891 308.059 273.188 303.487 275.244 298.916C271.026 292.563 271.039 286.209 272.571 279.856C274.549 273.833 292.336 273.31 292.531 274.869L291.284 286.269C287.236 291.489 284.666 297.449 284.155 304.437L283.128 311.121C281.943 314.158 279.192 316.473 275.066 318.153Z" fill="#DD917D"/>
<path fill-rule="evenodd" clip-rule="evenodd" d="M268.174 353.731C252.423 355.537 248.658 351.732 250.411 344.892C258.576 342.139 268.047 338.632 275.449 338.931C275.607 341.746 271.014 350.486 268.174 353.731Z" fill="#DD917D"/>
<path fill-rule="evenodd" clip-rule="evenodd" d="M310.438 204.316L309.325 227.138L307.933 239.106L315.45 241.89L318.514 203.759L310.438 204.316Z" fill="#DD917D"/>
<path fill-rule="evenodd" clip-rule="evenodd" d="M276.379 269.665C281.832 268.53 287.36 267.773 293.086 268L291.998 271.104C285.248 272.509 280.665 271.269 276.379 269.665Z" fill="white"/>
<path fill-rule="evenodd" clip-rule="evenodd" d="M290.361 267.964C289.122 269.112 289.07 270.259 290.322 271.406L292.001 271.017L292.76 268.04L290.361 267.964Z" fill="black" stroke="black" stroke-width="0.469219" stroke-miterlimit="1.5" stroke-linecap="round" stroke-linejoin="round"/>
<path fill-rule="evenodd" clip-rule="evenodd" d="M185.177 305.903C193.51 304.122 199.371 299.288 201.94 290.389L202.561 258.12L222.439 258.558L221.525 274.301C223.446 277.956 224.762 281.624 224.762 285.279C219.904 292.291 215.001 298.825 212.057 316.071C218.997 326.073 227.861 330.638 238.192 334.54C237.715 339.324 235.385 344.673 230.499 348.1C214.115 341.642 182.756 314.126 185.177 305.903Z" fill="#0B0B0B"/>
<path fill-rule="evenodd" clip-rule="evenodd" d="M174.002 311.848L168.994 339.453C170.418 351.024 175.558 361.666 188.268 370.417C193.201 364.401 198.244 360.847 205.347 361.336C188.105 352.272 179.731 333.506 174.002 311.848Z" fill="#9A4C37"/>
<path fill-rule="evenodd" clip-rule="evenodd" d="M174.289 300.32C147.576 296.307 137.83 276.62 136.218 258.111C128.422 259.101 121.968 265.006 115.766 271.837C121.722 284.232 132.089 294.422 148.685 301.499L174.289 300.32Z" fill="#9A4C37"/>
<path fill-rule="evenodd" clip-rule="evenodd" d="M172.573 280.295C168.255 265.075 162.882 260.444 151.82 259.254C156.291 253.671 161.955 249.68 170.183 249.106C170.696 245.977 169.218 244.241 165.555 244.032C163.802 240.554 165.017 239.129 168.691 239.407C172.363 239.272 175.497 240.62 177.499 245.077C179.17 248.042 179.048 250.707 175.708 252.837C170.796 251.899 167.013 252.341 165.108 255.075C164.267 258.402 165.921 259.236 168.094 259.552C169.14 258.506 173.474 260.248 171.976 263.879C170.162 268.274 172.937 276.222 175.409 277.459C176.06 279.85 175.101 280.734 172.573 280.295Z" fill="#773D2D"/>
<path fill-rule="evenodd" clip-rule="evenodd" d="M152.441 277.325C148.223 272.805 144.478 266.628 141.931 256.263C138.94 246.497 151.311 233.44 157.601 237.162L160.658 241.556C150.447 241.821 145.247 245.632 146.725 256.33C146.491 257.337 146.298 265.947 152.441 277.325Z" fill="#A25A47"/>
<path fill-rule="evenodd" clip-rule="evenodd" d="M266.854 329.876C275.608 318.342 284.182 314.124 295.456 302.752C296.804 304.898 297.125 307.387 296.04 310.344C284.58 320.476 273.89 329.189 262.746 338.053L266.854 329.876Z" fill="black" stroke="black" stroke-width="0.469219" stroke-miterlimit="1.5" stroke-linecap="round" stroke-linejoin="round"/>
<path fill-rule="evenodd" clip-rule="evenodd" d="M324.61 174.347C330.068 178.41 337.614 179.297 343.601 177.279L344.011 169.954C336.93 165.871 333.077 164.857 324.244 164.345L324.61 174.347Z" fill="black"/>
<path fill-rule="evenodd" clip-rule="evenodd" d="M47.5416 252.117C52.4172 244.819 58.138 239.21 64.6016 235.086C103.245 282.722 143.189 333.719 186.951 375.893C139.389 337.01 91.4001 295.758 47.5416 252.117Z" fill="#21213A" stroke="white" stroke-width="0.469219" stroke-miterlimit="1.5" stroke-linecap="round" stroke-linejoin="round"/>
<path fill-rule="evenodd" clip-rule="evenodd" d="M49.8801 254.438L37.9369 263.502C37.9369 263.502 30.8123 256.347 26.8758 256.591C22.9393 256.834 14.3172 264.959 14.3172 264.959C14.3172 262.488 67.0177 280.189 77.2314 289.331C86.3317 296.26 125.557 332.475 126.336 332.215L127.329 326.018L49.8801 254.438Z" fill="#111330"/>
<path fill-rule="evenodd" clip-rule="evenodd" d="M21.5555 375.503C43.5197 429.138 81.0242 473.849 149.25 500.921L112.884 468.693C71.9296 445.582 45.4698 410.599 21.5555 375.503Z" fill="#333751"/>
<path fill-rule="evenodd" clip-rule="evenodd" d="M176.56 511.987C152.94 487.273 129.32 462.558 105.7 437.843C93.9813 436.746 84.1703 438.374 75.9785 442.314C87.295 452.474 99.4631 461.358 112.795 468.496C132.617 484.426 153.206 499.588 176.56 511.987Z" fill="#1D203A"/>
<path fill-rule="evenodd" clip-rule="evenodd" d="M167.197 494.415C162.901 484.834 164.172 479.81 166.595 476.944L91.3076 404.276C81.7606 402.58 73.3405 398.632 65.4739 393.578L107.177 437.843L167.197 494.415Z" fill="#32374C"/>
<path fill-rule="evenodd" clip-rule="evenodd" d="M103.486 398.742C114.856 426.893 168.481 477.429 171.393 476.944L130.428 417.186C121.034 412.692 112.207 405.93 103.486 398.742Z" fill="#282E45"/>
<path fill-rule="evenodd" clip-rule="evenodd" d="M105.274 362.233L162.549 421.534C156.066 398.038 140.558 376.916 121.304 356.779L105.274 362.233Z" fill="#24273D"/>
<path fill-rule="evenodd" clip-rule="evenodd" d="M1.58559 466.6L177.435 761.989L90.5912 763.767L1.52156 651.635L1.58559 466.6Z" fill="#121532"/>
<path fill-rule="evenodd" clip-rule="evenodd" d="M221.768 740.834C227.955 723.355 217.71 695.635 216.1 697.481C211.425 692.452 221.465 670.938 200.098 636.773L184.625 635.195C185.042 623.237 189.206 603.324 196.179 595.903L198.602 611.561C209.8 621.105 217.932 632.74 222.035 647.119C232.714 654.479 237.182 660.019 242.07 672.007C243.137 686.54 244.993 721.484 231.284 739.895C225.152 744.802 226.893 743.479 221.768 740.834Z" fill="#6C646C"/>
<path fill-rule="evenodd" clip-rule="evenodd" d="M154.652 502.451C155.667 517.203 167.413 535.221 182.915 544.308L180.261 515.966L154.652 502.451Z" fill="#4B4D5E"/>
<path fill-rule="evenodd" clip-rule="evenodd" d="M192.44 542.618L198.277 462.872C200.817 423.152 195.277 402.52 181.894 382.14L188.571 379.421C205.62 402.056 202.725 432.802 203.981 462.203L196.131 537.822L192.44 542.618Z" fill="#464953"/>
<path fill-rule="evenodd" clip-rule="evenodd" d="M62.2495 366.52C104.116 388.689 139.923 415.402 160.281 453.696C161.267 447.584 163.093 441.893 166.768 437.125L99.732 360.756C87.2381 359.332 74.7442 361.899 62.2495 366.52Z" fill="#373D52"/>
<path fill-rule="evenodd" clip-rule="evenodd" d="M29.4662 411.317C45.0813 438.663 66.5304 466.008 92.2233 493.354C105.424 500.02 116.215 494.146 120.945 488.71C91.5815 470.289 65.9619 448.369 48.0545 425.121C40.7549 419.018 34.5482 416.938 29.4662 411.317Z" fill="#1B203C"/>
<path fill-rule="evenodd" clip-rule="evenodd" d="M562.091 504.249C572.3 506.336 581.888 506.525 592.097 504.892C599.486 504.338 606.665 504.399 612.812 507.572C614.021 513.191 613.658 517.875 610.215 520.744C595.049 524.912 583.305 522.178 569.936 523.363C561.215 534.991 549.465 541.681 540.003 546.166C531.826 550.042 537.398 505.299 562.091 504.249Z" fill="#A95F43"/>
<path fill-rule="evenodd" clip-rule="evenodd" d="M575.973 501.113L597.601 504.286L590.556 498.634C588.298 497.284 578.477 496.85 575.873 498.535C574.706 499.795 574.601 500.7 575.973 501.113Z" fill="#774836"/>
<path fill-rule="evenodd" clip-rule="evenodd" d="M575.043 502.621C575.043 502.621 599.401 509.341 612.819 508.919C612.933 507.616 612.15 507.2 611.076 507.082C606.43 505.519 601.727 503.205 595.186 504.683C587.247 502.373 576.201 501.195 576.201 501.195L575.043 502.621Z" fill="#C4866F"/>
<path fill-rule="evenodd" clip-rule="evenodd" d="M585.536 499.051C586.221 500.519 587.518 501.683 591.17 501.669C592.185 500.575 591.289 499.693 590.377 498.813C587.682 497.811 586.529 498.351 585.536 499.051Z" fill="#D6D6D6"/>
<path fill-rule="evenodd" clip-rule="evenodd" d="M591.329 536.492C592.778 530.314 595.701 527.545 600.539 529.194L600.375 524.99L571.092 523.958C569.315 525.518 569.532 527.079 570.298 528.639L572.441 530.146L587.203 532.605L591.329 536.492Z" fill="#774836"/>
<path fill-rule="evenodd" clip-rule="evenodd" d="M576.965 545.852L581.171 546.566C581.877 542.275 584.856 540.359 590.218 540.934C587.901 535.601 584 532.979 578.79 532.605C577 537.021 576.639 541.436 576.965 545.852Z" fill="#774836"/>
<path fill-rule="evenodd" clip-rule="evenodd" d="M584.161 533.58C589.67 541.25 590.79 548.064 587.969 552.561C593.676 548.488 592.337 539.53 584.161 533.58Z" fill="#BE8975"/>
<path fill-rule="evenodd" clip-rule="evenodd" d="M299.143 523.118L309.636 518.759L324.82 515.722L331.643 520.458L343.551 518.304L363.528 528.38L371.216 528.856C368.012 469.755 372.261 410.655 377.365 351.554C348.847 305.615 294.741 316.615 281.339 384.651L299.143 523.118Z" fill="#ECD7BB"/>
<path fill-rule="evenodd" clip-rule="evenodd" d="M281.339 384.651C292.718 322.781 346.781 301.027 377.365 351.555C377.214 351.453 384.053 350.333 384.015 350.078C383.208 344.711 380.126 333.902 380.126 333.902C367.104 314.868 353.281 304.242 339.13 297.058C331.935 296.452 324.827 296.285 318.074 297.886C318.088 301.976 308.457 303.633 298.698 305.711L296.042 316.51L284.213 328.321L282.02 334.22L273.488 347.103C272.749 354.125 269.058 360.042 264.782 365.738L243.496 367.157L207.546 417.747L207.861 434.703L218.221 449.136C228.01 453.605 232.958 459.564 235.581 466.237L236.401 479.313L251.485 493.158L256.557 491.922L264.12 498.664L265.137 504.455L271.995 506.211L277.973 514.792L291.202 516.061L299.429 523.173L281.339 384.651Z" fill="#D8C4A9"/>
<path fill-rule="evenodd" clip-rule="evenodd" d="M387.417 368.332C396.132 357.926 405.822 348.495 416.512 340.064C428.109 344.576 446.982 348.753 449.858 327.671C460.214 315.901 469.131 302.845 477.455 289.268C475.134 275.458 476.375 264.105 481.989 252.498C482.85 225.816 470.117 214.84 450.032 209.094C437.567 230.683 420.881 242.257 398.032 238.576C386.453 250.021 379.958 260.831 378.96 270.954C382.315 289.773 387.355 308.032 394.097 325.723L380.776 334.196L387.417 368.332Z" fill="#ECBB98"/>
<path fill-rule="evenodd" clip-rule="evenodd" d="M422.47 300.618C431.25 307.03 439.219 314.749 451.488 311.571L453.343 304.642C442.892 305.223 432.633 303.503 422.47 300.618Z" fill="#FBF5ED"/>
<path fill-rule="evenodd" clip-rule="evenodd" d="M419.064 296.663C431.713 298.1 444.386 299.446 457.647 298.437C461.144 302.319 458.826 305.065 453.789 305.034C442.987 304.797 432.459 303.377 422.264 300.515C434.519 310.385 443.246 314.117 451.459 311.706C452.263 314.044 451.675 316.643 449.954 318.666C448.374 320.458 444.868 320.778 440.131 318.784C429.318 314.018 421.034 306.796 419.064 296.663Z" fill="#DA6C61"/>
<path fill-rule="evenodd" clip-rule="evenodd" d="M437.752 501.979C433.026 496.699 424.698 490.57 414.793 484.071C401.434 483.602 390.735 480.679 388.906 469.857C383.097 466.909 381.44 479.106 383.481 480.315L415.838 489.804L383.481 480.315L370.709 480.046L370.261 486.601C376.633 491.899 388.73 497.88 388.73 497.88C388.73 497.88 399.854 502.12 405.375 503.941C393.332 502.22 381.585 497.094 370.152 488.369L370.306 501.811C373.863 506.742 383.295 514.296 383.295 514.296C383.295 514.296 393.095 518.52 399.175 519.434C387.794 518.202 378.142 514.141 370.112 507.427L370.952 521.063C373.863 524.194 382.081 527.901 382.081 527.901C382.081 527.901 386.936 529.248 389.681 529.698C403.575 531.177 417.362 531.044 430.951 527.955C437.493 522.053 440.654 513.971 437.752 501.979Z" fill="#ECBB98"/>
<path fill-rule="evenodd" clip-rule="evenodd" d="M978.309 279.781C978.309 279.781 948.357 272.591 947.972 252.544C947.972 252.544 940.829 244.357 941.477 239.562C942.167 234.392 949.594 227.59 952.141 221.528C961.995 198.044 946.635 191.049 937.002 210.937C937.002 210.937 927.347 211.378 925.27 214.719C923.185 218.06 924.885 231.727 924.885 231.727L919.052 229.797C919.052 229.797 920.901 213.516 918.717 208.229C916.647 203.208 908.323 199.564 908.323 199.564C908.323 199.564 900.746 172.704 897.637 167.413C896.299 165.128 891.881 166.547 889.697 167.817C886.865 169.462 886.075 176.654 887.072 176.94C889.327 178.885 891.717 178.476 893.482 179.587C888.63 182.27 883.45 182.315 877.965 179.921C876.015 176.279 873.568 173.882 870.772 172.356C856.763 179.018 839.084 172.047 833.271 167.42L826.498 202.615L830.66 218.436C830.66 218.863 828.013 253.977 840.122 276.889C848.845 302.823 855.419 302.643 868.744 300.294C872.814 314.619 881.302 328.913 891.568 341.998C915.658 346.284 939.563 337.58 958.36 314.367C966.605 303.274 972.973 291.668 978.309 279.781Z" fill="#DB9B81"/>
<path fill-rule="evenodd" clip-rule="evenodd" d="M937.002 210.936C946.827 193.09 960.935 196.298 952.142 221.528C943.014 234.697 942.018 240.713 935.408 240.913C931.011 239.495 930.364 235.252 931.538 231.187C937.173 228.265 939.221 212.105 937.002 210.936Z" fill="#CA8A70"/>
<path fill-rule="evenodd" clip-rule="evenodd" d="M938.005 213.586C939.833 212.328 941.349 212.328 942.48 213.845C945.696 220.697 943.988 225.794 937.066 229.038L934.362 228.674C936.682 223.874 937.763 219.079 938.005 213.586Z" fill="#8F6756"/>
<path fill-rule="evenodd" clip-rule="evenodd" d="M948.435 200.384C954.233 204.202 954.632 211.858 951.409 222.093C954.546 216.783 956.055 210.816 954.312 203.607C952.818 200.592 950.47 198.521 948.435 200.384Z" fill="#DAC9C2"/>
<path fill-rule="evenodd" clip-rule="evenodd" d="M397.472 484.418L414.609 488.24L414.812 489.561L397.472 484.418Z" fill="#C49A7C"/>
<path fill-rule="evenodd" clip-rule="evenodd" d="M377.339 351.546L383.773 350.033L387.427 368.826L385.286 405.635C385.326 413.495 387.546 418.359 391.114 421.37L394.747 410.931L395.126 468.045L388.807 469.686C384.687 467.613 381.996 473.547 382.483 479.744L370.278 479.669C369.904 441.694 375.087 393.493 377.339 351.546Z" fill="#D6BB97"/>
<path fill-rule="evenodd" clip-rule="evenodd" d="M387.83 368.612L385.286 405.635C384.998 413.393 387.298 417.991 390.978 420.901L394.611 411.46L395.534 468.405L388.84 469.654C391.385 479.167 399.708 484.384 415.354 484.154L426.183 491.261L437.698 485.854L431.425 492.797C439.34 487.145 453.521 484.152 461.188 485.308C465.825 490.711 471.342 502.945 477.725 511.95L466.785 483.357L476.473 486.988C478.115 484.716 480.178 479.29 480.178 479.29L486.494 480.204L492.529 470.599L504.648 461.489C506.51 409.613 489.247 285.248 485.676 287.033C485.676 287.033 489.79 264.473 489.067 253.142C488.178 239.223 480.348 203.517 480.348 203.517C472.189 173.668 411.39 161.144 399.164 167.351C387.031 153.679 360.792 168.578 351.501 193.834C339.436 216.224 325.57 237.115 309.372 256.062C312.882 268.527 317.936 285.569 319.275 297.166L339.171 296.809C354.794 303.651 368.999 318.008 380.683 334.302L394.136 325.591C394.136 325.591 378.427 283.999 379.133 269.575C379.724 257.497 398.206 238.711 398.206 238.711C421.565 241.797 438.188 230.456 449.974 208.754C467.652 216.138 484.095 224.779 481.518 252.763C476.373 264.056 474.91 276.187 477.524 289.244C471.967 297.755 458.481 318.61 450.626 327.306C446.406 341.159 440.881 348.486 416.37 340.08C405.572 348.449 396.089 357.987 387.83 368.612Z" fill="#744948"/>
<path fill-rule="evenodd" clip-rule="evenodd" d="M388.042 248.561C398.246 248.5 408.346 249.802 418.316 252.798L423.408 258.892L427.031 249.238L451.755 254.203C453.305 259.369 452.613 264.674 450.93 270.892L456.647 263.216L460.754 263.965L461.167 273.735L464.61 274.147C463.608 264.849 465.215 259.65 470.391 260.055L490.068 264.69L488.925 273.138L493.494 269.457L493.598 262.373L467.602 257.447C466.292 260.773 463.152 259.691 460.43 259.017C455.508 258.356 454.517 256.199 454.545 253.654L422.96 246.33C409.889 245.452 401.281 242.983 389.858 240.694C384.223 242.173 385.476 245.88 388.042 248.561Z" fill="#17142A"/>
<path fill-rule="evenodd" clip-rule="evenodd" d="M427.119 249.179C420.926 259.062 421.457 271.4 428.501 277.984L443.117 279.225C450.095 275.638 454.628 268.069 451.942 253.982L427.119 249.179Z" fill="#888888"/>
<path fill-rule="evenodd" clip-rule="evenodd" d="M467.142 260.835C462.441 263.603 464.329 274.383 466.594 284.668L482.47 286.872C486.029 281.597 487.531 276.686 489.819 264.668C480.446 261.96 469.398 257.952 467.142 260.835Z" fill="#888888"/>
<path fill-rule="evenodd" clip-rule="evenodd" d="M442.257 340.047C446.297 336.885 448.15 332.458 447.905 326.816C448.737 327.786 469.947 300.45 473.497 292.591C474.419 290.55 474.607 285.964 474.607 285.964L476.901 286.161C476.901 286.161 478.041 288.308 477.557 289.24C473.754 296.548 450.586 328.022 449.876 327.628C448.571 334.606 445.817 338.255 442.257 340.047Z" fill="#E8D5C3"/>
<path fill-rule="evenodd" clip-rule="evenodd" d="M467.714 254.568C471.623 253.351 474.289 253.171 478.001 255.918C474.279 250.648 471.776 250.114 468.279 251.983L467.714 254.568Z" fill="#411D13"/>
<path fill-rule="evenodd" clip-rule="evenodd" d="M481.807 252.108C475.429 251.34 469.212 246.95 467.052 238.355C463.829 227.291 470.008 225.427 475.545 225.836C481.866 231.942 481.215 242.084 481.807 252.108Z" fill="#F6D4BC"/>
<path fill-rule="evenodd" clip-rule="evenodd" d="M451.611 246.9C443.515 241.822 435.579 240.239 427.784 241.784C435.175 243.539 442.481 245.497 448.964 249.37L451.611 246.9Z" fill="#6A3629"/>
<path fill-rule="evenodd" clip-rule="evenodd" d="M421.829 256.926C421.066 264.195 421.104 271.308 426.105 277.479L428.445 277.946C423.715 272.533 422.289 265.679 423.548 258.72L421.829 256.926Z" fill="#7D7D7D"/>
<path fill-rule="evenodd" clip-rule="evenodd" d="M461.191 273.718L464.068 284.189L466.667 284.723L464.672 273.96L461.191 273.718Z" fill="#7D7D7D"/>
<path fill-rule="evenodd" clip-rule="evenodd" d="M485.835 279.032C482.161 277.868 480.292 279.199 478.374 285.227L482.28 285.956L485.835 279.032Z" fill="#AAAB9E"/>
<path fill-rule="evenodd" clip-rule="evenodd" d="M392.66 253.428C402.047 254.19 410.753 256.428 416.664 264.718C416.664 264.718 419.887 256.817 417.194 255.015C413.458 252.516 398.337 249.987 394.249 249.723C392.908 249.636 392.66 253.428 392.66 253.428Z" fill="#CC936B"/>
<path fill-rule="evenodd" clip-rule="evenodd" d="M446.14 288.005C448.94 287.443 450.536 287.856 450.529 289.745C448.292 290.91 446.205 290.244 446.14 288.005Z" fill="#601604"/>
<path fill-rule="evenodd" clip-rule="evenodd" d="M440.36 288.892C437.731 284.823 435.4 284.534 432.26 282.255L439.945 282.085C438.615 284.537 439.341 286.733 440.36 288.892Z" fill="#E0A174"/>
<path fill-rule="evenodd" clip-rule="evenodd" d="M465.324 291.425C463.551 294.102 463.447 295.432 465.594 297.963C469.525 297.019 472.033 291.328 470.075 288.836C467.522 288.459 466.813 289.175 465.324 291.425Z" fill="#DEAA84"/>
<path fill-rule="evenodd" clip-rule="evenodd" d="M463.434 289.904C465.109 286.978 463.658 283.264 462.045 278.226L459.157 268.989L457.893 265.795C458.728 269.34 461.229 280.73 461.229 280.73C461.229 280.73 463.798 289.76 460.912 289.184L463.434 289.904Z" fill="#FBDDB8"/>
<path fill-rule="evenodd" clip-rule="evenodd" d="M384.075 292.411L394.655 325.832L380.693 334.196L400.682 339.231L413.736 338.666C391.091 325.114 377.491 262.142 390.908 248.148L386.614 252.045C378.353 262.182 377.576 278.361 384.075 292.411Z" fill="#C59471"/>
<path fill-rule="evenodd" clip-rule="evenodd" d="M426.344 374.168C426.344 374.168 415.366 422.074 443.213 444.287C450.386 451.937 448.734 472.923 431.432 478.542C457.061 474.83 454.483 450.416 450.174 443.751C444.912 435.61 424.7 419.391 433.038 376.707L436.251 368.411L426.344 374.168Z" fill="#3C293B"/>
<path fill-rule="evenodd" clip-rule="evenodd" d="M445.378 365.999C445.378 365.999 442.868 412.415 470.062 412.833C447.47 416.597 437.848 402.379 445.378 365.999Z" fill="#2D1F34"/>
<path fill-rule="evenodd" clip-rule="evenodd" d="M463.536 429.727C463.536 429.727 478.932 447.123 473.576 469.536C489.642 451.137 474.581 439.429 463.536 429.727Z" fill="#874930"/>
<path fill-rule="evenodd" clip-rule="evenodd" d="M451.905 343.835L456.507 377.707C456.507 377.707 474.079 399.87 475.752 417.015C482.446 389.834 466.548 377.289 466.548 377.289L461.946 341.327L451.905 343.835Z" fill="#4D2C3C"/>
<path fill-rule="evenodd" clip-rule="evenodd" d="M484.119 294.074L497.507 414.924C497.507 414.924 473.242 339.654 473.242 324.182C473.242 308.71 484.119 294.074 484.119 294.074Z" fill="#402731"/>
<path fill-rule="evenodd" clip-rule="evenodd" d="M390.383 218.658C390.383 218.658 352.207 264.133 377.833 312.745C346.977 282.428 370.511 222.839 390.383 218.658Z" fill="#2E2031"/>
<path fill-rule="evenodd" clip-rule="evenodd" d="M372.08 227.544C372.08 227.544 342.794 255.77 347.501 298.109L359.529 303.336C359.529 303.336 349.593 257.338 372.08 227.544Z" fill="#271B2F"/>
<path fill-rule="evenodd" clip-rule="evenodd" d="M340.702 215.521L357.437 213.43L375.218 197.226L356.914 195.658L340.702 215.521Z" fill="#332C3D"/>
<path fill-rule="evenodd" clip-rule="evenodd" d="M440.09 205.59C426.695 192.78 408.346 181.002 386.578 177.956C400.266 187.69 418.404 198.14 440.09 205.59Z" fill="#9C6E5E"/>
<path fill-rule="evenodd" clip-rule="evenodd" d="M443.267 203.8L410.601 181.855L386.235 174.361L409.798 172.22L402.568 175.967L414.082 179.714L428.273 177.841L420.508 182.122L434.699 180.516L426.399 186.94L452.103 186.136L429.612 191.757L443.267 199.785L466.562 196.841L478.343 207.815L481.289 219.858L475.13 213.435L466.026 204.603L443.267 203.8Z" fill="#2B1A32"/>
<path fill-rule="evenodd" clip-rule="evenodd" d="M371.324 402.922C371.324 402.922 359.276 392.217 328.751 395.429C345.62 383.653 371.057 399.175 371.057 399.175L371.324 402.922Z" fill="#BDA594"/>
<path fill-rule="evenodd" clip-rule="evenodd" d="M372.863 375.976L350.202 355.416L368.68 377.718L372.863 375.976Z" fill="#BDA594"/>
<path fill-rule="evenodd" clip-rule="evenodd" d="M274.456 433.649L273.956 431.325C257.223 431.33 240.809 430.975 226.521 428.229C229.114 431.298 230.374 434.7 229.31 438.683C241.329 435.402 257.254 434.188 274.456 433.649Z" fill="#8C6E5A"/>
<path fill-rule="evenodd" clip-rule="evenodd" d="M240.466 465.516C253.8 462.28 266.203 457.37 278.013 451.394L278.713 452.996L246.393 472.485C247.493 469.191 245.155 466.983 240.466 465.516Z" fill="#AF8F81"/>
<path fill-rule="evenodd" clip-rule="evenodd" d="M249.182 482.939C260.712 477.322 271.001 470.465 280.399 462.716L280.781 466.082L258.944 487.817C258.803 484.325 255.418 482.778 249.182 482.939Z" fill="#957B69"/>
<path fill-rule="evenodd" clip-rule="evenodd" d="M298.341 520.574L286.343 428.263L276.012 425.462L274.285 431.365L290.671 514.998L298.341 520.574Z" fill="#7F6D56"/>
<path fill-rule="evenodd" clip-rule="evenodd" d="M438.514 512.209C434.371 505.339 428.916 500.618 422.334 497.74C420.535 494.811 420.272 492 421.358 489.293C426.613 492.822 432.2 496.426 437.455 501.959C438.271 505.296 439.256 509.095 438.514 512.209Z" fill="#FFDFBF"/>
<path fill-rule="evenodd" clip-rule="evenodd" d="M421.846 510.735C418.862 507.199 419.424 503.97 422.821 500.989C418.008 501.701 413.637 500.938 409.657 498.877C411.728 503.105 412.703 506.967 411.445 510.085L421.846 510.735Z" fill="#CD7D61"/>
<path fill-rule="evenodd" clip-rule="evenodd" d="M417.62 518.532C413.499 519.813 408.97 519.261 404.294 518.045C402.943 520.482 402.898 522.918 405.431 525.355C409.024 524.877 412.823 525.544 416.97 528.116C415.451 524.054 415.811 520.931 417.62 518.532Z" fill="#BC674D"/>
<path fill-rule="evenodd" clip-rule="evenodd" d="M396.444 502.11C396.603 508.726 394.823 513.585 391.19 517.324L396.079 518.816C398.607 515.485 402.073 508.982 400.401 503.199L396.444 502.11Z" fill="#FFEDCF"/>
<path fill-rule="evenodd" clip-rule="evenodd" d="M388.617 469.868C389.28 473.656 390.758 479.19 393.196 482.978C389.164 482.056 386.283 480.829 382.973 479.464C381.658 472.507 385.314 467.898 388.617 469.868Z" fill="#DA7457"/>
<path fill-rule="evenodd" clip-rule="evenodd" d="M370.459 491.524C373.48 500.979 378.555 508.382 384.461 514.953C379.749 511.63 375.035 507.888 370.322 502.12L370.459 491.524Z" fill="#C68F68"/>
<path fill-rule="evenodd" clip-rule="evenodd" d="M370.285 510.348C372.746 517.703 375.606 524.447 381.672 527.367C377.997 526.569 374.381 524.758 370.864 521.261L370.285 510.348Z" fill="#C68F68"/>
<path fill-rule="evenodd" clip-rule="evenodd" d="M370.844 480.252C370.844 480.252 379.603 491.39 386.093 496.429C380.014 493.989 375.144 490.525 370.177 486.814L370.844 480.252Z" fill="#C68F68"/>
<path fill-rule="evenodd" clip-rule="evenodd" d="M286.181 427.707C273.134 425.447 260.196 422.531 247.454 418.444C256.748 419.241 266.407 420.475 277.227 423.1C266.09 416.894 258.212 408.127 251.344 398.567L277.451 419.754L259.377 388.754C266.773 396.918 273.668 405.666 279.236 415.963C275.591 402.557 272.9 388.948 273.827 374.932L286.181 427.707Z" fill="#7D6265"/>
<path fill-rule="evenodd" clip-rule="evenodd" d="M388.35 429.316C387.906 444.319 386.025 457.567 383.025 469.449L385.155 469.555C388.216 458.28 390.117 445.701 390.906 431.87L388.35 429.316Z" fill="#7C5D48"/>
<path fill-rule="evenodd" clip-rule="evenodd" d="M826.619 202.654L833.328 167.564C844.797 175.224 858.272 176.839 870.665 172.114C873.412 173.74 875.887 176.005 877.709 179.848C883.201 182.165 888.452 182.308 893.382 179.633C890.394 179.146 888.153 178.097 886.638 176.501C886.31 176.436 886.51 170.823 888.551 168.87C890.38 167.126 895.972 164.736 897.381 167.106C900.547 172.439 908.309 199.555 908.309 199.555C908.309 199.555 916.661 203.321 918.888 208.537C921.115 213.752 919.35 229.682 919.35 229.682L924.95 231.5C924.95 231.5 923.256 218.304 925.327 215.048C927.397 211.793 937.13 210.884 937.13 210.884C946.806 191.512 961.583 197.623 952.312 220.997C952.312 220.997 942.352 234.772 941.655 240.046C941.029 244.723 948.108 252.644 948.108 252.644C951.992 253.363 954.589 251.823 955.983 248.166C955.998 243.402 954.696 239.858 951.515 238.052C951.515 232.501 954.027 228.618 958.36 225.955L956.275 215.148C962.28 208.455 965.88 200.101 967.189 190.161C968.036 181.888 964.492 177.177 959.555 173.602C959.918 159.587 954.93 148.246 947.353 138.203C942.074 130.422 934.711 127.838 925.825 129.081C916.469 115.683 899.65 113.611 879.096 117.183C856.415 121.47 841.496 131.532 834.338 147.371L831.073 147.073C829.209 147.073 822.613 155.401 823.602 160.409L827.416 162.893L821.817 175.162L821.062 186.518L824.926 185.829C824.342 192.581 823.83 199.266 826.619 202.654Z" fill="black"/>
<path fill-rule="evenodd" clip-rule="evenodd" d="M957.093 174.579L955.606 177.329L950.107 169.08L951.167 165.484L946.72 163.157L946.934 158.503L945.454 150.889L941.427 158.08L940.794 151.312L938.467 143.062L931.061 151.1L929.581 138.408L920.482 134.39L914.342 139.254L908.415 130.37L898.683 125.717L887.676 121.909L886.616 126.985L867.571 126.562L867.151 136.716L850.432 134.812L843.658 143.908L836.885 150.043L834.765 146.235C847.927 118.561 906.025 103.434 925.839 128.573C943.981 126.914 955.5 141.62 959.911 173.896L957.093 174.579Z" fill="#141414"/>
<path fill-rule="evenodd" clip-rule="evenodd" d="M841.062 280.942L795.55 295.443C781.335 313.471 772.484 334.97 773.26 362.695L772.05 368.212L768.678 370.493L769.773 372.674L771.46 373.467L770.862 375.153L766.892 375.549L767.49 380.309L769.076 381.4L761.172 402.269C787.218 385.925 808.021 393.615 826.761 406.479L826.092 440.607L831.236 458.682L863.842 477.159C902.702 489.421 941.377 492.804 979.17 484.262C979.945 468.886 983.993 453.459 988.668 438.409C999.34 424.194 1035.11 432.323 1071.31 440.829L1082.52 428.423C1082.14 412.786 1084 395.172 1087.97 379.141C1073.31 380.9 1062.39 378.49 1057.99 368.812C1055.35 362.35 1056.4 355.864 1057.99 349.944C1046.91 348.575 1046.27 338.206 1053.15 329.777C1042.6 326.531 1040.77 317.173 1046.49 306.78C1025.79 289.594 1002.76 281.48 979.582 274.402C975.655 272.625 971.493 273.095 967.345 273.516C967.345 273.516 976.936 276.554 978.373 279.244C973.265 291.065 966.975 302.788 958.694 314.345C938.923 336.4 916.811 347.098 891.483 342.183C881.252 328.915 872.921 315.236 868.474 300.728H854.551L844.562 289.834L841.062 280.942Z" fill="#878593"/>
<path fill-rule="evenodd" clip-rule="evenodd" d="M1012.86 595.359L1003.06 604.302C1005.12 619.224 1009.12 633.614 1015.38 647.391C1024.15 660.942 1034.03 673.873 1046.24 685.513C1060.3 686.805 1072.51 690.401 1082.84 696.356C1097.9 709.408 1109.56 723.767 1112.48 741.481L1116.44 761.826C1109.14 762.487 1101.28 762.7 1092.08 761.826L1091.8 742.803L1078.65 715.383L1086.49 743.365L1085.92 761.826C1077.43 763.326 1068.94 763.234 1060.45 760.147L1061.01 748.122L1052.61 722.935L1057.93 748.677L1056.81 759.308C1050.96 764.265 1044.84 762.864 1038.61 759.031L1026.57 719.856L1032.17 749.794C1032.32 758.832 1025.07 756.293 1022.04 756.122C1006.63 731.724 993.193 707.881 977.028 687.962C958.531 674.007 942.708 655.47 929.439 632.561C916.106 606.117 919.443 584.952 936.717 568.208L958.829 549.181C974.332 566.105 991.855 581.796 1012.86 595.359Z" fill="#C77D64"/>
<path fill-rule="evenodd" clip-rule="evenodd" d="M921.769 609.477C937.898 640.332 955.258 663.203 972.589 684.484C956.375 670.663 940.765 653.546 926.942 626.584C924.566 622.178 922.943 616.271 921.769 609.477Z" fill="#955E4B"/>
<path fill-rule="evenodd" clip-rule="evenodd" d="M1031.28 754.537L1038.65 758.917L1027.01 721.1L1032.35 750.05L1031.28 754.537Z" fill="#9E5B44"/>
<path fill-rule="evenodd" clip-rule="evenodd" d="M1057.03 759.131L1058.21 748.983L1052.98 723.554L1060.77 747.589L1060.56 759.557L1057.03 759.131Z" fill="#9E5B44"/>
<path fill-rule="evenodd" clip-rule="evenodd" d="M1085.89 761.264L1092.2 761.157L1091.77 742.889L1078.94 716.187L1086.64 742.995" fill="#9E5B44"/>
<path fill-rule="evenodd" clip-rule="evenodd" d="M890.721 531.185L931.324 573.922L947.474 555.867C940.708 543.04 927.924 536.452 910.742 532.364L890.721 531.185Z" fill="#2D2A42"/>
<path fill-rule="evenodd" clip-rule="evenodd" d="M1136.03 394.799C1128.52 386.032 1121.85 369.882 1105.55 374.659C1068.54 388.074 1049.03 372.822 1058.25 349.144C1058.25 349.144 1055.47 347.573 1051.3 347.289C1045.66 340.668 1048.7 335.191 1053.31 329.922C1042.37 328.515 1041.67 315.32 1046.32 306.442C1046.96 305.228 1046.58 304.38 1045.7 304.128C1040.69 302.703 1035.79 300.167 1033.28 295.372C1032.83 288.255 1035.89 284.913 1040.82 283.597C1054.03 273.703 1056.41 260.564 1056.7 246.791C1054.59 244.097 1052.86 241.041 1051.82 237.273C1051.21 226.628 1052.48 216.253 1054.36 205.967C1058.23 213.573 1062.33 221.042 1069.82 226.485C1069.82 226.485 1087.77 220.033 1095.64 222.889C1100.37 228.876 1124.25 256.009 1135.63 260.753L1136.03 394.799Z" fill="#C77D64"/>
<path fill-rule="evenodd" clip-rule="evenodd" d="M1084.87 291.9C1084.18 282.33 1113.81 275.166 1123 277.434C1126.3 279.092 1135.43 282.133 1136.07 277.156L1134.69 306.087C1133.17 317.76 1088.71 319.251 1088.49 313.876L1084.87 291.9Z" fill="#BE7861"/>
<path fill-rule="evenodd" clip-rule="evenodd" d="M1064.83 271.593C1070.78 276.125 1079.02 278.939 1089.32 280.216C1089.32 280.216 1109.53 275.146 1106.86 274.375C1100.74 272.612 1096.45 260.669 1101.01 259.909L1090.11 266.84C1078.5 269.073 1070.85 270.497 1065.27 267.953L1064.83 271.593Z" fill="#BC755D"/>
<path fill-rule="evenodd" clip-rule="evenodd" d="M1064.72 255.207C1064.72 255.207 1085.81 258.645 1089.94 266.668C1068.84 271.022 1065.41 268.043 1065.41 268.043C1063 263.547 1063.2 259.311 1064.72 255.207Z" fill="#EEE9FF"/>
<path d="M1064.72 255.207C1063.17 254.007 1062.36 251.787 1062.07 248.835" stroke="#1B152C" stroke-width="0.497656" stroke-miterlimit="1.5" stroke-linecap="round" stroke-linejoin="round"/>
<path d="M1068.29 255.999C1066.25 254.83 1065.24 252.861 1065.83 249.938" stroke="#1B152C" stroke-width="0.497656" stroke-miterlimit="1.5" stroke-linecap="round" stroke-linejoin="round"/>
<path d="M1073.3 257.13C1071.2 256.448 1071.05 253.759 1070.91 251.484" stroke="#1B152C" stroke-width="0.497656" stroke-miterlimit="1.5" stroke-linecap="round" stroke-linejoin="round"/>
<path d="M1077.55 258.548C1077.17 257.735 1076.53 255.362 1076.43 253.571" stroke="#1B152C" stroke-width="0.497656" stroke-miterlimit="1.5" stroke-linecap="round" stroke-linejoin="round"/>
<path d="M1082.62 260.336C1082.12 259.663 1081.89 258.432 1082.03 256.478" stroke="#1B152C" stroke-width="0.497656" stroke-miterlimit="1.5" stroke-linecap="round" stroke-linejoin="round"/>
<path fill-rule="evenodd" clip-rule="evenodd" d="M1068.91 256.28C1071.88 260.68 1072.27 264.896 1069.64 268.896L1065.38 267.869C1063.19 264.02 1063.03 259.85 1064.64 255.4L1068.91 256.28Z" fill="black"/>
<path fill-rule="evenodd" clip-rule="evenodd" d="M1052.79 240.079C1052.79 240.079 1064.94 225.639 1089.94 247.413C1095.67 253.831 1094.99 253.831 1094.99 253.831C1091.31 255.407 1069.8 238.686 1056.92 246.497C1053.02 240.079 1052.79 240.079 1052.79 240.079Z" fill="#1B152C"/>
<path fill-rule="evenodd" clip-rule="evenodd" d="M1051.3 347.288C1051.3 347.288 1069.33 341.622 1071.04 338.018C1072.72 334.493 1069.87 330.296 1069.87 330.296C1058.98 327.842 1053.72 325.782 1044.17 316.866C1042.7 324.172 1048.83 329.794 1053.11 330.377C1057.2 333.32 1062.3 333.69 1069.69 333.768C1063.81 334.747 1057.76 333.127 1053.11 330.377C1046.98 335.938 1047.24 343.786 1051.3 347.288Z" fill="#99424D"/>
<path fill-rule="evenodd" clip-rule="evenodd" d="M1054.53 206.05C1051.97 201.551 1046.49 202.636 1041.83 204.907C1040.16 210.942 1042.46 215.551 1049.97 218.285C1048.81 219.16 1049.07 220.034 1050.49 220.908C1045.38 219.845 1040.09 219.003 1033.7 219.596C1031.4 221.215 1031.53 223.199 1032.91 225.368C1029.03 219.667 1022.95 216.62 1015.59 215.137C1017.4 214.431 1017.2 212.913 1014.54 210.416C1020.09 214.473 1024.54 213.801 1027.4 206.219C1024.8 196.886 1038.23 184.627 1032.12 174.479C1021.52 178.151 1005.22 176.536 999.653 167.9C1005.54 166.88 1009.45 164.467 1010.87 160.314C1011.26 152.638 1021.61 138.138 1030.81 136.968L1038.02 137.996C1044.01 123.836 1052.46 111.931 1069.65 106.278C1070.54 108.485 1072.63 110.323 1079.36 110.737C1090.29 108.786 1097.12 104.906 1096.16 97.3592C1110.98 89.9665 1112.21 87.0018 1120.04 80.3089C1116.57 76.9481 1114.59 75.4505 1102.45 72.9638C1110.67 70.6904 1114.45 66.3185 1120.57 64.0457C1125.84 59.8125 1130.68 58.6598 1135.26 59.324L1135.52 260.943C1120.36 251.135 1107.35 237.628 1095.63 223.007C1088.83 221.064 1079.95 222.823 1070.17 226.154C1062.87 220.916 1058.26 213.798 1054.53 206.05Z" fill="#1B152C"/>
<path fill-rule="evenodd" clip-rule="evenodd" d="M978.736 484.601C979.746 469.182 984.022 453.581 988.597 438.648C995.718 427.654 1023.51 427.507 1071.18 441.069L1035.1 471.087L1006.52 502.314C999.838 502.931 995.726 501.076 993.605 497.313C1005.66 497.236 1015.26 490.677 1023.47 480.44C1028.26 471.236 1024.4 469.27 1016.11 470.297C1004.51 476.379 992.054 482.294 978.736 484.601Z" fill="#D8A590"/>
<path fill-rule="evenodd" clip-rule="evenodd" d="M1026.15 473.165C1026.53 474.928 1027.59 476.126 1030.99 475.423L1006.55 501.799C998.635 502.796 995.078 500.836 994.018 497.181C1009.92 495.823 1020.93 488.207 1026.15 473.165Z" fill="#7A6359"/>
<path fill-rule="evenodd" clip-rule="evenodd" d="M1015.77 470.128C1024.01 468.315 1028.87 471.39 1023.47 480.44C1016.11 490.167 1006.75 496.679 993.598 497.122C996.053 500.786 999.454 503.352 1006.3 501.93L972.817 534.001L966.769 534.465L957.314 545.155L957.008 549.339L947.553 556C939.72 542.086 926.735 535.129 910.351 532.761C904.332 530.865 854.949 527.653 839.447 526.65C832.09 526.174 817.32 526.745 817.32 526.745C817.32 526.745 818.843 511.183 817.47 509.358C811.643 501.632 783.12 491.505 760.539 500.711C753.595 464.727 757.743 440.582 761.748 402.217C784.942 388.824 803.518 390.126 826.875 406.623L825.986 440.632L817.086 455.469L831.692 459.027L863.935 477.154C903.919 489.536 942.046 492.388 979.782 484.096C989.571 483.111 1011.59 472.944 1015.77 470.128Z" fill="#DB9B81"/>
<path fill-rule="evenodd" clip-rule="evenodd" d="M848.946 262.904L848.86 266.868C855.558 269.605 865.916 266.23 874.18 262.604C873.156 263.231 855.439 263.454 848.946 262.904Z" fill="white"/>
<path fill-rule="evenodd" clip-rule="evenodd" d="M856.5 243.941C858.044 242.082 860.171 240.516 866.461 240.923C868.631 241.064 868.944 237.801 868.858 235.643C868.218 234.752 865.088 235.543 862.661 236.144C856.066 237.775 856.863 232.868 858.165 231.897C858.812 231.51 868.993 231.514 869.748 231.493C871.704 231.436 873.881 232.386 875.567 233.097C878.534 240.057 882.725 246.405 887.811 252.308C889.106 257.228 887.584 259.647 886.417 262.378L885.634 252.588C880.676 247.154 877.332 241.992 873.433 235.236C872.38 239.313 870.253 242.41 866.29 243.843L856.5 243.941Z" fill="#A5715B"/>
<path fill-rule="evenodd" clip-rule="evenodd" d="M920.169 230.871C920.169 230.871 916.647 246.235 914.513 249.927C913.211 252.18 909.376 253.639 907.341 253.026C905.306 252.413 903.983 246.861 902.304 246.248C900.625 245.634 897.772 247.441 897.267 249.346C896.527 252.155 899.849 260.773 897.85 263.097C895.844 265.42 885.257 263.29 885.257 263.29C876.72 306.233 845.131 298.091 841.851 267.938C841.211 262.004 841.709 256.379 849.77 254.967C857.923 250.937 878.356 252.408 884.247 262.525L884.738 256.674C880.832 246.989 871.484 243.026 857.262 244.181C857.262 244.181 839.859 246.416 836.821 256.377C834.459 255.601 831.372 244.876 831.372 244.876C832.794 255.617 834.651 266.359 840.393 277.1C842.94 284.19 848.888 307.632 869.065 300.204C893.233 295.684 910.656 283.26 925.313 267.582C927.845 256.84 926.358 244.084 925.17 233.342L920.169 230.871Z" fill="black"/>
<path fill-rule="evenodd" clip-rule="evenodd" d="M850.595 277.885C853.783 279.218 858.009 279.741 863.579 279.224C866.703 278.284 868.844 277.595 869.057 274.539C868.076 273.816 867.307 273.092 866.582 272.37C861.623 273.833 856.664 274.327 851.705 274.204C850.054 276.219 850.396 277.723 850.595 277.885Z" fill="black"/>
<path fill-rule="evenodd" clip-rule="evenodd" d="M889.953 293.708C898.128 290.146 906.317 295.045 903.656 300.072C912.542 295.613 930.222 280.546 933.658 272.163C927.319 272.438 928.471 269.089 926.743 258.043L925.476 267.835C924.622 270.548 899.124 291.414 889.953 293.708Z" fill="#A2674F"/>
<path fill-rule="evenodd" clip-rule="evenodd" d="M944.657 254.768C943.17 261.446 944.593 275.268 951.16 277.177C949.844 274.677 949.765 272.282 951.501 270.037C960.025 274.351 968.655 278.642 978.202 279.883L968.228 275.101C952.419 269.241 949.118 262.345 948.029 252.983C946.578 252.165 945.454 252.76 944.657 254.768Z" fill="#F0D2C7"/>
<path fill-rule="evenodd" clip-rule="evenodd" d="M843.973 232.28C842.059 234.188 841.127 238.309 842.045 241.591C842.294 242.492 843.61 242.734 844.656 243.225C842.877 238.754 842.507 235.455 843.973 232.28Z" fill="#F9FCF6" stroke="white" stroke-width="0.490547" stroke-miterlimit="1.5" stroke-linecap="round" stroke-linejoin="round"/>
<path fill-rule="evenodd" clip-rule="evenodd" d="M865.977 209.119C865.024 210.267 865.031 211.818 866.902 213.126L892.137 212.324C891.661 210.722 890.366 210.06 889.199 208.77C883.763 207.232 873.846 208.384 865.977 209.119Z" fill="white"/>
<path fill-rule="evenodd" clip-rule="evenodd" d="M832.688 215.432C839.781 216.072 842.769 215.648 845.964 215.057C848.439 212.762 837.39 210.932 831.706 211.75C830.938 213.127 832.154 214.328 832.688 215.432Z" fill="white"/>
<path fill-rule="evenodd" clip-rule="evenodd" d="M828.39 206.038C834.061 205.746 839.141 206.189 843.886 207.053L841.04 201.239C837.753 200.231 832.346 199.485 828.134 200.326C827.032 202.587 827.188 204.47 828.39 206.038Z" fill="#473445"/>
<path fill-rule="evenodd" clip-rule="evenodd" d="M853.839 200.571C854.202 203.176 855.696 205.086 859.069 205.842C871.27 201.016 882.618 201.113 893.66 202.991C885.407 195.646 872.024 194.978 853.839 200.571Z" fill="#2E2138"/>
<path fill-rule="evenodd" clip-rule="evenodd" d="M864.86 215.007C870.025 219.5 875.646 223.356 882.163 225.954C880.185 220.74 883.109 218.062 888.985 216.91C880.057 218.053 872.167 217.114 864.86 215.007Z" fill="#A5715B"/>
<path fill-rule="evenodd" clip-rule="evenodd" d="M835.178 224.209C838.828 224.327 840.67 225.681 839.468 229.127C847.863 224.605 851.805 215.822 844.861 207.709C847.152 213.486 847.628 220.553 842.278 222.163L835.178 224.209Z" fill="#A5715B"/>
<path d="M844.05 201.401C842.648 201.839 854.963 210.156 849.065 225.462C844.263 235.116 842.826 242.827 847.415 243.654" stroke="#E7AD97" stroke-width="1.42188" stroke-miterlimit="1.5" stroke-linecap="round" stroke-linejoin="round"/>
<path fill-rule="evenodd" clip-rule="evenodd" d="M870.239 304.491C874.884 316.213 881.28 328.256 890.657 341.162L881.487 322.974L870.239 304.491Z" fill="#A66E57"/>
<path fill-rule="evenodd" clip-rule="evenodd" d="M888.139 331.255L892.877 342.198C903.179 343.866 912.471 342.944 921.784 340.512C921.705 334.368 918.518 329.404 911.809 325.784C908.223 327.98 905.15 327.36 902.197 326.08C901.898 334.014 896.022 334.052 888.139 331.255Z" fill="#D48971"/>
<path fill-rule="evenodd" clip-rule="evenodd" d="M878.42 305.978C884.105 308.703 888.964 312.807 892.756 318.686C893.788 314.774 895.403 312.597 897.381 311.524C891.988 308.9 887.171 305.852 883.045 302.282C879.971 302.44 878.342 303.612 878.42 305.978Z" fill="#A2674F"/>
<path fill-rule="evenodd" clip-rule="evenodd" d="M897.608 304.593C906.196 304.559 914.648 304.773 921.649 307.596L931.822 295.812C927.824 292.189 927.824 285.895 929.51 278.484C923.477 294.083 912.478 302.243 897.608 304.593Z" fill="#D48971"/>
<path fill-rule="evenodd" clip-rule="evenodd" d="M844.306 289.646C843.331 317.458 847.237 344.356 854.337 370.654C849.115 346.239 845.672 321.444 847.522 295.513L844.306 289.646Z" fill="#504E5D"/>
<path fill-rule="evenodd" clip-rule="evenodd" d="M986.704 281.885C1004.69 285.67 1022.48 291.855 1039.91 302.138C1025.19 290.676 1007.84 282.914 988.981 277.154C991.016 279.805 990.169 281.349 986.704 281.885Z" fill="#CFCFCF"/>
<path fill-rule="evenodd" clip-rule="evenodd" d="M993.292 415.023C1002.3 384.992 1010.46 353.203 1022.81 330.822C1011.92 357.557 1002.29 389.102 995.043 415.837L993.292 415.023Z" fill="#6D6B77"/>
<path fill-rule="evenodd" clip-rule="evenodd" d="M987.772 429.255C987.459 404.243 985.96 378.182 990.516 357.832C988.354 380.97 988.543 407.294 989.474 429.328L987.772 429.255Z" fill="#6D6B77"/>
<path fill-rule="evenodd" clip-rule="evenodd" d="M1002.93 418.185C1003.59 418.198 1056.02 392.603 1072.16 382.602C1057.24 398.197 1021.62 411.292 1002.93 418.185Z" fill="#6D6B77"/>
<path fill-rule="evenodd" clip-rule="evenodd" d="M1006.34 388.954C1006.9 388.7 1048.39 336.42 1048.39 336.42L1048.29 341.548C1048.29 341.548 1020.23 374.676 1006.34 388.954Z" fill="#6D6B77"/>
<path fill-rule="evenodd" clip-rule="evenodd" d="M1011.01 386.126C1011.33 386.034 1035.02 366.091 1042.22 358.939C1035.84 368.583 1019.56 380.081 1011.01 386.126Z" fill="#6D6B77"/>
<path fill-rule="evenodd" clip-rule="evenodd" d="M999.746 404.476C1000.31 404.367 1036.78 373.833 1047.39 362.681C1039.46 378.233 1013.41 395.432 999.746 404.476Z" fill="#6D6B77"/>
<path fill-rule="evenodd" clip-rule="evenodd" d="M1006.27 420.97C1006.92 421.111 1063.29 406.069 1081.05 399.356C1063.41 411.793 1025.94 417.799 1006.27 420.97Z" fill="#6D6B77"/>
<path fill-rule="evenodd" clip-rule="evenodd" d="M1041.19 422.715C1041.63 422.88 1069.74 416.667 1077.91 413.224C1071.79 420.987 1051.72 422.111 1041.19 422.715Z" fill="#6D6B77"/>
<path fill-rule="evenodd" clip-rule="evenodd" d="M1026.25 395.22C1033.23 392.046 1055.92 382.406 1065.31 377.572C1053.23 388.923 1034.18 394.819 1026.25 395.22Z" fill="#6D6B77"/>
<path fill-rule="evenodd" clip-rule="evenodd" d="M904.46 423.629C906.309 425.475 950.292 336.729 965.922 316.52C946.087 358.055 917.728 437.479 917.856 452.375L904.46 423.629Z" fill="#686576"/>
<path fill-rule="evenodd" clip-rule="evenodd" d="M865.849 313.764C879.808 368.874 901.087 422.171 929.674 474.821L913.915 480.334C882.419 425.406 870.025 369.743 865.849 313.764Z" fill="#605E68"/>
<path fill-rule="evenodd" clip-rule="evenodd" d="M913.588 378.135C890.842 373.627 876.912 346.864 866.944 310.089C877.175 334.795 889.177 358.826 913.588 378.135Z" fill="#504E5D"/>
<path fill-rule="evenodd" clip-rule="evenodd" d="M893.041 346.821C909.454 351.688 925.59 345.7 941.576 334.22C958.993 318.522 971.102 301.149 980.344 282.871C980.422 284.713 981.326 284.898 982.549 284.446C973.663 302.74 961.59 320.081 944.095 335.795C932.27 347.905 919.315 352.913 906.146 362.603C906.964 360.609 905.591 359.795 903.954 359.122L918.319 349.122C908.181 352.751 900.162 350.936 893.041 346.821Z" fill="#504E5D"/>
<path fill-rule="evenodd" clip-rule="evenodd" d="M902.183 485.851C902.183 485.851 856.564 416.677 851.634 375.009C838.628 391.138 841.282 390.06 841.282 390.06C849.684 420.481 857.617 452.701 875.589 480.731L902.183 485.851Z" fill="#625D7D"/>
<path fill-rule="evenodd" clip-rule="evenodd" d="M789.595 304.765C796.161 308.642 800.992 314.259 803.646 322.051C803.098 316.381 804.052 311.908 809.38 310.94C822.251 303.434 832.382 306.628 840.941 315.958L844.007 288.357L841.118 281.245C826.156 284.821 811.358 289.99 795.756 295.169L789.595 304.765Z" fill="#A19FB0"/>
<path fill-rule="evenodd" clip-rule="evenodd" d="M815.954 389.398C802.472 381.721 788.584 375.278 773.267 373.111L773.722 377.011C789.303 378.508 802.828 383.609 815.954 389.398Z" fill="#686576"/>
<path fill-rule="evenodd" clip-rule="evenodd" d="M778.318 350.86C790.427 354.88 801.319 362.132 811.593 371.047C801.369 360.499 790.676 352.308 779.236 347.878L778.318 350.86Z" fill="#686576"/>
<path fill-rule="evenodd" clip-rule="evenodd" d="M803.802 354.705L785.127 331.528L803.048 350.07L792.142 330.15L803.923 348.441L792.647 316.62C800.9 330.787 809.715 344.45 811.799 364.226L811.209 365.24L803.802 354.705Z" fill="#686576" stroke="#686576" stroke-width="0.490547" stroke-miterlimit="1.5" stroke-linecap="round" stroke-linejoin="round"/>
<path fill-rule="evenodd" clip-rule="evenodd" d="M826.349 405.978L811.131 365.018L811.87 364.253L827.117 406.229L826.349 405.978Z" fill="#4B4955"/>
<path fill-rule="evenodd" clip-rule="evenodd" d="M817.199 455.158L800.999 453.875L810.014 453.409L809.928 451.767L804.429 445.445L810.917 451.11L813.791 448.236C813.791 448.236 815.186 438.425 816.829 434.443C818.38 430.689 822.45 428.226 823.645 424.345C824.869 420.39 824.143 410.715 824.143 410.715C824.933 411.8 825.829 411.665 826.854 410.058L826.192 440.354L817.199 455.158Z" fill="#9A6752"/>
<path fill-rule="evenodd" clip-rule="evenodd" d="M835.014 211.501C833.94 212.816 833.912 214.297 835.299 215.671L838.714 215.784C839.788 214.667 839.817 213.362 838.614 211.701L835.014 211.501Z" fill="black"/>
<path fill-rule="evenodd" clip-rule="evenodd" d="M870.416 208.806C869.342 210.12 869.399 211.715 870.793 213.089L874.379 212.862C875.453 211.745 875.261 210.326 874.059 208.666L870.416 208.806Z" fill="black"/>
<path fill-rule="evenodd" clip-rule="evenodd" d="M1013.4 595.531C990.987 582.749 955.948 548.289 957.179 545.211L967.21 534.181L973.372 533.607C994.616 516.115 1013.76 496.997 1030.7 476.161C1046.87 463.976 1062.48 451.953 1073.84 441.206L1073.7 437.482L1077.14 436.336C1087.45 427.227 1097.13 419.514 1105.52 414.704L1135.9 399.662L1135.71 762.658L1129.67 762.914C1109.52 710.801 1092.63 656.633 1083.53 593.008C1075.52 598.737 1065.9 602.448 1054.08 603.401C1048.97 609.224 1042.73 613.914 1035.71 617.828C1022.58 615.654 1016.65 603.075 1013.4 595.531Z" fill="#B2A29E" stroke="white" stroke-width="0.490547" stroke-miterlimit="1.5" stroke-linecap="round" stroke-linejoin="round"/>
<path fill-rule="evenodd" clip-rule="evenodd" d="M1081.76 524.72C1081.76 524.72 1070 465.962 1075.32 446.936C1075.7 466.053 1079.05 511.106 1082.04 509.611L1081.76 524.72Z" fill="#544C5C"/>
<path fill-rule="evenodd" clip-rule="evenodd" d="M959.797 549.694L1042.44 473.577L1084.59 434.428L1106.38 415.862L1135.02 400.396C1113.2 409.228 1094 421.171 1077.44 436.261L1073.78 437.388L1073.96 441.331L1030.94 476.256C1012.49 498.283 993.584 517.172 973.549 533.338L967.445 533.995L956.453 545.918L959.797 549.694Z" fill="#E7D1BB" fill-opacity="0.76"/>
<path fill-rule="evenodd" clip-rule="evenodd" d="M1090.85 570.993L1093.72 570.495L1133.14 430.462L1122.39 411.121C1093.41 448.561 1095.09 511.566 1090.85 570.993Z" fill="#918C92"/>
<path d="M1081.66 579.482C1081.66 579.482 1078.19 486.459 1100.52 437.982" stroke="#544C5C" stroke-width="0.988203" stroke-miterlimit="1.5" stroke-linecap="round" stroke-linejoin="round"/>
<path fill-rule="evenodd" clip-rule="evenodd" d="M1046.69 685.137C1062.75 681.42 1090.64 659.024 1094.24 652.714L1083.44 593.156C1074.46 599.331 1064.6 602.506 1054.09 603.486C1047.86 609.47 1041.96 614.771 1035.72 617.698C1024.78 615.77 1018.21 606.986 1013.69 594.97L1003.18 604.413C1005.92 620.237 1009.67 635.313 1015.4 647.63C1024.82 661.651 1034.98 674.555 1046.69 685.137Z" fill="#0E0A2B"/>
<path fill-rule="evenodd" clip-rule="evenodd" d="M1003.04 605.228C1003.04 605.228 987.032 577.637 967.118 576.032C968.406 574.04 968.832 572.891 966.926 570.417C980.351 575.356 982.251 572.975 981.724 571.563C991.443 580.681 1001.58 589.113 1013.13 595.172C1008.23 599.446 1005.19 602.178 1003.04 605.228Z" fill="#754433"/>
<path fill-rule="evenodd" clip-rule="evenodd" d="M1050.64 336.49L1058.35 335.39L1056.75 332.191L1053.36 330.501C1053.36 330.501 1048.67 334.632 1049.6 335.665C1050.64 336.604 1050.64 336.49 1050.64 336.49Z" fill="#FFF9DE"/>
<path fill-rule="evenodd" clip-rule="evenodd" d="M1046.42 306.144L1045.32 310.018C1045.32 310.018 1058.42 309.698 1060.82 305.84C1063.23 301.981 1061.74 286.587 1061.74 286.587C1059.68 289.191 1057.62 288.337 1055.55 285.44C1059.49 295.544 1056.54 303.375 1046.42 306.144Z" fill="#A86751"/>
<path fill-rule="evenodd" clip-rule="evenodd" d="M1014.13 595.707C1013.7 589.961 1016.13 584.827 1021.19 580.255C1035.82 577.383 1042.3 580.352 1058.88 585.303C1065.07 584.889 1071.25 582.857 1077.44 577.747L1083.53 593.046C1073.94 600.135 1064.15 603.365 1054.18 603.021C1049.22 609.467 1042.99 614.228 1035.68 617.544C1025.39 614.548 1017.38 608.874 1014.13 595.707Z" fill="#4A4E5F" fill-opacity="0.67"/>
<path fill-rule="evenodd" clip-rule="evenodd" d="M1089.56 623.149C1102.34 642.328 1116.72 655.646 1134.85 654.952L1135.71 762.679H1130.26C1111.3 720.404 1097.82 673.829 1089.56 623.149Z" fill="#4F4C5F"/>
<path fill-rule="evenodd" clip-rule="evenodd" d="M967.288 534.495C994.58 560.38 1021.43 588.029 1050.79 605.666L1036.74 618.272C1023.07 613.935 1016.9 605.928 1014.49 596.211C990.788 581.392 971.82 564.435 956.446 545.704L967.288 534.495Z" fill="#938A8B"/>
<path fill-rule="evenodd" clip-rule="evenodd" d="M1135.69 394.056C1127.54 381.385 1120.99 377.489 1112.51 373.46C1088.04 382.25 1062.89 379.736 1065.78 376.291C1085.61 374.383 1103.66 369.041 1119.51 359.452C1120.3 356.631 1119.76 353.809 1116.57 350.988C1124.16 352.064 1130.64 349.699 1135.95 343.663L1135.69 394.056Z" fill="#A86751"/>
<path fill-rule="evenodd" clip-rule="evenodd" d="M1135.7 265.914C1112.92 259.914 1101.77 243.812 1093.48 226.115C1087.16 224.762 1079.68 225.892 1071.7 228.15C1063.63 226.203 1057.27 223.239 1053.38 218.791L1053.56 205.56C1057.81 212.071 1062 220.014 1070.27 225.302C1078.87 223.332 1087.26 222.2 1095.31 222.453C1107.18 237.159 1120.41 250.294 1135.61 261.112L1135.7 265.914Z" fill="#A86751"/>
<path fill-rule="evenodd" clip-rule="evenodd" d="M197.168 601.849L227.622 605.149C227.622 605.149 242.849 605.149 242.849 620.369C250.921 630.088 249.821 631.188 249.821 631.188L250.004 640.54V645.491C250.004 645.491 233.028 622.02 215.416 629.171C207.16 620.002 199.088 611.568 199.088 611.568L197.168 601.849Z" fill="#C97556"/>
<path fill-rule="evenodd" clip-rule="evenodd" d="M232.147 610.403C231.928 614.191 239.186 622.41 240.387 621.93C241.186 620.251 241.343 618.25 241.247 616.124C237.497 609.619 234.91 610.231 232.147 610.403Z" fill="#E39D80"/>
<path fill-rule="evenodd" clip-rule="evenodd" d="M242.756 620.463C242.347 625.643 245.875 631.579 249.717 635.195L249.906 630.312C248.272 625.849 245.368 623.164 242.756 620.463Z" fill="#E39D80"/>
<path fill-rule="evenodd" clip-rule="evenodd" d="M197.595 601.79C199.217 604.443 200.075 606.043 203.046 607.574C206.615 606.914 210.581 606.425 212.586 603.53L197.595 601.79Z" fill="#A46453"/>
<path d="M855.886 694.93C898.941 694.93 933.844 679.936 933.844 661.441C933.844 642.945 898.941 627.951 855.886 627.951C812.83 627.951 777.927 642.945 777.927 661.441C777.927 679.936 812.83 694.93 855.886 694.93Z" fill="black" fill-opacity="0.2"/>
<path d="M855.314 680.935C897.638 680.935 931.948 667.042 931.948 649.904C931.948 632.766 897.638 618.873 855.314 618.873C812.991 618.873 778.681 632.766 778.681 649.904C778.681 667.042 812.991 680.935 855.314 680.935Z" fill="#E6E3E3"/>
<path d="M837.934 673.728C861.742 673.728 883.317 668.032 886.122 661.007C888.927 653.981 871.901 648.286 848.092 648.286C824.284 648.286 802.709 653.981 799.904 661.007C797.099 668.032 814.126 673.728 837.934 673.728Z" fill="black" fill-opacity="0.2"/>
<path fill-rule="evenodd" clip-rule="evenodd" d="M805.873 599.65C813.848 579.418 874.429 573.5 897.594 599.887C898.32 621.755 892.016 647.005 880.149 660.692C856.721 668.223 838.18 666.674 823.56 657.864C811.529 642.212 806.577 624.103 805.873 599.65Z" fill="#D4D2D2"/>
<path fill-rule="evenodd" clip-rule="evenodd" d="M897.63 601.146C897.779 625.935 891.988 645.818 880.149 660.692C887.719 646.582 895.851 613.834 895.851 613.834C895.851 613.834 897.167 605.457 897.63 601.146Z" fill="white"/>
<path fill-rule="evenodd" clip-rule="evenodd" d="M806.165 600.549C806.039 625.339 812.641 642.619 823.104 657.493C814.791 639.959 808.271 622.628 806.165 600.549Z" fill="white"/>
<path fill-rule="evenodd" clip-rule="evenodd" d="M885.257 624.776C907.661 624.362 905.491 642.129 879.623 649.071C877.061 652.694 876.976 654.457 877.851 655.506C909.468 646.603 914.797 624.621 889.277 618.179C887.1 618.531 885.286 619.695 885.257 624.776Z" fill="#D1D1D1"/>
<path fill-rule="evenodd" clip-rule="evenodd" d="M887.89 618.57C921.812 626.602 896.562 651.348 877.965 655.328C908.117 646.341 915.765 625.908 889.341 618.032L887.89 618.57Z" fill="white"/>
<path fill-rule="evenodd" clip-rule="evenodd" d="M806.805 599.651C834.915 616.384 871.519 617.678 896.819 599.887C870.936 567.331 805.617 587.619 806.805 599.651Z" fill="#A8A5A1" stroke="#F3F3F3" stroke-width="1.97641" stroke-miterlimit="1.5" stroke-linecap="round" stroke-linejoin="round"/>
<path fill-rule="evenodd" clip-rule="evenodd" d="M812.717 601.595C838.564 615.56 866.852 614.173 892.116 601.958C867.208 586.744 838.92 585.824 812.717 601.595Z" fill="#DA9E4C"/>
<path fill-rule="evenodd" clip-rule="evenodd" d="M630.669 565.306L689.037 568.611C697.205 564.425 699.183 560.239 701.104 556.052L630.669 565.306Z" fill="black" fill-opacity="0.65"/>
<path fill-rule="evenodd" clip-rule="evenodd" d="M632.462 564.877C632.462 564.877 678.365 567.446 689.735 565.839C694.772 565.127 700.698 555.233 700.698 555.233C701.794 551.777 700.399 550.312 697.874 549.753C699.403 549.918 637.926 546.028 614.199 545.174C611.944 545.093 609.98 550.46 609.98 550.46L609.802 556.647C617.955 557.725 619.421 564.069 632.462 564.877Z" fill="#352D4C"/>
<path fill-rule="evenodd" clip-rule="evenodd" d="M697.532 550.583C702.007 550.992 691.029 563.589 687.123 563.11L629.061 560.135L612.114 549.22L613.829 545.852C614.042 545.423 682.748 549.233 697.532 550.583Z" fill="#7F7C89"/>
<path d="M594.14 643.251C630.944 643.251 660.781 630.434 660.781 614.623C660.781 598.813 630.944 585.996 594.14 585.996C557.335 585.996 527.499 598.813 527.499 614.623C527.499 630.434 557.335 643.251 594.14 643.251Z" fill="black" fill-opacity="0.2"/>
<path d="M593.652 631.288C629.831 631.288 659.16 619.412 659.16 604.762C659.16 590.112 629.831 578.236 593.652 578.236C557.472 578.236 528.143 590.112 528.143 604.762C528.143 619.412 557.472 631.288 593.652 631.288Z" fill="#E6E3E3"/>
<path d="M578.795 625.127C599.146 625.127 617.589 620.258 619.987 614.252C622.385 608.247 607.83 603.378 587.478 603.378C567.126 603.378 548.684 608.247 546.286 614.252C543.888 620.258 558.443 625.127 578.795 625.127Z" fill="black" fill-opacity="0.2"/>
<path fill-rule="evenodd" clip-rule="evenodd" d="M551.388 561.804C558.206 544.509 609.991 539.45 629.793 562.006C630.413 580.699 625.025 602.283 614.881 613.984C594.854 620.421 579.005 619.097 566.507 611.566C556.223 598.186 551.99 582.707 551.388 561.804Z" fill="#D4D2D2"/>
<path fill-rule="evenodd" clip-rule="evenodd" d="M629.824 563.082C629.951 584.273 625.001 601.269 614.881 613.984C621.352 601.922 628.303 573.928 628.303 573.928C628.303 573.928 629.428 566.768 629.824 563.082Z" fill="white"/>
<path fill-rule="evenodd" clip-rule="evenodd" d="M551.638 562.573C551.53 583.763 557.174 598.534 566.117 611.249C559.012 596.26 553.438 581.446 551.638 562.573Z" fill="white"/>
<path fill-rule="evenodd" clip-rule="evenodd" d="M619.248 583.281C638.399 582.928 636.544 598.115 614.431 604.049C612.241 607.147 612.168 608.654 612.916 609.55C639.943 601.94 644.499 583.149 622.684 577.643C620.823 577.943 619.272 578.938 619.248 583.281Z" fill="#D1D1D1"/>
<path fill-rule="evenodd" clip-rule="evenodd" d="M621.498 577.976C650.495 584.842 628.911 605.996 613.014 609.398C638.788 601.716 645.326 584.249 622.738 577.517L621.498 577.976Z" fill="white"/>
<path fill-rule="evenodd" clip-rule="evenodd" d="M552.185 561.804C576.214 576.108 607.504 577.214 629.13 562.006C607.005 534.177 551.169 551.519 552.185 561.804Z" fill="#A8A5A1" stroke="#F3F3F3" stroke-width="1.9751" stroke-miterlimit="1.5" stroke-linecap="round" stroke-linejoin="round"/>
<path fill-rule="evenodd" clip-rule="evenodd" d="M557.239 563.467C579.334 575.404 603.514 574.218 625.11 563.777C603.818 550.771 579.638 549.985 557.239 563.467Z" fill="#DA9E4C"/>
<path d="M787.477 577.154C818.116 577.154 842.955 566.484 842.955 553.322C842.955 540.16 818.116 529.49 787.477 529.49C756.837 529.49 731.999 540.16 731.999 553.322C731.999 566.484 756.837 577.154 787.477 577.154Z" fill="black" fill-opacity="0.2"/>
<path d="M787.07 567.195C817.189 567.195 841.606 557.308 841.606 545.112C841.606 532.916 817.189 523.029 787.07 523.029C756.951 523.029 732.535 532.916 732.535 545.112C732.535 557.308 756.951 567.195 787.07 567.195Z" fill="#E6E3E3"/>
<path d="M774.702 562.065C791.645 562.065 806.998 558.012 808.994 553.013C810.99 548.013 798.874 543.96 781.931 543.96C764.988 543.96 749.635 548.013 747.639 553.013C745.643 558.012 757.759 562.065 774.702 562.065Z" fill="black" fill-opacity="0.2"/>
<path fill-rule="evenodd" clip-rule="evenodd" d="M751.886 509.35C757.562 494.952 800.673 490.74 817.158 509.518C817.674 525.08 813.189 543.049 804.744 552.789C788.071 558.148 774.877 557.046 764.473 550.777C755.911 539.638 752.387 526.751 751.886 509.35Z" fill="#D4D2D2"/>
<path fill-rule="evenodd" clip-rule="evenodd" d="M817.183 510.414C817.29 528.055 813.168 542.204 804.744 552.789C810.131 542.748 815.918 519.443 815.918 519.443C815.918 519.443 816.854 513.482 817.183 510.414Z" fill="white"/>
<path fill-rule="evenodd" clip-rule="evenodd" d="M752.094 509.99C752.004 527.63 756.702 539.928 764.148 550.513C758.233 538.034 753.593 525.701 752.094 509.99Z" fill="white"/>
<path fill-rule="evenodd" clip-rule="evenodd" d="M808.379 527.23C824.322 526.935 822.778 539.579 804.369 544.519C802.546 547.098 802.486 548.352 803.108 549.099C825.608 542.763 829.4 527.12 811.239 522.535C809.69 522.785 808.399 523.614 808.379 527.23Z" fill="#D1D1D1"/>
<path fill-rule="evenodd" clip-rule="evenodd" d="M810.252 522.813C834.393 528.529 816.424 546.139 803.189 548.972C824.646 542.577 830.089 528.035 811.285 522.431L810.252 522.813Z" fill="white"/>
<path fill-rule="evenodd" clip-rule="evenodd" d="M752.549 509.35C772.553 521.258 798.602 522.179 816.606 509.518C798.187 486.35 751.704 500.787 752.549 509.35Z" fill="#A8A5A1" stroke="#F3F3F3" stroke-width="1.97817" stroke-miterlimit="1.5" stroke-linecap="round" stroke-linejoin="round"/>
<path fill-rule="evenodd" clip-rule="evenodd" d="M756.757 510.734C775.151 520.672 795.281 519.685 813.26 510.992C795.534 500.165 775.404 499.51 756.757 510.734Z" fill="#DA9E4C"/>
<path fill-rule="evenodd" clip-rule="evenodd" d="M598.682 761.264L676.85 646.238L482.152 631.046L321.47 763.433L598.682 761.264Z" fill="url(#paint1_linear)"/>
<path fill-rule="evenodd" clip-rule="evenodd" d="M609.823 556.594L604.167 556.187C605.569 545.62 605.882 534.508 605.768 523.188C609.631 522.615 612.548 518.378 613.708 513.752L615.11 512.864C611.125 527.441 608.522 542.018 609.823 556.594Z" fill="#666666"/>
<path fill-rule="evenodd" clip-rule="evenodd" d="M260.199 620.358L269.892 614.605C244.228 605.014 218.462 593.546 195.791 579.447C193.471 586.798 195.257 593.479 197.225 600.83C215.456 602.803 237.63 603.43 240.226 610.739C242.406 613.797 243.718 616.964 243.039 620.379L260.199 620.358Z" fill="#D8C4A9"/>
<path fill-rule="evenodd" clip-rule="evenodd" d="M677.355 646.04L675.42 654.512L602.517 761.755L598.156 760.788L677.355 646.04Z" fill="#B3B3B3"/>
<path fill-rule="evenodd" clip-rule="evenodd" d="M667.95 665.5L673.485 665.333L606.878 762.48L602.275 762.238L667.95 665.5Z" fill="#6E6E6E"/>
<path d="M665.403 548.746L665.297 556.996" stroke="black" stroke-width="0.0497656" stroke-miterlimit="1.5" stroke-linecap="round" stroke-linejoin="round"/>
<path d="M664.524 548.715L664.418 555.378" stroke="black" stroke-width="0.0497656" stroke-miterlimit="1.5" stroke-linecap="round" stroke-linejoin="round"/>
<path d="M663.805 548.441V554.047" stroke="black" stroke-width="0.0497656" stroke-miterlimit="1.5" stroke-linecap="round" stroke-linejoin="round"/>
<path d="M633.946 546.9V553.034" stroke="black" stroke-width="0.0497656" stroke-miterlimit="1.5" stroke-linecap="round" stroke-linejoin="round"/>
<path d="M633.068 546.691L632.855 552.931" stroke="black" stroke-width="0.0497656" stroke-miterlimit="1.5" stroke-linecap="round" stroke-linejoin="round"/>
<path d="M634.897 547.01L634.791 555.154" stroke="black" stroke-width="0.0497656" stroke-miterlimit="1.5" stroke-linecap="round" stroke-linejoin="round"/>
<path fill-rule="evenodd" clip-rule="evenodd" d="M699.496 550.38L681.211 548.837L697.916 549.777L699.496 550.38Z" fill="#9989C6"/>
</g>
<g filter="url(#filter1_d)">
<path d="M339.928 525.203C336.365 624.379 429.359 768.344 429.359 768.344H1365V1.24207H567.603C567.603 1.24207 476.39 19.371 430.072 103.262C383.753 187.152 562.258 227.32 535.18 338.937C508.101 450.555 343.491 426.027 339.928 525.203Z" fill="#4FD095"/>
</g>
<g filter="url(#filter2_d)">
<path d="M363.098 523.892C359.615 623.054 450.507 767 450.507 767H1365V0H585.626C585.626 0 496.476 18.1265 451.204 102.006C405.932 185.886 580.403 226.048 553.936 337.651C527.469 449.253 366.58 424.729 363.098 523.892Z" fill="#81F390"/>
</g>
<g filter="url(#filter3_d)">
<path d="M384.096 525.892C380.686 625.054 469.673 769 469.673 769H1365V2H601.961C601.961 2 514.678 20.1265 470.355 104.006C426.032 187.886 596.846 228.048 570.934 339.651C545.023 451.253 387.505 426.729 384.096 525.892Z" fill="white"/>
</g>
<circle cx="683.211" cy="63.0936" r="106.641" fill="url(#paint2_linear)"/>
<circle cx="637" cy="745.594" r="42.6562" fill="url(#paint3_linear)"/>
<circle cx="1223.52" cy="393.68" r="304.992" fill="url(#paint4_linear)"/>
<defs>
<filter id="filter0_f" x="-7" y="20.5535" width="1150.15" height="760.846" filterUnits="userSpaceOnUse" color-interpolation-filters="sRGB">
<feFlood flood-opacity="0" result="BackgroundImageFix"/>
<feBlend mode="normal" in="SourceGraphic" in2="BackgroundImageFix" result="shape"/>
<feGaussianBlur stdDeviation="3.5" result="effect1_foregroundBlur"/>
</filter>
<filter id="filter1_d" x="313.828" y="-15.7579" width="1059.17" height="801.102" filterUnits="userSpaceOnUse" color-interpolation-filters="sRGB">
<feFlood flood-opacity="0" result="BackgroundImageFix"/>
<feColorMatrix in="SourceAlpha" type="matrix" values="0 0 0 0 0 0 0 0 0 0 0 0 0 0 0 0 0 0 127 0"/>
<feOffset dx="-9"/>
<feGaussianBlur stdDeviation="8.5"/>
<feColorMatrix type="matrix" values="0 0 0 0 0 0 0 0 0 0 0 0 0 0 0 0 0 0 0.25 0"/>
<feBlend mode="normal" in2="BackgroundImageFix" result="effect1_dropShadow"/>
<feBlend mode="normal" in="SourceGraphic" in2="effect1_dropShadow" result="shape"/>
</filter>
<filter id="filter2_d" x="337" y="-17" width="1036" height="801" filterUnits="userSpaceOnUse" color-interpolation-filters="sRGB">
<feFlood flood-opacity="0" result="BackgroundImageFix"/>
<feColorMatrix in="SourceAlpha" type="matrix" values="0 0 0 0 0 0 0 0 0 0 0 0 0 0 0 0 0 0 127 0"/>
<feOffset dx="-9"/>
<feGaussianBlur stdDeviation="8.5"/>
<feColorMatrix type="matrix" values="0 0 0 0 0 0 0 0 0 0 0 0 0 0 0 0 0 0 0.25 0"/>
<feBlend mode="normal" in2="BackgroundImageFix" result="effect1_dropShadow"/>
<feBlend mode="normal" in="SourceGraphic" in2="effect1_dropShadow" result="shape"/>
</filter>
<filter id="filter3_d" x="358" y="-15" width="1015" height="801" filterUnits="userSpaceOnUse" color-interpolation-filters="sRGB">
<feFlood flood-opacity="0" result="BackgroundImageFix"/>
<feColorMatrix in="SourceAlpha" type="matrix" values="0 0 0 0 0 0 0 0 0 0 0 0 0 0 0 0 0 0 127 0"/>
<feOffset dx="-9"/>
<feGaussianBlur stdDeviation="8.5"/>
<feColorMatrix type="matrix" values="0 0 0 0 0 0 0 0 0 0 0 0 0 0 0 0 0 0 0.25 0"/>
<feBlend mode="normal" in2="BackgroundImageFix" result="effect1_dropShadow"/>
<feBlend mode="normal" in="SourceGraphic" in2="effect1_dropShadow" result="shape"/>
</filter>
<linearGradient id="paint0_linear" x1="55.4531" y1="48.9176" x2="541.024" y2="50.2972" gradientUnits="userSpaceOnUse">
<stop stop-color="#37BF97"/>
<stop offset="1" stop-color="#81F390"/>
</linearGradient>
<linearGradient id="paint1_linear" x1="621.107" y1="655.471" x2="375.157" y2="761.755" gradientUnits="userSpaceOnUse">
<stop stop-color="white"/>
<stop offset="1" stop-color="#A6A6A6"/>
</linearGradient>
<linearGradient id="paint2_linear" x1="576.57" y1="63.0936" x2="712.543" y2="63.0936" gradientUnits="userSpaceOnUse">
<stop stop-color="#37BF97"/>
<stop offset="1" stop-color="#81F390"/>
</linearGradient>
<linearGradient id="paint3_linear" x1="594.344" y1="745.594" x2="648.733" y2="745.594" gradientUnits="userSpaceOnUse">
<stop stop-color="#37BF97"/>
<stop offset="1" stop-color="#81F390"/>
</linearGradient>
<linearGradient id="paint4_linear" x1="918.531" y1="393.68" x2="1307.41" y2="393.68" gradientUnits="userSpaceOnUse">
<stop stop-color="#37BF97"/>
<stop offset="1" stop-color="#81F390"/>
</linearGradient>
</defs>
</svg>
