<svg width="360" height="640" viewBox="0 0 360 640" fill="none" xmlns="http://www.w3.org/2000/svg">
<circle cx="134" cy="48" r="150" fill="url(#paint0_linear)"/>
<path fill-rule="evenodd" clip-rule="evenodd" d="M549.811 310.729L237.982 319.36L95.8391 504.645L724.184 509.881L549.811 310.729Z" fill="#F7E5D4"/>
<path fill-rule="evenodd" clip-rule="evenodd" d="M123.048 506.117L160.291 506.608C169.605 494.937 181.97 485.767 184.55 476.241C187.007 467.169 175.77 449.448 175.77 449.448L152.532 475.69L123.048 506.117Z" fill="#0A0500" fill-opacity="0.25"/>
<path fill-rule="evenodd" clip-rule="evenodd" d="M198.998 406.63C198.998 406.63 209.707 413.097 215.456 412.306C236.04 409.476 322.5 389.648 322.5 389.648L377.633 382.839C383.699 368.184 386.327 355.587 341.84 371.178L275.661 392.034L198.998 406.63Z" fill="#060301" fill-opacity="0.11"/>
<path d="M241.636 313.039H269.526V342.487H241.636V313.039Z" fill="#C68F68"/>
<path fill-rule="evenodd" clip-rule="evenodd" d="M0.556458 428.731L58.9334 502.214L130.938 501.962C139.174 498.022 146.412 493.278 151.932 487.164C155.048 482.687 157.14 477.396 158.517 471.525C159.535 461.789 159.307 452.05 158.928 442.311C155.703 434.965 151.418 429.437 145.76 426.262C143.473 416.651 137.69 409.288 130.535 402.807L123.824 360.418L120.461 358.644L118.215 333.175L114.294 330.654L113.937 312.254L111.303 304.898L113.251 276.888C109.276 258.695 101.057 243.202 90.7082 229.064C58.7768 210.079 27.3175 212.925 0.822404 231.191L0.556458 428.731Z" fill="#282D47"/>
<path fill-rule="evenodd" clip-rule="evenodd" d="M146.068 425.804L141.189 414.597C153.707 410.204 167.54 425.462 175.821 448.375L177.21 474.886C170.048 483.837 161.708 488.314 152.192 488.324L157.988 474.218C160.045 464.595 160.019 453.78 159.263 442.549C155.095 433.744 150.638 428.981 146.068 425.804Z" fill="#080522"/>
<path fill-rule="evenodd" clip-rule="evenodd" d="M164.252 426.092C168.904 433.178 171.63 444.105 172.786 454.564C173.943 465.024 173.528 475.017 171.9 480.228L177.38 474.648C176.938 465.167 176.652 461.191 176.059 448.959C172.841 440.332 168.976 432.61 164.252 426.092Z" fill="#AC978A"/>
<path fill-rule="evenodd" clip-rule="evenodd" d="M0.986467 231.587C25.2951 211.983 63.5232 211.272 91.0685 229.306C93.9982 228.425 97.4718 228.249 99.0114 228.411C75.975 208.875 53.7453 188.695 32.7781 167.504L24.7015 174.176C24.7015 174.176 20.445 169.231 17.6785 169.611C14.6937 170.02 9.5435 175.639 6.79289 176.634C5.00138 177.282 0.440552 176.981 0.440552 176.981L0.986467 231.587Z" fill="#404158"/>
<path fill-rule="evenodd" clip-rule="evenodd" d="M91.2678 229.409C101.159 243.275 108.845 258.794 113.44 276.632L111.389 304.747L113.991 312.153L114.289 330.376L118.331 333.314L120.253 358.422L123.714 360.249L128.384 387.465C129.422 367.466 131.414 347.553 135.366 327.818C136.239 314.694 136.27 301.758 134.76 289.164C138.355 269.976 132.373 254.754 124.937 243.429C124.297 242.453 124.33 244.5 122.808 248.215L99.2518 228.456C96.5904 227.839 93.9291 228.5 91.2678 229.409Z" fill="#161732"/>
<path fill-rule="evenodd" clip-rule="evenodd" d="M135.934 285.985L128.743 381.557C146.286 393.134 165.651 401.382 184.361 406.351L180.091 396.912L203.238 341.852L196.721 344.549L191.327 340.279L182.563 339.605L178.293 332.863H174.023L173.349 328.369L168.629 324.323L165.258 324.997L155.37 316.458L154.92 307.018C151.724 300.807 147.677 297.716 143.313 295.782L135.934 285.985Z" fill="#2D3048"/>
<path fill-rule="evenodd" clip-rule="evenodd" d="M184.11 347.864C184.11 347.864 173.555 370.753 151.327 374.215C162.687 368.399 175.056 357.732 184.11 347.864Z" fill="#1C1F37"/>
<path fill-rule="evenodd" clip-rule="evenodd" d="M131.706 356.811C143.681 358.418 163.625 351.151 178.03 345.467C162.412 346.305 146.942 348.144 132.319 347.738L131.706 356.811Z" fill="#181831"/>
<path fill-rule="evenodd" clip-rule="evenodd" d="M131.405 383.491L132.859 373.589L141.24 378.205C141.24 378.205 156.787 377.962 162.253 383.549C155.208 387.801 154.844 387.072 154.844 387.072C154.844 387.072 151.807 389.744 158.488 391.08C165.533 391.93 166.14 392.173 166.14 392.173L176.829 390.23C176.829 390.23 191.726 361.806 197.721 355.005L180.23 396.668L184.238 406.142C164.989 400.943 148.088 392.641 131.405 383.491Z" fill="#0E0926"/>
<path fill-rule="evenodd" clip-rule="evenodd" d="M143.971 297.23C144.645 301.026 144.744 304.822 144.123 308.617C148.506 304.61 148.09 300.832 143.971 297.23Z" fill="#18182F"/>
<path fill-rule="evenodd" clip-rule="evenodd" d="M133.732 342.598C141.32 339.904 148.909 338.381 156.498 336.968L133.922 345.55L133.732 342.598Z" fill="#15162F"/>
<path fill-rule="evenodd" clip-rule="evenodd" d="M184.361 406.351L180.091 396.912L203.326 341.878L213.299 339.729L217.901 343.258L226.186 341.417L238.613 348.321L243.829 348.781L230.635 387.29L218.362 405.393L197.957 406.467L193.815 411.222L184.361 406.351Z" fill="#887879"/>
<path fill-rule="evenodd" clip-rule="evenodd" d="M193.728 368.235C204.602 376.881 215.938 383.983 227.434 390.555L229.256 388.581C217.896 379.851 206.576 370.861 194.791 364.895L193.728 368.235Z" fill="#3D3B57"/>
<path fill-rule="evenodd" clip-rule="evenodd" d="M218.142 343.123C217.652 344.315 218.356 345.291 220.146 346.068C221.674 344.561 224.152 343.462 227.13 342.576L225.764 341.665L218.142 343.123Z" fill="#201C26"/>
<path fill-rule="evenodd" clip-rule="evenodd" d="M191.256 381.226L192.331 391.393L205.844 400.654C199.907 394.746 195.379 387.134 191.256 381.226Z" fill="#1F293F"/>
<path fill-rule="evenodd" clip-rule="evenodd" d="M195.617 409.04C194.682 406.793 195.176 405.76 195.569 403.182C198.577 403.516 200.691 404.564 202.041 406.225L198.101 406.272L195.617 409.04Z" fill="#1C172B"/>
<path fill-rule="evenodd" clip-rule="evenodd" d="M180.446 396.555L183.98 397.01C184.698 395.138 184.3 391.461 183.462 389.589L180.446 396.555Z" fill="#100E2A"/>
<path fill-rule="evenodd" clip-rule="evenodd" d="M220.276 402.534C257.184 399.127 294.552 388.355 332.137 374.126C332.439 376.091 364.225 373.928 366.012 362.589C371.385 359.725 381.098 360.321 381.464 360.871L384.733 364.062C387.564 364.131 388.667 362.149 388.53 358.694C387.703 352.469 382.802 350.188 376.223 349.53L385.719 351.068L392.197 356.731C396.824 358.494 397.703 355.499 396.193 351.017L394.295 348.58L397.291 351.74L397.717 345.956L395.992 344.686L399.787 344.162C402.316 343.201 402.311 338.01 402.311 338.01C402.928 338.838 404.718 337.963 405.288 336.962C405.111 333.465 403.265 330.061 401.489 327.143L385.78 316.277L360.121 318.372L332.628 339.187C323.26 343.57 313.508 345.256 303.433 344.686C283.512 349.301 263.592 351.578 243.671 348.762L230.474 387.365L220.276 402.534Z" fill="#BF7255"/>
<path fill-rule="evenodd" clip-rule="evenodd" d="M0.929388 429.072L59.1764 502.881L-1.52588e-05 501.592L0.929388 429.072Z" fill="#080522"/>
<path fill-rule="evenodd" clip-rule="evenodd" d="M122.434 247.254C124.588 242.421 128.785 238.828 133.968 238.271L173.484 241.707L178.951 229.212L185.043 220.622L186.604 216.561L194.258 208.908L196.132 201.567L206.252 199.368C209.457 198.052 209.466 193.94 208.595 189.059L202.816 168.129L208.595 162.038L209.533 132.206L190.321 134.861L162.207 147.746L148.54 155.166L127.908 163.506L119.91 158.258C113.791 151.981 107.386 151.713 100.917 152.76C94.5866 153.798 88.2558 159.786 81.925 166.755L57.7383 172.917C75.1618 198.898 98.5282 225.035 122.434 247.254Z" fill="#B86750"/>
<path fill-rule="evenodd" clip-rule="evenodd" d="M115.593 197.788C103.659 198.269 95.2924 190.257 91.5323 178.478C86.046 160.921 90.9293 155.258 99.348 153.651C107.67 151.315 114.525 153.381 119.577 160.854L120.283 168.639L116.727 172.194C116.268 175.98 116.5 179.852 118.658 183.964C123.326 190.296 121.714 194.725 115.593 197.788Z" fill="#C8725A"/>
<path fill-rule="evenodd" clip-rule="evenodd" d="M129.923 162.691C129.923 162.691 131.284 188.028 129.157 194.494C127.711 198.892 119.161 197.317 117.161 201.491C113.869 208.368 124.677 232.976 127.408 232.48C129.397 233.649 131.421 234.678 133.478 235.577C145.784 240.953 158.956 240.864 173.69 241.328C176.161 236.895 178.718 233.388 179.589 229.221L175.272 234.99C169.799 236.918 163.138 237.281 159.373 236.22C157.549 232.327 156.941 229.405 158.533 226.572C160.08 224.975 162.525 224.305 164.643 223.483C152.468 220.864 143.963 216.27 139.47 209.809C136.974 205.758 144.423 188.797 147.338 188.348C146.33 184.587 145.729 182.859 145.151 181.249C145.04 173.69 146.3 165.102 147.9 156.259L129.923 162.691Z" fill="#000108" stroke="black" stroke-width="0.66" stroke-miterlimit="1.5" stroke-linecap="round" stroke-linejoin="round"/>
<path fill-rule="evenodd" clip-rule="evenodd" d="M184.373 167.702L205.026 165.892C207.284 164.499 207.723 163.256 206.855 162.123C200.309 160.576 192.744 161.572 184.635 163.933C181.451 163.815 181.201 166.976 184.373 167.702Z" fill="black" stroke="black" stroke-width="0.66" stroke-miterlimit="1.5" stroke-linecap="round" stroke-linejoin="round"/>
<path fill-rule="evenodd" clip-rule="evenodd" d="M44.9556 157.822L58.0496 173.043L81.8628 166.782C85.9132 162.199 90.131 158.118 94.5717 154.706C101.171 151.641 112.601 149.625 119.201 157.531C122.4 159.167 125.977 162.963 128.785 163.738C147.556 156.739 172.172 144.99 190.635 133.642L107.657 133.526L46.1199 122.01C46.7994 128.158 47.479 134.099 48.1582 139.771C46.1414 145.313 45.0664 151.327 44.9556 157.822Z" fill="black" stroke="black" stroke-width="0.66" stroke-miterlimit="1.5" stroke-linecap="round" stroke-linejoin="round"/>
<path fill-rule="evenodd" clip-rule="evenodd" d="M109.469 151.945C114.803 153.879 121.301 157.848 128.809 163.583C148.306 155.589 166.098 147.012 184.591 137.587L162.605 135.861C146.993 134.918 131.221 136.543 115.27 141.032C111.588 142.762 108.738 148.518 109.469 151.945Z" fill="#0B0B0B"/>
<path fill-rule="evenodd" clip-rule="evenodd" d="M53.823 146.5C63.3723 146.852 68.407 150.295 77.3043 154.774C82.0769 153.688 85.6277 151.554 87.3589 147.861C86.7518 144.785 85.0154 142.587 82.4536 141.032L85.8347 138.446C90.6746 137.64 95.0456 138.107 98.3646 141.43C100.045 145.028 100.377 148.872 99.6677 152.905C93.1508 154.965 87.5328 160.023 82.319 166.43L61.3807 171.79C55.8127 166.707 51.0439 161.465 47.6482 155.948C51.027 153.704 53.0518 149.831 53.823 146.5Z" fill="#0B0B0B"/>
<path fill-rule="evenodd" clip-rule="evenodd" d="M15.5481 104.249C22.1201 111.135 31.5923 117.246 46.1198 122.01C92.2441 135.201 140.013 137.703 188.788 133.656C211.21 132.451 228.908 129.087 232.754 119.39C229.961 112.057 220.644 109.902 212.537 108.416C210.724 86.359 210.6 64.4289 201.308 50.3847C193.481 30.5822 119.265 13.4629 95.6172 20.6865C78.1615 21.6577 61.9818 28.5826 46.1198 36.9915C40.1681 40.8176 37.7629 50.186 40.2971 67.272V92.3117C25.0834 92.9375 16.4422 96.7286 15.5481 104.249Z" fill="#100D22"/>
<path fill-rule="evenodd" clip-rule="evenodd" d="M40.297 92.3117C96.9614 103.379 154.071 103.865 212.018 101.678L212.536 119.83C209.718 128.286 58.7889 122.866 40.125 101.737L40.297 92.3117Z" fill="#131227"/>
<path fill-rule="evenodd" clip-rule="evenodd" d="M148.541 122.871C162.16 115.631 175.974 109.557 190.028 104.923C197.394 102.442 204.761 102.071 212.126 101.99L212.848 119.533C207.497 125.042 171.063 124.149 148.541 122.871Z" fill="#231E3F"/>
<path fill-rule="evenodd" clip-rule="evenodd" d="M205.395 102.137C203.508 110.748 211.751 120.731 212.848 118.936L212.141 101.974C209.96 102.194 207.983 102.026 205.395 102.137Z" fill="#A197D9"/>
<path fill-rule="evenodd" clip-rule="evenodd" d="M212.145 101.734L210.04 101.748C210.961 76.4021 203.493 53.4966 188.565 38.8911C200.505 42.8527 210.117 58.3061 212.145 101.734Z" fill="#A197D9"/>
<path fill-rule="evenodd" clip-rule="evenodd" d="M157.034 87.1157C132.899 78.1441 125.181 71.3351 117.695 53.8691C118.862 47.449 185.734 48.065 195.578 66.9668C194.464 83.1087 178.86 87.6116 157.034 87.1157Z" fill="#1B182D"/>
<path fill-rule="evenodd" clip-rule="evenodd" d="M45.7627 45.3013C53.7682 47.248 60.6922 42.5774 67.0006 37.0561C66.5566 34.8322 65.3063 33.2122 63.5045 32.0063C57.2872 32.8238 51.0695 34.9009 44.8522 39.1126C43.5183 42.275 43.3631 43.8365 45.7627 45.3013Z" fill="#181432"/>
<path d="M115.234 290.43C116.522 290.43 117.566 289.202 117.566 287.687C117.566 286.173 116.522 284.945 115.234 284.945C113.947 284.945 112.902 286.173 112.902 287.687C112.902 289.202 113.947 290.43 115.234 290.43Z" fill="white"/>
<path d="M117.946 306.52C119.234 306.52 120.278 305.292 120.278 303.777C120.278 302.263 119.234 301.035 117.946 301.035C116.658 301.035 115.614 302.263 115.614 303.777C115.614 305.292 116.658 306.52 117.946 306.52Z" fill="white"/>
<path d="M121.471 320.892C122.759 320.892 123.803 319.664 123.803 318.15C123.803 316.635 122.759 315.407 121.471 315.407C120.184 315.407 119.14 316.635 119.14 318.15C119.14 319.664 120.184 320.892 121.471 320.892Z" fill="white"/>
<path fill-rule="evenodd" clip-rule="evenodd" d="M231.238 116.717C196.918 128.84 157.376 125.086 118.53 127.823C140.655 128.012 164.129 128.194 191.774 126.685C208.38 126.11 219.914 122.026 231.974 118.583L231.238 116.717Z" fill="#A197D9"/>
<path fill-rule="evenodd" clip-rule="evenodd" d="M199.471 166.532C202.27 176.105 204.279 185.678 205.057 195.251C204.961 195.993 204.377 198.34 204.042 199.082L206.038 199.366C213.145 197.618 205.331 177.997 202.364 167.27L199.471 166.532Z" fill="#DD917D"/>
<path fill-rule="evenodd" clip-rule="evenodd" d="M195.072 176.168C196.833 174.229 198.047 172.141 198.5 169.846C198.988 167.415 197.729 166.839 195.836 166.908C193.227 169.625 192.065 172.722 191.716 176.034L195.072 176.168Z" fill="#DD917D"/>
<path fill-rule="evenodd" clip-rule="evenodd" d="M191.71 199.935C194.463 193.918 195.749 191.125 198.545 188.806C198.151 187.938 196.542 187.851 194.481 188.054C190.22 190.649 188.06 194.973 187.813 200.096C187.499 206.603 187.018 206.169 190.427 203.579C192.726 201.833 195.595 200.031 191.71 199.935Z" fill="#6F2F1D"/>
<path fill-rule="evenodd" clip-rule="evenodd" d="M197.279 198.635C198.432 198.417 199.466 198.319 200.262 198.457C201.206 198.725 201.64 199.356 201.75 200.219L199.292 200.643C197.085 200.226 197.106 199.409 197.279 198.635Z" fill="#6F2F1D"/>
<path fill-rule="evenodd" clip-rule="evenodd" d="M180.705 210.003C178.322 209.371 177.718 208.047 178.012 206.374C178.619 203.368 179.471 200.364 180.821 197.359C178.051 193.183 178.059 189.007 179.066 184.832C180.365 180.872 192.05 180.529 192.178 181.553L191.359 189.046C188.7 192.478 187.012 196.395 186.676 200.988L186.001 205.381C185.222 207.377 183.416 208.899 180.705 210.003Z" fill="#DD917D"/>
<path fill-rule="evenodd" clip-rule="evenodd" d="M176.177 233.387C165.83 234.574 163.356 232.073 164.508 227.578C169.872 225.768 176.094 223.463 180.957 223.659C181.06 225.509 178.043 231.255 176.177 233.387Z" fill="#DD917D"/>
<path fill-rule="evenodd" clip-rule="evenodd" d="M203.943 135.181L203.211 150.181L202.297 158.048L207.236 159.877L209.248 134.815L203.943 135.181Z" fill="#DD917D"/>
<path fill-rule="evenodd" clip-rule="evenodd" d="M181.567 178.133C185.15 177.387 188.781 176.889 192.543 177.039L191.828 179.079C187.394 180.003 184.383 179.187 181.567 178.133Z" fill="white"/>
<path fill-rule="evenodd" clip-rule="evenodd" d="M190.753 177.015C189.939 177.769 189.904 178.523 190.727 179.278L191.83 179.022L192.329 177.065L190.753 177.015Z" fill="black" stroke="black" stroke-width="0.66" stroke-miterlimit="1.5" stroke-linecap="round" stroke-linejoin="round"/>
<path fill-rule="evenodd" clip-rule="evenodd" d="M121.652 201.951C127.127 200.781 130.977 197.603 132.665 191.754L133.073 170.545L146.132 170.833L145.531 181.18C146.793 183.582 147.657 185.994 147.657 188.396C144.466 193.005 141.245 197.299 139.311 208.635C143.87 215.209 149.694 218.209 156.481 220.774C156.167 223.918 154.636 227.434 151.427 229.687C140.663 225.442 120.062 207.356 121.652 201.951Z" fill="#0B0B0B"/>
<path fill-rule="evenodd" clip-rule="evenodd" d="M114.311 205.859L111.021 224.002C111.956 231.608 115.333 238.602 123.683 244.355C126.924 240.4 130.237 238.064 134.903 238.386C123.576 232.428 118.074 220.094 114.311 205.859Z" fill="#9A4C37"/>
<path fill-rule="evenodd" clip-rule="evenodd" d="M114.499 198.282C96.9503 195.644 90.5475 182.705 89.4883 170.539C84.3671 171.19 80.1269 175.071 76.0527 179.561C79.9652 187.708 86.7761 194.405 97.6785 199.057L114.499 198.282Z" fill="#9A4C37"/>
<path fill-rule="evenodd" clip-rule="evenodd" d="M113.372 185.12C110.535 175.116 107.005 172.072 99.7382 171.29C102.675 167.621 106.397 164.997 111.802 164.62C112.139 162.564 111.168 161.422 108.762 161.285C107.61 158.999 108.408 158.063 110.821 158.245C113.234 158.157 115.293 159.043 116.608 161.972C117.706 163.921 117.625 165.672 115.431 167.072C112.204 166.456 109.719 166.746 108.468 168.544C107.915 170.73 109.002 171.278 110.429 171.486C111.116 170.799 113.964 171.943 112.979 174.33C111.788 177.219 113.611 182.443 115.235 183.256C115.663 184.827 115.033 185.408 113.372 185.12Z" fill="#773D2D"/>
<path fill-rule="evenodd" clip-rule="evenodd" d="M100.146 183.168C97.3751 180.197 94.9147 176.137 93.2415 169.324C91.2765 162.905 99.404 154.324 103.536 156.77L105.545 159.657C98.8361 159.832 95.42 162.337 96.3908 169.368C96.2374 170.03 96.1108 175.689 100.146 183.168Z" fill="#A25A47"/>
<path fill-rule="evenodd" clip-rule="evenodd" d="M175.31 217.708C181.061 210.127 186.693 207.354 194.1 199.88C194.985 201.291 195.196 202.927 194.484 204.87C186.955 211.53 179.932 217.257 172.611 223.082L175.31 217.708Z" fill="black" stroke="black" stroke-width="0.66" stroke-miterlimit="1.5" stroke-linecap="round" stroke-linejoin="round"/>
<path fill-rule="evenodd" clip-rule="evenodd" d="M213.252 115.483C216.838 118.154 221.795 118.737 225.729 117.41L225.998 112.596C221.346 109.912 218.815 109.246 213.012 108.909L213.252 115.483Z" fill="black"/>
<path fill-rule="evenodd" clip-rule="evenodd" d="M31.2325 166.599C34.4355 161.803 38.1938 158.116 42.4401 155.405C67.827 186.715 94.0678 220.234 122.818 247.954C91.572 222.397 60.0454 195.284 31.2325 166.599Z" fill="#21213A" stroke="white" stroke-width="0.66" stroke-miterlimit="1.5" stroke-linecap="round" stroke-linejoin="round"/>
<path fill-rule="evenodd" clip-rule="evenodd" d="M32.7688 168.125L24.9227 174.082C24.9227 174.082 20.2422 169.38 17.6561 169.54C15.07 169.699 9.40567 175.04 9.40567 175.04C9.40567 173.416 44.0273 185.051 50.7372 191.059C56.7157 195.613 82.4849 219.417 82.9967 219.245L83.6487 215.173L32.7688 168.125Z" fill="#111330"/>
<path fill-rule="evenodd" clip-rule="evenodd" d="M14.161 247.697C28.5903 282.95 53.229 312.337 98.0496 330.131L74.1593 308.948C47.2543 293.759 29.8715 270.765 14.161 247.697Z" fill="#333751"/>
<path fill-rule="evenodd" clip-rule="evenodd" d="M115.991 337.405C100.474 321.16 84.9569 304.916 69.44 288.671C61.7411 287.951 55.2957 289.021 49.9141 291.61C57.3485 298.288 65.3423 304.127 74.1008 308.819C87.1228 319.289 100.649 329.255 115.991 337.405Z" fill="#1D203A"/>
<path fill-rule="evenodd" clip-rule="evenodd" d="M109.84 325.854C107.018 319.557 107.853 316.255 109.445 314.371L59.9846 266.609C53.7127 265.494 48.1811 262.899 43.0131 259.578L70.4098 288.671L109.84 325.854Z" fill="#32374C"/>
<path fill-rule="evenodd" clip-rule="evenodd" d="M67.9854 262.972C75.4548 281.475 110.684 314.69 112.597 314.372L85.6846 275.094C79.5132 272.14 73.7142 267.696 67.9854 262.972Z" fill="#282E45"/>
<path fill-rule="evenodd" clip-rule="evenodd" d="M69.16 238.975L106.787 277.952C102.528 262.509 92.3394 248.626 79.6909 235.391L69.16 238.975Z" fill="#24273D"/>
<path fill-rule="evenodd" clip-rule="evenodd" d="M1.04209 307.573L116.567 501.724L59.5144 502.892L1.00003 429.191L1.04209 307.573Z" fill="#121532"/>
<path fill-rule="evenodd" clip-rule="evenodd" d="M145.691 487.819C149.755 476.33 143.025 458.111 141.967 459.325C138.896 456.019 145.492 441.878 131.455 419.423L121.289 418.385C121.564 410.526 124.299 397.438 128.88 392.56L130.472 402.851C137.828 409.125 143.171 416.772 145.866 426.223C152.881 431.06 155.817 434.702 159.028 442.581C159.729 452.133 160.948 475.101 151.942 487.202C147.914 490.427 149.058 489.558 145.691 487.819Z" fill="#6C646C"/>
<path fill-rule="evenodd" clip-rule="evenodd" d="M101.599 331.137C102.265 340.833 109.982 352.675 120.166 358.648L118.423 340.02L101.599 331.137Z" fill="#4B4D5E"/>
<path fill-rule="evenodd" clip-rule="evenodd" d="M126.424 357.537L130.258 305.123C131.927 279.016 128.287 265.455 119.495 252.06L123.882 250.273C135.082 265.15 133.18 285.359 134.005 304.682L128.848 354.385L126.424 357.537Z" fill="#464953"/>
<path fill-rule="evenodd" clip-rule="evenodd" d="M40.8949 241.793C68.3991 256.364 91.9225 273.922 105.296 299.091C105.944 295.074 107.144 291.333 109.558 288.199L65.519 238.005C57.3111 237.068 49.1032 238.756 40.8949 241.793Z" fill="#373D52"/>
<path fill-rule="evenodd" clip-rule="evenodd" d="M19.3579 271.237C29.6163 289.21 43.7072 307.184 60.5862 325.157C69.2587 329.539 76.3476 325.678 79.4548 322.105C60.1646 309.998 43.3338 295.59 31.5695 280.31C26.774 276.298 22.6965 274.932 19.3579 271.237Z" fill="#1B203C"/>
<path fill-rule="evenodd" clip-rule="evenodd" d="M369.266 332.318C375.973 333.69 382.272 333.815 388.978 332.741C393.833 332.377 398.549 332.417 402.587 334.503C403.382 338.196 403.143 341.275 400.881 343.16C390.918 345.9 383.203 344.102 374.42 344.882C368.691 352.524 360.971 356.922 354.755 359.869C349.384 362.417 353.044 333.009 369.266 332.318Z" fill="#A95F43"/>
<path fill-rule="evenodd" clip-rule="evenodd" d="M196.522 344.72L203.415 341.855L213.391 339.859L217.873 342.972L225.696 341.556L238.82 348.179L243.871 348.492C241.766 309.647 244.557 270.802 247.91 231.957C229.175 201.762 193.63 208.992 184.826 253.71L196.522 344.72Z" fill="#ECD7BB"/>
<path fill-rule="evenodd" clip-rule="evenodd" d="M184.826 253.71C192.301 213.044 227.818 198.746 247.91 231.957C247.811 231.89 252.304 231.154 252.279 230.986C251.749 227.458 249.724 220.354 249.724 220.354C241.17 207.843 232.089 200.86 222.792 196.137C218.065 195.739 213.396 195.629 208.959 196.682C208.968 199.37 202.641 200.459 196.23 201.825L194.485 208.923L186.714 216.686L185.274 220.563L179.668 229.031C179.183 233.646 176.758 237.535 173.949 241.279L159.965 242.212L136.347 275.463L136.554 286.608L143.361 296.094C149.791 299.032 153.042 302.948 154.765 307.334L155.304 315.928L165.213 325.029L168.546 324.216L173.514 328.648L174.182 332.454L178.688 333.608L182.615 339.248L191.306 340.082L196.71 344.757L184.826 253.71Z" fill="#D8C4A9"/>
<path fill-rule="evenodd" clip-rule="evenodd" d="M254.514 242.984C260.239 236.144 266.605 229.946 273.628 224.404C281.247 227.37 293.645 230.115 295.534 216.259C302.338 208.522 308.196 199.941 313.664 191.018C312.14 181.941 312.955 174.478 316.643 166.85C317.209 149.313 308.844 142.098 295.649 138.321C287.46 152.511 276.499 160.119 261.488 157.699C253.88 165.222 249.614 172.327 248.958 178.98C251.163 191.349 254.473 203.35 258.902 214.978L250.151 220.547L254.514 242.984Z" fill="#ECBB98"/>
<path fill-rule="evenodd" clip-rule="evenodd" d="M277.542 198.478C283.31 202.692 288.545 207.766 296.605 205.677L297.824 201.122C290.958 201.504 284.218 200.374 277.542 198.478Z" fill="#FBF5ED"/>
<path fill-rule="evenodd" clip-rule="evenodd" d="M275.304 195.878C283.614 196.823 291.94 197.707 300.651 197.044C302.949 199.595 301.426 201.4 298.117 201.38C291.021 201.224 284.104 200.291 277.407 198.41C285.458 204.897 291.191 207.35 296.587 205.765C297.115 207.302 296.728 209.01 295.598 210.34C294.56 211.517 292.256 211.728 289.144 210.418C282.041 207.285 276.598 202.538 275.304 195.878Z" fill="#DA6C61"/>
<path fill-rule="evenodd" clip-rule="evenodd" d="M287.581 330.827C284.477 327.356 279.006 323.328 272.499 319.056C263.723 318.748 256.694 316.826 255.492 309.714C251.676 307.776 250.587 315.792 251.928 316.587L273.185 322.824L251.928 316.587L243.537 316.411L243.244 320.719C247.429 324.201 255.377 328.132 255.377 328.132C255.377 328.132 262.685 330.919 266.312 332.116C258.4 330.985 250.683 327.616 243.172 321.881L243.273 330.716C245.609 333.957 251.806 338.922 251.806 338.922C251.806 338.922 258.244 341.698 262.238 342.299C254.761 341.489 248.421 338.82 243.145 334.407L243.697 343.37C245.61 345.428 251.009 347.864 251.009 347.864C251.009 347.864 254.198 348.75 256.001 349.046C265.129 350.018 274.186 349.93 283.114 347.9C287.411 344.021 289.488 338.709 287.581 330.827Z" fill="#ECBB98"/>
<path fill-rule="evenodd" clip-rule="evenodd" d="M261.119 319.284L272.377 321.796L272.511 322.665L261.119 319.284Z" fill="#C49A7C"/>
<path fill-rule="evenodd" clip-rule="evenodd" d="M247.893 231.951L252.12 230.957L254.521 243.309L253.114 267.502C253.14 272.668 254.599 275.865 256.943 277.845L259.33 270.983L259.578 308.523L255.427 309.601C252.721 308.238 250.952 312.139 251.273 316.212L243.254 316.163C243.009 291.203 246.414 259.522 247.893 231.951Z" fill="#D6BB97"/>
<path fill-rule="evenodd" clip-rule="evenodd" d="M254.785 243.168L253.114 267.502C252.925 272.602 254.436 275.623 256.853 277.536L259.24 271.331L259.846 308.759L255.448 309.58C257.121 315.833 262.589 319.262 272.867 319.111L279.981 323.782L287.546 320.228L283.425 324.792C288.625 321.076 297.941 319.11 302.978 319.869C306.024 323.42 309.649 331.461 313.842 337.38L306.655 318.587L313.019 320.973C314.098 319.48 315.453 315.914 315.453 315.914L319.603 316.514L323.567 310.201L331.529 304.213C332.752 270.117 321.411 188.376 319.065 189.549C319.065 189.549 321.768 174.721 321.293 167.273C320.709 158.124 315.565 134.656 315.565 134.656C310.205 115.037 270.263 106.805 262.231 110.885C254.26 101.899 237.023 111.691 230.919 128.292C222.993 143.008 213.884 156.739 203.242 169.192C205.548 177.385 208.868 188.586 209.748 196.209L222.819 195.974C233.082 200.471 242.414 209.908 250.09 220.617L258.928 214.892C258.928 214.892 248.608 187.554 249.072 178.074C249.46 170.135 261.602 157.788 261.602 157.788C276.948 159.816 287.868 152.362 295.611 138.098C307.224 142.951 318.026 148.631 316.334 167.024C312.954 174.447 311.992 182.42 313.71 191.002C310.059 196.596 301.2 210.303 296.039 216.019C293.267 225.124 289.637 229.94 273.535 224.415C266.441 229.916 260.211 236.185 254.785 243.168Z" fill="#744948"/>
<path fill-rule="evenodd" clip-rule="evenodd" d="M254.924 164.262C261.628 164.222 268.263 165.077 274.813 167.047L278.158 171.052L280.538 164.707L296.78 167.97C297.799 171.366 297.344 174.853 296.239 178.939L299.995 173.894L302.692 174.387L302.964 180.808L305.226 181.079C304.568 174.968 305.623 171.55 309.024 171.817L321.95 174.863L321.199 180.416L324.201 177.996L324.27 173.34L307.192 170.102C306.331 172.288 304.268 171.577 302.48 171.134C299.246 170.7 298.595 169.282 298.614 167.61L277.864 162.796C269.277 162.219 263.622 160.596 256.118 159.091C252.415 160.063 253.239 162.5 254.924 164.262Z" fill="#17142A"/>
<path fill-rule="evenodd" clip-rule="evenodd" d="M280.596 164.668C276.527 171.164 276.877 179.274 281.504 183.601L291.106 184.416C295.69 182.059 298.668 177.084 296.904 167.825L280.596 164.668Z" fill="#888888"/>
<path fill-rule="evenodd" clip-rule="evenodd" d="M306.889 172.329C303.801 174.149 305.041 181.234 306.529 187.994L316.959 189.443C319.297 185.976 320.284 182.748 321.787 174.848C315.629 173.069 308.372 170.435 306.889 172.329Z" fill="#888888"/>
<path fill-rule="evenodd" clip-rule="evenodd" d="M290.541 224.393C293.195 222.315 294.413 219.405 294.251 215.696C294.798 216.334 308.732 198.367 311.064 193.202C311.67 191.86 311.793 188.846 311.793 188.846L313.3 188.975C313.3 188.975 314.05 190.387 313.731 190.999C311.233 195.802 296.013 216.49 295.546 216.23C294.689 220.817 292.88 223.215 290.541 224.393Z" fill="#E8D5C3"/>
<path fill-rule="evenodd" clip-rule="evenodd" d="M307.265 168.21C309.833 167.41 311.584 167.292 314.023 169.097C311.578 165.634 309.933 165.283 307.636 166.511L307.265 168.21Z" fill="#411D13"/>
<path fill-rule="evenodd" clip-rule="evenodd" d="M316.524 166.593C312.333 166.089 308.249 163.203 306.83 157.554C304.713 150.282 308.772 149.057 312.41 149.326C316.562 153.339 316.134 160.005 316.524 166.593Z" fill="#F6D4BC"/>
<path fill-rule="evenodd" clip-rule="evenodd" d="M296.687 163.17C291.368 159.832 286.154 158.792 281.033 159.807C285.889 160.961 290.688 162.248 294.947 164.794L296.687 163.17Z" fill="#6A3629"/>
<path fill-rule="evenodd" clip-rule="evenodd" d="M277.121 169.76C276.619 174.538 276.645 179.213 279.93 183.269L281.467 183.576C278.36 180.018 277.423 175.513 278.25 170.939L277.121 169.76Z" fill="#7D7D7D"/>
<path fill-rule="evenodd" clip-rule="evenodd" d="M302.979 180.797L304.87 187.679L306.577 188.03L305.267 180.956L302.979 180.797Z" fill="#7D7D7D"/>
<path fill-rule="evenodd" clip-rule="evenodd" d="M319.169 184.29C316.756 183.525 315.529 184.399 314.268 188.362L316.834 188.841L319.169 184.29Z" fill="#AAAB9E"/>
<path fill-rule="evenodd" clip-rule="evenodd" d="M257.958 167.461C264.125 167.962 269.845 169.432 273.728 174.881C273.728 174.881 275.845 169.688 274.076 168.504C271.622 166.861 261.688 165.199 259.002 165.025C258.121 164.968 257.958 167.461 257.958 167.461Z" fill="#CC936B"/>
<path fill-rule="evenodd" clip-rule="evenodd" d="M293.092 190.187C294.931 189.818 295.98 190.089 295.975 191.331C294.506 192.097 293.135 191.659 293.092 190.187Z" fill="#601604"/>
<path fill-rule="evenodd" clip-rule="evenodd" d="M289.295 190.77C287.568 188.096 286.037 187.906 283.973 186.408L289.022 186.297C288.149 187.908 288.625 189.351 289.295 190.77Z" fill="#E0A174"/>
<path fill-rule="evenodd" clip-rule="evenodd" d="M305.695 192.435C304.53 194.195 304.462 195.069 305.872 196.733C308.455 196.112 310.103 192.371 308.816 190.734C307.139 190.486 306.673 190.957 305.695 192.435Z" fill="#DEAA84"/>
<path fill-rule="evenodd" clip-rule="evenodd" d="M304.453 191.436C305.553 189.512 304.6 187.071 303.541 183.76L301.643 177.689L300.813 175.589C301.362 177.919 303.005 185.406 303.005 185.406C303.005 185.406 304.692 191.341 302.796 190.962L304.453 191.436Z" fill="#FBDDB8"/>
<path fill-rule="evenodd" clip-rule="evenodd" d="M252.318 193.084L259.269 215.05L250.097 220.548L263.229 223.857L271.804 223.486C256.928 214.578 247.993 173.188 256.808 163.991L253.986 166.552C248.559 173.215 248.049 183.849 252.318 193.084Z" fill="#C59471"/>
<path fill-rule="evenodd" clip-rule="evenodd" d="M280.087 246.82C280.087 246.82 272.875 278.307 291.169 292.907C295.882 297.935 294.796 311.728 283.429 315.422C300.267 312.982 298.573 296.935 295.742 292.555C292.285 287.204 279.007 276.544 284.485 248.489L286.596 243.036L280.087 246.82Z" fill="#3C293B"/>
<path fill-rule="evenodd" clip-rule="evenodd" d="M292.592 241.45C292.592 241.45 290.943 271.958 308.808 272.233C293.966 274.707 287.644 265.362 292.592 241.45Z" fill="#2D1F34"/>
<path fill-rule="evenodd" clip-rule="evenodd" d="M304.52 283.337C304.52 283.337 314.634 294.771 311.116 309.503C321.67 297.409 311.776 289.714 304.52 283.337Z" fill="#874930"/>
<path fill-rule="evenodd" clip-rule="evenodd" d="M296.879 226.883L299.902 249.146C299.902 249.146 311.446 263.713 312.545 274.982C316.943 257.117 306.499 248.871 306.499 248.871L303.476 225.234L296.879 226.883Z" fill="#4D2C3C"/>
<path fill-rule="evenodd" clip-rule="evenodd" d="M318.043 194.176L326.838 273.607C326.838 273.607 310.897 224.135 310.897 213.965C310.897 203.796 318.043 194.176 318.043 194.176Z" fill="#402731"/>
<path fill-rule="evenodd" clip-rule="evenodd" d="M256.463 144.607C256.463 144.607 231.383 174.497 248.217 206.448C227.947 186.522 243.408 147.356 256.463 144.607Z" fill="#2E2031"/>
<path fill-rule="evenodd" clip-rule="evenodd" d="M244.438 150.448C244.438 150.448 225.199 169 228.291 196.829L236.193 200.264C236.193 200.264 229.665 170.031 244.438 150.448Z" fill="#271B2F"/>
<path fill-rule="evenodd" clip-rule="evenodd" d="M223.825 142.546L234.819 141.172L246.5 130.521L234.475 129.49L223.825 142.546Z" fill="#332C3D"/>
<path fill-rule="evenodd" clip-rule="evenodd" d="M289.118 136.018C280.318 127.598 268.263 119.858 253.963 117.855C262.955 124.253 274.871 131.122 289.118 136.018Z" fill="#9C6E5E"/>
<path fill-rule="evenodd" clip-rule="evenodd" d="M291.205 134.842L269.745 120.418L253.737 115.493L269.217 114.085L264.468 116.548L272.031 119.011L281.354 117.78L276.253 120.594L285.576 119.538L280.123 123.76L297.009 123.232L282.234 126.926L291.205 132.203L306.508 130.268L314.248 137.481L316.183 145.396L312.137 141.174L306.156 135.37L291.205 134.842Z" fill="#2B1A32"/>
<path fill-rule="evenodd" clip-rule="evenodd" d="M243.942 265.719C243.942 265.719 236.026 258.683 215.973 260.794C227.055 253.054 243.766 263.257 243.766 263.257L243.942 265.719Z" fill="#BDA594"/>
<path fill-rule="evenodd" clip-rule="evenodd" d="M244.953 248.008L230.065 234.495L242.204 249.153L244.953 248.008Z" fill="#BDA594"/>
<path fill-rule="evenodd" clip-rule="evenodd" d="M180.304 285.915L179.976 284.387C168.983 284.391 158.199 284.157 148.813 282.353C150.516 284.37 151.344 286.606 150.645 289.224C158.541 287.067 169.003 286.269 180.304 285.915Z" fill="#8C6E5A"/>
<path fill-rule="evenodd" clip-rule="evenodd" d="M157.975 306.86C166.734 304.733 174.882 301.506 182.641 297.578L183.101 298.632L161.868 311.441C162.591 309.276 161.055 307.824 157.975 306.86Z" fill="#AF8F81"/>
<path fill-rule="evenodd" clip-rule="evenodd" d="M163.701 318.312C171.275 314.62 178.035 310.113 184.208 305.02L184.459 307.233L170.114 321.518C170.021 319.223 167.797 318.206 163.701 318.312Z" fill="#957B69"/>
<path fill-rule="evenodd" clip-rule="evenodd" d="M195.995 343.048L188.113 282.375L181.326 280.534L180.191 284.414L190.956 339.384L195.995 343.048Z" fill="#7F6D56"/>
<path fill-rule="evenodd" clip-rule="evenodd" d="M288.082 337.55C285.361 333.035 281.777 329.932 277.452 328.04C276.271 326.115 276.098 324.268 276.812 322.488C280.264 324.808 283.934 327.177 287.386 330.813C287.923 333.007 288.569 335.504 288.082 337.55Z" fill="#FFDFBF"/>
<path fill-rule="evenodd" clip-rule="evenodd" d="M277.132 336.582C275.172 334.257 275.541 332.135 277.773 330.175C274.611 330.644 271.739 330.142 269.124 328.788C270.485 331.566 271.125 334.105 270.299 336.154L277.132 336.582Z" fill="#CD7D61"/>
<path fill-rule="evenodd" clip-rule="evenodd" d="M274.356 341.707C271.648 342.548 268.673 342.185 265.601 341.386C264.714 342.988 264.684 344.589 266.348 346.191C268.708 345.877 271.205 346.315 273.929 348.006C272.931 345.336 273.167 343.283 274.356 341.707Z" fill="#BC674D"/>
<path fill-rule="evenodd" clip-rule="evenodd" d="M260.444 330.913C260.549 335.261 259.379 338.454 256.993 340.912L260.205 341.893C261.865 339.704 264.142 335.429 263.044 331.628L260.444 330.913Z" fill="#FFEDCF"/>
<path fill-rule="evenodd" clip-rule="evenodd" d="M255.302 309.721C255.738 312.21 256.709 315.848 258.31 318.337C255.662 317.732 253.769 316.925 251.594 316.028C250.731 311.456 253.132 308.426 255.302 309.721Z" fill="#DA7457"/>
<path fill-rule="evenodd" clip-rule="evenodd" d="M243.373 323.954C245.358 330.169 248.692 335.035 252.572 339.354C249.476 337.17 246.38 334.71 243.284 330.919L243.373 323.954Z" fill="#C68F68"/>
<path fill-rule="evenodd" clip-rule="evenodd" d="M243.259 336.327C244.876 341.162 246.755 345.594 250.74 347.513C248.325 346.989 245.95 345.799 243.64 343.5L243.259 336.327Z" fill="#C68F68"/>
<path fill-rule="evenodd" clip-rule="evenodd" d="M243.626 316.546C243.626 316.546 249.38 323.866 253.644 327.179C249.65 325.575 246.451 323.298 243.188 320.859L243.626 316.546Z" fill="#C68F68"/>
<path fill-rule="evenodd" clip-rule="evenodd" d="M188.007 282.009C179.435 280.524 170.936 278.608 162.565 275.922C168.671 276.445 175.017 277.256 182.125 278.982C174.808 274.902 169.633 269.14 165.121 262.857L182.272 276.782L170.398 256.407C175.257 261.773 179.786 267.523 183.444 274.291C181.05 265.479 179.282 256.534 179.891 247.322L188.007 282.009Z" fill="#7D6265"/>
<path fill-rule="evenodd" clip-rule="evenodd" d="M255.127 283.067C254.835 292.929 253.599 301.636 251.628 309.446L253.028 309.515C255.038 302.104 256.288 293.837 256.806 284.746L255.127 283.067Z" fill="#7C5D48"/>
<path fill-rule="evenodd" clip-rule="evenodd" d="M129.53 396.468L149.537 398.637C149.537 398.637 159.54 398.637 159.54 408.641C164.843 415.029 164.12 415.752 164.12 415.752L164.241 421.899V425.153C164.241 425.153 153.088 409.726 141.518 414.426C136.094 408.4 130.791 402.856 130.791 402.856L129.53 396.468Z" fill="#C97556"/>
<path fill-rule="evenodd" clip-rule="evenodd" d="M152.509 402.091C152.365 404.58 157.133 409.982 157.923 409.666C158.447 408.563 158.55 407.248 158.487 405.851C156.024 401.575 154.325 401.977 152.509 402.091Z" fill="#E39D80"/>
<path fill-rule="evenodd" clip-rule="evenodd" d="M159.479 408.702C159.21 412.107 161.528 416.008 164.052 418.385L164.176 415.176C163.103 412.243 161.195 410.478 159.479 408.702Z" fill="#E39D80"/>
<path fill-rule="evenodd" clip-rule="evenodd" d="M129.81 396.429C130.876 398.173 131.439 399.225 133.391 400.231C135.736 399.797 138.342 399.476 139.658 397.573L129.81 396.429Z" fill="#A46453"/>
<path d="M390.321 423.68C414.5 423.68 434.1 415.256 434.1 404.864C434.1 394.472 414.5 386.048 390.321 386.048C366.142 386.048 346.541 394.472 346.541 404.864C346.541 415.256 366.142 423.68 390.321 423.68Z" fill="black" fill-opacity="0.2"/>
<path d="M390 415.817C413.768 415.817 433.036 408.011 433.036 398.382C433.036 388.754 413.768 380.948 390 380.948C366.232 380.948 346.965 388.754 346.965 398.382C346.965 408.011 366.232 415.817 390 415.817Z" fill="#E6E3E3"/>
<path d="M380.241 411.768C393.612 411.768 405.727 408.568 407.302 404.62C408.877 400.673 399.314 397.473 385.943 397.473C372.573 397.473 360.457 400.673 358.882 404.62C357.308 408.568 366.87 411.768 380.241 411.768Z" fill="black" fill-opacity="0.2"/>
<path fill-rule="evenodd" clip-rule="evenodd" d="M393.305 501.247L444.657 425.644L316.75 415.658L211.19 502.673L393.305 501.247Z" fill="url(#paint1_linear)"/>
<path fill-rule="evenodd" clip-rule="evenodd" d="M170.938 408.634L177.306 404.852C160.446 398.549 143.519 391.011 128.625 381.744C127.101 386.575 128.275 390.967 129.567 395.798C141.544 397.095 156.112 397.507 157.817 402.311C159.249 404.321 160.111 406.403 159.665 408.648L170.938 408.634Z" fill="#D8C4A9"/>
<rect width="360" height="640" fill="url(#paint2_linear)"/>
<circle cx="31" cy="618" r="49" fill="url(#paint3_linear)"/>
<circle cx="347" cy="465" r="84" fill="url(#paint4_linear)"/>
<defs>
<linearGradient id="paint0_linear" x1="-16" y1="48" x2="175.259" y2="48" gradientUnits="userSpaceOnUse">
<stop stop-color="#37BF97"/>
<stop offset="1" stop-color="#81F390"/>
</linearGradient>
<linearGradient id="paint1_linear" x1="408.037" y1="431.712" x2="246.435" y2="501.512" gradientUnits="userSpaceOnUse">
<stop stop-color="white"/>
<stop offset="1" stop-color="#A6A6A6"/>
</linearGradient>
<linearGradient id="paint2_linear" x1="192.5" y1="5.80395e-07" x2="180" y2="640" gradientUnits="userSpaceOnUse">
<stop stop-color="white" stop-opacity="0.2"/>
<stop offset="0.666667" stop-color="#C9FFD0"/>
<stop offset="1" stop-color="#9EFFAB"/>
</linearGradient>
<linearGradient id="paint3_linear" x1="-18" y1="618" x2="44.4779" y2="618" gradientUnits="userSpaceOnUse">
<stop stop-color="#37BF97"/>
<stop offset="1" stop-color="#81F390"/>
</linearGradient>
<linearGradient id="paint4_linear" x1="263" y1="465" x2="370.105" y2="465" gradientUnits="userSpaceOnUse">
<stop stop-color="#37BF97"/>
<stop offset="1" stop-color="#81F390"/>
</linearGradient>
</defs>
</svg>
