<svg width="360" height="640" viewBox="0 0 360 640" fill="none" xmlns="http://www.w3.org/2000/svg">
<circle cx="297" cy="67" r="150" fill="url(#paint0_linear)"/>
<path fill-rule="evenodd" clip-rule="evenodd" d="M339.576 470.31L351.534 451.476L366.308 434.642L375.913 411.104L360.516 422.8L357.409 432.331L347.804 440.273L337.775 445.725L339.576 470.31Z" fill="#889396"/>
<path fill-rule="evenodd" clip-rule="evenodd" d="M209.329 351.785L191.387 314.917C186.236 289.328 158.599 246.265 132.859 251.149C128.753 253.048 126.567 259.486 122.553 259.776C113.571 260.427 107.681 270.518 108.03 289.225C94.4544 310.355 90.8802 338.982 99.3753 376.658L124.928 496.878C128.735 510.803 125.627 518.784 147.238 524.989C175.95 533.233 206.315 543.3 238.357 548.861L242.868 544.472C258.098 541.908 273.064 537.546 287.163 527.273C292.868 525.336 296.269 521.9 297.831 517.267L307.523 510.226C313.982 501.612 333.937 482.347 344.073 475.689C346.393 474.165 338.862 470.11 338.862 470.11L337.703 445.406L325.633 458.802C311.188 446.554 302.599 431.458 304.632 410.545C286.742 422.628 270.96 432.378 249.765 440.117C246.437 441.299 245.345 447.338 243.903 449.283C240.96 453.252 238.564 452.16 232.867 451.399C226.43 450.538 219.812 453.302 215.454 456.755L208.037 462.328C206.389 457.464 206.859 452.96 208.037 448.578C210.806 446.074 211.544 442.879 211.486 439.412L208.037 434.828L210.107 427.425C210.605 422.96 208.986 418.494 206.658 414.028L209.762 396.753L208.037 384.767L209.417 376.305L209.329 351.785Z" fill="#D1DCE2"/>
<path fill-rule="evenodd" clip-rule="evenodd" d="M304.542 411.563C317.369 404.341 327.038 393.9 334.848 380.699C337.465 375.932 342.69 364.994 342.69 364.994C342.69 364.994 347.146 336.362 347.064 318.989C347.013 314.522 350.816 312.87 359.004 314.42L365.846 289.544C368.462 282.56 374.174 282.031 377.378 288.359L376.661 307.087L388.524 286.216C396.065 278.694 400.258 280.575 399.559 290.728C386.491 310.974 381.748 339.751 381.053 365.48C388.547 367.912 395.847 367.968 402.87 364.623L435.424 357.008C443.115 357.578 446.126 361.593 442.045 370.828C432.368 377.901 420.399 381.199 407.291 386.353L394.889 392.703C384.362 403.791 372.15 415.498 360.492 422.351C358.253 433.914 352.424 437.869 338.037 445.005L325.623 457.978L325.077 458.327C311.201 446.364 302.902 431.681 304.542 411.563ZM298.622 414.562L298.054 414.936L298.034 414.826C298.231 414.739 298.428 414.651 298.622 414.562Z" fill="#B28370"/>
<path fill-rule="evenodd" clip-rule="evenodd" d="M350.526 322.765C350.526 322.765 360.988 322.765 361.149 328.36C360.769 316.2 355.577 314.656 350.816 314.161C348.793 314.304 347.908 315.7 347.468 316.742C349.019 318.297 350.03 320.311 350.526 322.765Z" fill="#F6EBD9"/>
<path fill-rule="evenodd" clip-rule="evenodd" d="M282.184 334.027L283.105 331.921C283.105 331.921 287.202 310.958 287.298 300.333C287.409 288.224 283.768 259.268 283.768 259.268C277.934 237.513 276.476 216.651 275.381 195.865C267.902 189.146 263.775 178.999 261.476 166.984C261.962 133.633 293.051 152.237 291.634 175.351C291.316 180.526 292.814 183.889 297.628 188.329C304.909 179.667 309.533 169.374 312.106 157.823L309.105 139.737C329.679 137.098 339.886 125.059 340.498 104.322C352.861 103.598 361.375 102.699 365.075 97.3541C370.917 97.5728 376.56 100.433 382.026 105.658C388.321 118.841 392.855 133.487 394.328 150.676C387.944 155.903 385.981 160.75 391.461 169.405L400.741 186.885C403.253 190.882 403.261 194.564 399.894 196.827C395.884 197.932 392.93 199.961 391.03 202.914C390.353 204.695 389.84 206.609 390.677 209.628C391.562 213.737 388.879 216.13 384.638 217.773L383.506 223.938L380.574 222.549C381.569 225.364 381.466 228.781 379.916 230.584L382.177 231.661C387.481 234.39 386.584 240.277 382.423 242.898C381.365 245.484 381.397 248.44 382.147 251.641C384.409 263.101 378.652 268.254 365.245 267.391C365.086 267.546 364.929 267.702 364.768 267.861C364.265 267.779 363.757 267.708 363.246 267.648L342.337 269.789C322.477 271.924 314.366 300.39 306.187 344.801C303.068 345.737 300.557 348.225 299.248 353.782L311.318 383.815C306.738 388.892 302.353 391.436 296.007 390.495L277.555 357.004C282.479 350.826 284.071 343.188 282.184 334.027Z" fill="#CE9480"/>
<path fill-rule="evenodd" clip-rule="evenodd" d="M135.65 248.77C153.665 231.649 206.86 225.51 200.682 225.75C202.417 257.439 207.31 287.513 220.822 313.182C234.485 345.499 253.132 339.96 273.24 323.336L281.916 332.986L281.948 332.946C284.19 342.59 282.671 350.586 277.555 357.004L296.007 390.495C302.353 391.436 306.738 388.892 311.318 383.815L299.248 353.782C300.557 348.225 303.068 345.737 306.187 344.801C314.366 300.39 322.477 271.924 342.337 269.789L363.246 267.648C373.453 268.854 382.146 274.237 388.586 285.84L376.677 306.681L377.378 288.359C374.174 282.031 368.462 282.56 365.846 289.544L359.004 314.42C350.816 312.87 347.013 314.522 347.064 318.989C347.146 336.362 342.69 364.994 342.69 364.994C342.69 364.994 340.9 368.741 338.89 372.805L331.81 385.195C331.363 386.003 330.904 386.795 330.432 387.571C325.33 394.868 319.477 401.148 312.597 406.309C310.114 407.936 307.524 409.34 304.848 410.517L304.621 410.672L304.632 410.545C302.675 411.867 300.743 413.161 298.828 414.426L298.622 414.562C298.428 414.651 298.231 414.739 298.034 414.826L298.054 414.936L298.008 414.967C282.711 425.033 268.311 433.345 249.765 440.117C246.437 441.299 245.344 447.338 243.902 449.283C240.96 453.252 238.564 452.16 232.867 451.399C226.43 450.538 219.812 453.302 215.453 456.755L208.037 462.328C206.389 457.464 206.858 452.96 208.037 448.578C210.806 446.074 211.544 442.879 211.486 439.412L208.037 434.828L210.107 427.425C210.605 422.96 208.986 418.494 206.658 414.028L209.762 396.753L208.037 384.767L209.417 376.305L209.329 351.785L191.387 314.917C186.462 290.454 160.987 250.021 136.265 250.777L135.65 248.77Z" fill="#D1DEE7"/>
<path fill-rule="evenodd" clip-rule="evenodd" d="M96.4123 362.269L82.0783 395.092C82.1191 401 80.6668 404.727 77.4122 405.822L79.7825 429.042L99.8978 436.195C106.926 456.1 108.782 473.477 102.273 486.764C107.081 491.173 110.183 496.692 109.811 504.472C115.819 506.438 121.171 510.015 125.672 515.679L126.76 504.7L96.4123 362.269Z" fill="#DCE9F1"/>
<path fill-rule="evenodd" clip-rule="evenodd" d="M406.852 386.6L411.4 401.555C417.272 407.785 418.305 414.758 416.642 422.144L421.866 425.472L428.686 433.577C439.411 425.379 443.325 417.204 452.858 408.943C450.02 429.93 455.955 450.132 479.53 455.788C490.77 449.907 493.337 440.866 494.61 432.826C497.362 441.673 481.208 467.616 462.163 503.372C447.39 505.609 434.94 511.299 425.471 521.422C415.682 515.718 405.264 511.944 394.572 509.013C386.317 509.762 379.291 509.581 376.248 506.384C368.837 506.546 368.549 502.592 369.819 497.738L368.06 495.373C357.026 495.216 358.746 488.578 360.412 478.482L354.423 475.253L356.011 467.641L355.39 461.208C352.233 457.271 352.276 453.333 353.342 449.397L366.432 434.836L376.639 410.298L393.468 393.658L406.852 386.6Z" fill="#DDE5E7"/>
<path fill-rule="evenodd" clip-rule="evenodd" d="M286.126 596.634C300.474 598.948 314.588 602.341 327.971 609.095C336.641 607.73 345.369 607.021 354.279 608.373C358.92 611.329 364.036 613.801 369.641 615.77L293.188 614.146C293.317 606.789 290.705 601.108 286.126 596.634Z" fill="#F5D2B2"/>
<path fill-rule="evenodd" clip-rule="evenodd" d="M-11.5501 116.404C15.282 125.187 35.2897 150.637 53.3815 200.497C56.9467 245.049 59.745 291.172 59.8578 342.784L54.7495 368.762L58.198 414.946L72.337 435.041L85.7867 477.348C93.5032 490.268 102.999 499.753 113.266 507.752C116.311 510.301 119.508 512.606 122.835 514.704C123.965 515.478 125.099 516.239 126.238 516.993C126.842 517.25 127.445 517.508 128.041 517.766C130.226 518.965 132.458 520.087 134.731 521.141L141.236 523.802C176.427 540.798 206.195 562.42 235.278 584.624L235.489 585.572C253.623 587.56 270.966 591.173 287.217 597.012C291.148 602.016 293.534 607.644 292.867 614.523L-11.7757 614.656L-11.8658 116.302L-11.5501 116.404ZM126.125 516.688C126.556 516.937 126.989 517.182 127.425 517.425L126.238 516.993L126.125 516.688Z" fill="#D5DEDD"/>
<path fill-rule="evenodd" clip-rule="evenodd" d="M281.891 532.712L315.438 523.686C341.403 515.417 367.528 509.903 393.963 509.818C412.846 513.568 419.277 517.946 429.764 528.199C436.146 538.181 438.399 546.629 438.151 554.146C430.594 550.097 422.776 546.848 414.315 545.572C398.856 548.347 383.565 552.661 368.408 558.208L332.212 562.044C328.009 557.352 324.629 557.424 321.839 560.916L314.776 560.464C309.678 551.561 303.631 552.021 297.119 557.08L257.172 552.567L253.641 549.634C261.973 542.053 271.205 536.081 281.891 532.712Z" fill="#354866"/>
<path d="M281.891 532.712L315.438 523.686C341.403 515.417 367.528 509.903 393.963 509.818C412.846 513.568 419.277 517.946 429.764 528.199C436.146 538.181 438.399 546.629 438.151 554.146C430.594 550.097 422.776 546.848 414.315 545.572C398.856 548.347 383.565 552.661 368.408 558.208L332.212 562.044C328.009 557.352 324.629 557.424 321.839 560.916L314.776 560.464C309.678 551.561 303.631 552.021 297.119 557.08L257.172 552.567L253.641 549.634C261.973 542.053 271.205 536.081 281.891 532.712" stroke="black" stroke-width="0.573101" stroke-miterlimit="1.5" stroke-linecap="round" stroke-linejoin="round"/>
<path fill-rule="evenodd" clip-rule="evenodd" d="M491.136 599.644C491.798 601.168 487.152 607.146 482.057 604.455L464.43 598.079L475.639 608.89C476.328 612.92 475.656 615.558 472.294 615.452C460.53 614.331 451.094 611.17 441.919 607.783L452.406 615.359L419.139 615.637L370.135 615.717L368.681 615.425C363.451 613.516 358.653 611.157 354.28 608.373C345.369 607.021 336.641 607.73 327.971 609.095C314.603 602.348 300.508 598.954 286.178 596.648C270.391 591.08 253.587 587.594 236.04 585.632L236.069 585.327L235.983 585.168L236.16 585.3C239.193 573.012 244.997 562.137 253.897 552.845L255.742 552.701L257.067 552.48L257.172 552.567L297.12 557.08C303.631 552.022 309.678 551.561 314.776 560.464L321.839 560.916C324.629 557.424 328.01 557.352 332.212 562.044L368.408 558.208C383.565 552.661 398.856 548.347 414.315 545.572C422.714 546.839 430.478 550.05 437.983 554.057L438.425 555.414L439.279 555.151L455.28 561.649C459.603 555.788 464.129 550.753 468.89 546.685C469.929 547.528 470.709 549.076 470.431 553.51C466.612 558.831 464.762 563.865 464.011 568.737L476.338 579.236C476.472 578.964 476.607 578.686 476.74 578.401L476.738 578.639L476.596 579.004L476.644 579.063L476.153 580.455L477.305 579.892C482.194 586.069 486.792 592.671 491.136 599.644Z" fill="#F5D2B2"/>
<path fill-rule="evenodd" clip-rule="evenodd" d="M125.689 515.509L126.238 516.993C167.174 531.93 209.325 544.632 253.941 552.799C245.016 562.1 239.198 572.992 236.159 585.3C202.758 559.771 168.514 534.96 126.238 516.993C111.103 506.966 96.6736 495.577 85.7867 477.348L72.3369 435.041L58.198 414.946L54.7495 368.762L59.8578 342.784C59.7449 291.172 56.9467 245.049 53.3815 200.497C35.219 150.442 15.1251 124.987 -11.8658 116.302L-11.7038 91.1794C-5.44277 89.6602 0.57056 90.0446 6.07818 94.3025L17.3936 85.6708C40.678 94.0685 75.1475 185.816 87.4419 247.072H91.7521C97.4788 269.662 95.6991 287.695 82.5924 298.853C78.1409 327.13 74.8901 355.408 73.9708 383.685L80.9754 401.864C80.9754 401.864 81.0253 401.878 81.1213 401.911C80.364 403.914 79.1425 405.24 77.4121 405.822L79.7825 429.042L99.8978 436.195C106.926 456.1 108.782 473.477 102.273 486.764C107.081 491.173 110.183 496.692 109.811 504.472C115.819 506.438 121.171 510.015 125.672 515.679L125.689 515.509Z" fill="#979694"/>
<path fill-rule="evenodd" clip-rule="evenodd" d="M283.211 331.367L281.916 332.986L273.24 323.336C253.132 339.96 234.485 345.499 220.822 313.182C207.311 287.513 202.417 257.439 200.683 225.75C211.322 225.337 218.22 220.944 219.443 210.52C229.003 187.067 238.723 168.478 247.693 152.871C261.897 153.797 265.074 143.362 258.066 126.189L256.687 113.216C263.858 109.58 270.574 105.633 274.343 99.6778C274.008 84.8462 274.46 70.1995 279.034 56.5258C300.886 47.44 319.186 55.9292 342.211 66.9617C372.038 74.8259 390.959 84.998 405.368 110.136C407.331 122.402 404.416 136.37 394.326 142.473L393.265 141.781C391.195 128.348 387.207 116.507 382.026 105.658C376.56 100.433 370.917 97.5728 365.076 97.354C361.376 102.699 352.861 103.598 340.498 104.321C339.886 125.059 329.68 137.098 309.105 139.737L312.106 157.823C309.533 169.374 304.909 179.667 297.628 188.329C292.815 183.889 291.316 180.526 291.634 175.351C293.051 152.236 261.962 133.633 261.476 166.984C263.775 178.999 267.902 189.146 275.381 195.865C276.476 216.651 277.934 237.513 283.768 259.268C283.768 259.268 287.409 288.224 287.299 300.333C287.211 309.937 283.856 327.988 283.211 331.367Z" fill="#2E0F0F"/>
<path fill-rule="evenodd" clip-rule="evenodd" d="M201.435 225.713L200.151 225.186L157.554 213.001L125.331 228.119L89.1172 244.739L87.0614 245.203C77.0433 196.554 53.517 129.754 32.708 100.18L35.232 98.677C56.9247 105.851 79.905 112.306 108.082 115.864C106.513 109.8 108.077 104.698 112.393 100.44C130.405 92.5732 146.78 83.272 160.672 71.7949C160.316 62.2272 162.902 60.0294 168.431 55.049C189.352 58.8575 209.582 85.1087 213.693 110.576C215.824 105.481 218.691 103.396 223.176 107.931C224.159 79.901 234.007 55.3082 252.058 33.8962C249.247 28.21 250.573 24.1092 252.489 20.2351C261.751 13.8018 269.995 16.0329 277.491 24.6421L279.605 53.9315L279.564 56.3084C279.387 56.3799 279.21 56.4522 279.033 56.5258C274.459 70.1995 274.007 84.8462 274.343 99.6778C270.574 105.633 263.858 109.58 256.686 113.216L258.066 126.189C265.074 143.362 261.897 153.797 247.693 152.871C238.723 168.478 229.002 187.067 219.443 210.52C218.248 220.697 211.648 225.125 201.435 225.713Z" fill="#B68469" stroke="black" stroke-width="0.573101" stroke-miterlimit="1.5" stroke-linecap="round" stroke-linejoin="round"/>
<path fill-rule="evenodd" clip-rule="evenodd" d="M33.0789 99.9596L32.4306 98.9574C27.2056 91.9409 22.181 87.5843 17.2575 84.5732L14.2226 75.5477L21.6714 52.421L16.7058 44.5237L16.4296 36.9087L10.3605 23.0885L12.5674 5.31993L17.5331 -3.70486L21.9469 -18.0891L287.345 -19.4989C290.042 -11.7394 293.654 -4.30536 301.415 1.65394C294.249 6.36451 289.734 12.9184 286.432 22.8943L277.741 28.1033L277.491 24.6421C269.995 16.0329 261.751 13.8019 252.489 20.2351C250.573 24.1092 249.248 28.21 252.058 33.8962C234.007 55.3082 224.159 79.901 223.177 107.931C218.691 103.396 215.824 105.481 213.693 110.576C209.582 85.1087 189.352 58.8576 168.431 55.0491C162.902 60.0294 160.316 62.2273 160.672 71.7949C146.78 83.2721 130.405 92.5732 112.393 100.44C108.077 104.698 106.513 109.8 108.082 115.864C79.9051 112.306 56.9247 105.851 35.232 98.677L33.0789 99.9596Z" fill="#41301E"/>
<path fill-rule="evenodd" clip-rule="evenodd" d="M70.8354 473.872C42.3657 484.313 15.1446 498.583 -10.7046 517.059C13.0984 490.925 40.4829 477.241 70.8354 473.872Z" fill="#6D616B"/>
<path fill-rule="evenodd" clip-rule="evenodd" d="M98.3427 519.57C98.3427 546.582 49.0379 560.852 21.715 579.83C45.5181 553.696 69.9552 529.968 98.3427 519.57Z" fill="#9A939B"/>
<path fill-rule="evenodd" clip-rule="evenodd" d="M122.549 534.032C122.549 561.044 99.652 588.03 72.3285 607.008C101.513 584.909 101.36 549.828 122.549 534.032Z" fill="#9796A4"/>
<path fill-rule="evenodd" clip-rule="evenodd" d="M10.6919 409.696C10.6919 409.696 37.1512 428.042 46.4516 432.595C52.6154 435.613 66.493 437.014 66.493 437.014C66.493 437.014 53.7869 417.463 44.4872 412.91C35.1868 408.357 10.6919 409.696 10.6919 409.696Z" fill="#898584"/>
<path fill-rule="evenodd" clip-rule="evenodd" d="M-10.2309 428.813L44.0539 432.194C44.0539 432.194 19.682 448.137 10.6348 447.573C1.58689 447.01 -10.2309 428.813 -10.2309 428.813Z" fill="#9E9DA0"/>
<path fill-rule="evenodd" clip-rule="evenodd" d="M-9.34961 169.342C13.2274 192.674 30.5264 227.683 36.3329 279.132C42.4785 277.676 48.6247 283.191 54.7703 291.381C52.9394 279.213 54.1874 228.674 44.6835 208.828C35.1399 188.902 -4.94027 158.198 -4.94027 158.198L-9.34961 169.342Z" fill="#A9A9A9"/>
<path fill-rule="evenodd" clip-rule="evenodd" d="M234.381 586.944C236.433 594.778 236.192 603.136 234.381 611.846L237 611.886C239.02 604.21 239.274 596.528 237 588.853L234.381 586.944Z" fill="#D1D4DD"/>
<path fill-rule="evenodd" clip-rule="evenodd" d="M233.527 583.577C205.253 561.84 176.072 541.439 143.932 525.409C128.012 519.232 117.667 513.115 107.778 502.912C144.406 542.537 194.059 563.468 233.527 583.577Z" fill="#E0E3E8"/>
<path fill-rule="evenodd" clip-rule="evenodd" d="M239.078 586.036C241.851 590.742 243.347 595.521 242.163 600.452C259.226 600.359 276.041 603.19 292.663 608.267C291.677 603.707 289.574 600.147 286.829 597.158C270.398 591.087 254.629 588.058 239.078 586.036Z" fill="#E2E7E8"/>
<path fill-rule="evenodd" clip-rule="evenodd" d="M-7.17508 291.311C14.9021 289.937 32.5732 307.146 46.268 341.126C38.2915 335.002 31.1896 337.469 24.2621 343.134C16.2824 329.272 5.78194 323.786 -6.38929 323.851C-3.21893 313.03 -4.05787 302.132 -7.17508 291.311Z" fill="#C8D2D4"/>
<path fill-rule="evenodd" clip-rule="evenodd" d="M17.865 85.8093C23.8654 102.235 22.5972 116.283 17.865 129.197C8.78764 120.05 -1.77248 115.661 -11.7082 114.413L-12 91.5942C-5.85376 89.5276 0.293124 90.3793 6.43936 94.0168C10.4707 90.3707 14.2635 87.7003 17.865 85.8093Z" fill="#E0E7EF"/>
<path fill-rule="evenodd" clip-rule="evenodd" d="M32.513 99.3345C22.7483 84.0707 20.5433 68.0148 24.1708 51.3466C19.3932 42.0891 16.3992 29.8033 15.0662 20.5452C15.1615 12.0858 18.1912 4.71739 22.0676 -2.33621L26.829 -17.7452L22.1772 -17.8896L17.3795 -3.42719L12.1616 5.80108L10.4987 23.4046L16.772 37.1525L16.7895 44.637L21.5703 52.59L14.2084 75.5781L16.9101 84.5227C22.8352 88.3491 27.961 93.4017 32.513 99.3345Z" fill="#6E5944"/>
<path fill-rule="evenodd" clip-rule="evenodd" d="M181.33 74.8915C181.33 74.8915 144.36 105.488 166.994 136.341C178.176 147.723 189.977 135.277 188.12 123.743C188.12 123.743 184.297 112.498 187.617 107.802C195.429 96.7529 205.445 68.5047 181.33 74.8915Z" fill="#BF7662"/>
<path fill-rule="evenodd" clip-rule="evenodd" d="M176.593 110.587C176.593 110.587 174.018 124.804 179.812 126.384C182.794 127.196 184.191 124.146 184.191 124.146L183.933 111.113C182.645 106.755 178.009 107.396 176.593 110.587Z" fill="#52291E"/>
<path fill-rule="evenodd" clip-rule="evenodd" d="M187.523 89.1128C187.523 89.1128 179.463 97.3922 181.059 101.766C181.88 104.017 183.955 102.72 183.955 102.72L190.271 93.6435C191.89 89.9253 189.675 87.7304 187.523 89.1128Z" fill="#52291E"/>
<path fill-rule="evenodd" clip-rule="evenodd" d="M252.33 33.4223C252.33 33.4223 260.697 42.6526 263.778 44.1896C265.936 45.266 270.82 42.6473 270.82 42.6473C270.82 42.6473 269.427 83.2462 269.563 93.2977C269.607 96.5931 271.635 102.955 271.635 102.955L274.532 99.4996C273.965 84.7991 275.046 70.0994 279.2 55.3997L277.429 24.4645C269.828 15.6657 261.532 14.6688 252.642 20.3504C250.659 24.1317 250.02 28.3246 252.33 33.4223Z" fill="#F5D8BA"/>
<path fill-rule="evenodd" clip-rule="evenodd" d="M249.252 118.806C247.656 127.06 246.277 135.76 246.838 148.425L252.068 144.928C248.797 136.22 248.755 127.513 249.252 118.806Z" fill="#D4AE8E"/>
<path fill-rule="evenodd" clip-rule="evenodd" d="M254.774 125.789C256.402 130.969 256.978 136.066 256.778 141.103C258.395 140.492 259.942 141.03 261.419 142.72C261.406 137.112 260.202 131.972 258.36 127.083L256.884 114.412C256.439 118.099 255.926 121.814 254.774 125.789Z" fill="#D9A18E"/>
<path fill-rule="evenodd" clip-rule="evenodd" d="M47.1686 125.515C64.3937 163.22 78.5041 202.835 87.6806 245.477L145.661 217.73C150.6 185 151.452 152.689 145.661 121.057C112.83 127.176 79.9991 128.172 47.1686 125.515Z" fill="#AE7C5F"/>
<path fill-rule="evenodd" clip-rule="evenodd" d="M252.935 20.2457C253.869 10.9703 251.148 2.29286 245.214 -5.85901C251.253 -10.0122 248.546 -14.7479 241.944 -19.7428L287.214 -20C289.75 -12.1703 293.482 -4.59437 301.298 2.11126C293.536 6.90402 288.605 14.0133 286.208 23.1945L277.967 27.512L277.761 24.5632C270.368 17.263 262.529 12.9203 252.935 20.2457Z" fill="#63482D"/>
<path fill-rule="evenodd" clip-rule="evenodd" d="M59.5595 402.692C63.6823 401.06 67.4413 402.402 71.0273 405.16C67.4413 400.467 63.6823 398.607 59.5595 402.692Z" fill="#464145"/>
<path fill-rule="evenodd" clip-rule="evenodd" d="M58.0093 387.904C61.5547 385.098 65.9603 385.133 70.7761 386.521C65.158 383.36 60.5372 382.85 58.0093 387.904Z" fill="#5C555D"/>
<path fill-rule="evenodd" clip-rule="evenodd" d="M60.086 370.42C64.9272 369.105 68.5813 370.69 71.6698 373.658C69.1011 368.786 65.5865 366.689 60.086 370.42Z" fill="#635D67"/>
<path fill-rule="evenodd" clip-rule="evenodd" d="M83.6965 407.249C89.8557 419.016 98.0759 427.622 107.589 434.246C95.6071 429.354 87.2954 420.711 83.6965 407.249Z" fill="#C7D4DA"/>
<path fill-rule="evenodd" clip-rule="evenodd" d="M87.7835 395.679C89.7959 406.449 95.0468 415.012 106.331 419.462C98.5394 413.545 92.4853 405.457 87.7835 395.679Z" fill="#CDD8DE"/>
<path fill-rule="evenodd" clip-rule="evenodd" d="M92.1846 383.788C93.5039 389.009 96.8338 392.362 101.93 394.072C94.9193 394.491 92.6682 390.043 92.1846 383.788Z" fill="#E2EFF7"/>
<path fill-rule="evenodd" clip-rule="evenodd" d="M194.021 320.178L128.947 264.578L115.743 264.899L118.887 271.969C118.887 271.969 127.077 270.752 130.204 272.934C142.138 281.26 171.542 302.307 190.488 321.926L164.533 315.55C164.533 315.55 192.835 339.259 196.725 343.647C198.744 345.925 186.263 344.017 186.263 344.017C186.263 344.017 201.923 359.828 198.133 361.953C194.344 364.078 172.582 355.714 165.137 354.631C161.277 354.069 153.467 355.453 153.467 355.453L189.079 370.469C187.962 372.982 144.861 365 135.36 362.036C132.031 360.996 125.903 366.561 125.903 366.561L204.572 378.901L209.439 376.387L209.542 352.06L194.021 320.178Z" fill="#96A7B1"/>
<path fill-rule="evenodd" clip-rule="evenodd" d="M127.73 509.12C132.524 506.184 135.665 501.406 138.519 496.307C134.87 502.953 132.938 510.062 132.628 517.607C130.042 516.094 128.559 512.61 127.73 509.12Z" fill="#435560"/>
<path fill-rule="evenodd" clip-rule="evenodd" d="M145.347 489.187C154.437 480.118 165.173 476.098 175.994 472.337C165.713 477.279 156.05 482.791 149.21 490.899C149.647 487.905 147.669 488.304 145.347 489.187Z" fill="#5E6F7F"/>
<path fill-rule="evenodd" clip-rule="evenodd" d="M139.094 479.075C162.786 458.114 184.347 436.5 205.288 414.695C203.886 417.311 203.474 419.234 207.3 418.192C185.041 438.854 163.718 459.572 146.137 480.515C146.603 475.72 143.047 477.093 139.094 479.075Z" fill="#718492"/>
<path fill-rule="evenodd" clip-rule="evenodd" d="M139.222 469.586C157.672 453.262 174.463 436.43 190.772 419.448C189.68 421.486 189.359 422.983 192.339 422.172C175.004 438.263 158.398 454.398 144.706 470.707C145.07 466.973 142.3 468.042 139.222 469.586Z" fill="#D4E6F4"/>
<path fill-rule="evenodd" clip-rule="evenodd" d="M192.555 474.049C190.936 487.273 195.33 505.419 203.433 519.954C205.115 515.708 207.04 516.661 209.066 519.79C200.136 504.472 200.727 489.391 207.295 473.88C204.909 477.827 202.618 479.337 203.562 474.966C200.972 478.814 198.755 489.972 198.764 497.246C195.401 491.17 194.007 477.118 195.868 477.006C194.022 479.393 192.176 477.083 192.555 474.049Z" fill="#8D9FAE"/>
<path fill-rule="evenodd" clip-rule="evenodd" d="M171.937 483.825C170.317 497.049 176.154 510.561 184.256 525.096C179.431 511.716 183.959 516.323 189.89 524.932C179.493 509.886 178.351 492.396 178.339 481.912C177.813 494.981 173.031 496.287 171.937 483.825Z" fill="#8FA0AA"/>
<path fill-rule="evenodd" clip-rule="evenodd" d="M220.693 472.487C220.693 472.487 241.567 510.886 231.508 533.937C229.902 509.043 226.009 487.351 220.693 472.487Z" fill="#708189"/>
<path fill-rule="evenodd" clip-rule="evenodd" d="M304.602 410.798L302.178 433.318L263.196 452.602L224.465 467.256L218.681 465.457L215.914 468.028L202.334 470.856H193.028L208.37 462.114C219.935 452.357 224.957 450.3 239.131 452.128C243.085 451.98 244.793 448.031 247.372 441.702C268.059 433.701 287.049 422.508 304.602 410.798Z" fill="#E6EFF4"/>
<path d="M296.462 419.528C299.496 444.332 309.319 464.866 333.281 476.504" stroke="#708189" stroke-width="2.78527" stroke-miterlimit="1.5" stroke-linecap="round" stroke-linejoin="round"/>
<path fill-rule="evenodd" clip-rule="evenodd" d="M330.426 453.591C332.278 457.927 332.998 463.611 332.734 467.947C328.754 464.46 326.253 462.222 324.559 459.994L330.426 453.591Z" fill="#515153"/>
<path fill-rule="evenodd" clip-rule="evenodd" d="M337.662 446.042L339.311 470.222L332.635 467.779C333.203 462.719 332.287 458.291 330.657 453.456L337.662 446.042Z" fill="#69727B"/>
<path d="M269.903 438.451C271.269 463.258 280.475 484.058 300.084 499.54" stroke="#708189" stroke-width="2.78527" stroke-miterlimit="1.5" stroke-linecap="round" stroke-linejoin="round"/>
<path d="M263.868 450.587C265.668 474.645 277.827 492.554 296.26 506.74" stroke="#708189" stroke-width="2.78527" stroke-miterlimit="1.5" stroke-linecap="round" stroke-linejoin="round"/>
<path fill-rule="evenodd" clip-rule="evenodd" d="M173.204 231.718C173.204 231.718 193.01 246.752 197.914 254.001C201.949 259.965 206.088 302.21 207.66 306.066C209.232 309.923 231.028 340.026 239.097 353.632C247.78 378.683 259.838 391.794 275.878 391.555L290.081 419.894L307.802 408.178C307.802 408.178 297.994 397.318 285.011 390.275C277.229 380.99 271.619 367.502 271.619 367.502C271.796 363.385 271.984 359.271 277.027 356.575C282.797 350.924 283.449 342.657 281.663 333.144L273.293 323.402C251.23 343.042 234.055 341.532 222.294 316.59C207.322 287.692 202.607 257.095 200.363 226.087L173.204 231.718Z" fill="#7E8790"/>
<path fill-rule="evenodd" clip-rule="evenodd" d="M257.557 334.078L271.721 367.443C272.069 361.801 273.783 358.137 277.702 355.865C283.4 350.04 283.995 342.236 281.726 333.321L273.105 323.778C268.297 327.299 264.021 331.124 257.557 334.078Z" fill="#9D9990"/>
<path fill-rule="evenodd" clip-rule="evenodd" d="M306.622 344.622C313.825 337.992 319.888 332.316 324.07 328.213C325.802 312.746 325.939 297.278 325.473 281.81C315.471 300.436 308.469 322.925 306.622 344.622Z" fill="#9D9990"/>
<path fill-rule="evenodd" clip-rule="evenodd" d="M324.07 328.213C329.196 333.838 335.211 337.646 341.711 340.463L345.522 313.713C337.381 317.015 330.883 314.339 325.832 306.408C325.563 314.327 325.026 321.698 324.07 328.213Z" fill="#9D9592"/>
<path fill-rule="evenodd" clip-rule="evenodd" d="M316.836 335.44C322.022 338.444 326.756 338.375 330.912 334.358L324.176 328.595L316.836 335.44Z" fill="#4B4E4F"/>
<path fill-rule="evenodd" clip-rule="evenodd" d="M325.292 281.791L325.786 305.802C329.626 313.217 335.627 316.783 345.4 313.638C348.708 310.787 351.872 311.322 354.96 313.638L359.08 314.311C358.141 314.311 365.114 293.965 366.003 286.341C362.977 282.697 358.555 277.499 356.855 268.565C342.977 268.61 332.301 271.071 325.292 281.791Z" fill="#702910"/>
<path fill-rule="evenodd" clip-rule="evenodd" d="M346.776 326.825L349.512 328.306L349.995 321.066C349.083 318.144 348.17 317.282 347.259 317.282L346.776 326.825Z" fill="#B14253"/>
<path fill-rule="evenodd" clip-rule="evenodd" d="M335.339 392.068C340.617 395.798 346.447 398.02 352.549 399.502C355.47 396.38 354.404 392.539 352.642 388.571C347.278 389.512 343.534 388.384 340.369 386.514C335.986 385.599 334.503 387.648 335.339 392.068Z" fill="#EFD5BE"/>
<path fill-rule="evenodd" clip-rule="evenodd" d="M336.427 377.724C336.427 377.724 331.767 401.336 326.665 409.869C321.562 418.402 305.81 428.922 305.81 428.922C304.257 424.261 304.269 418.205 305.121 411.284C316.057 405.818 327.512 393.77 336.427 377.724Z" fill="#F0DFD6"/>
<path fill-rule="evenodd" clip-rule="evenodd" d="M210.061 429.123L222.115 437.503L241.161 437.01C243.881 438.548 245.25 440.546 245.501 442.925L251.084 438.887C249.92 435.252 247.464 432.058 243.832 429.265C237.81 430.974 232.007 431.341 226.396 430.527C218.868 426.638 212.974 420.245 207.109 413.806C209.734 419.844 211.14 425.189 210.061 429.123Z" fill="#7A8C98"/>
<path fill-rule="evenodd" clip-rule="evenodd" d="M209.528 399.88C233.012 409.418 257.387 416.226 281.863 422.721L280.876 414.392C256.087 408.846 232.178 402.062 210.022 392.813L209.528 399.88Z" fill="#8EA0B4"/>
<path fill-rule="evenodd" clip-rule="evenodd" d="M209.652 389.406C211.725 384.287 214.739 379.971 218.787 376.534C214.882 370.479 212.157 362.736 209.899 354.324L209.652 376.408L208.294 384.484L209.652 389.406Z" fill="#425967"/>
<path fill-rule="evenodd" clip-rule="evenodd" d="M357.235 467.001L404.019 443.529C388.529 451.915 373.462 461.092 359.951 473.184C361.202 470.275 360.264 468.227 357.235 467.001Z" fill="#425158"/>
<path fill-rule="evenodd" clip-rule="evenodd" d="M357.592 447.085L377.712 449.357C388.803 442.918 401.719 440.399 416.101 441.028L368.824 432.32C366.622 437.672 363.416 442.743 357.592 447.085Z" fill="#728A96"/>
<path fill-rule="evenodd" clip-rule="evenodd" d="M330.245 335.328C324.659 345.012 325.4 368.295 323.042 379.029C321.479 386.147 316.099 399.732 316.099 399.732L313.398 392.831C321.381 378.15 320.799 357.971 317.449 336.016C321.331 338.395 325.572 338.334 330.245 335.328Z" fill="#778284"/>
<path fill-rule="evenodd" clip-rule="evenodd" d="M256.797 215.242C254.316 249.759 250.076 283.825 244.144 317.458C245.958 282.047 250.236 248.008 256.797 215.242Z" fill="#612723"/>
<path fill-rule="evenodd" clip-rule="evenodd" d="M244.762 182.748C243.735 230.806 240.658 278.674 234.886 326.292C237.727 278.444 241.058 230.596 244.762 182.748Z" fill="#431A18"/>
<path fill-rule="evenodd" clip-rule="evenodd" d="M238.898 181.17C236.517 227.538 233.439 273.55 229.332 319.036C229.287 273.081 232.902 227.126 238.898 181.17Z" fill="#481814"/>
<path fill-rule="evenodd" clip-rule="evenodd" d="M262.351 225.653C263.783 257.223 268.889 286.769 275.929 315.25C271.995 285.788 267.58 255.998 262.351 225.653Z" fill="#592B2B"/>
<path fill-rule="evenodd" clip-rule="evenodd" d="M215.136 225.653C214.694 248.203 215.767 270.237 217.913 291.905C219.023 269.613 218.342 247.504 215.136 225.653Z" fill="#76565A"/>
<path fill-rule="evenodd" clip-rule="evenodd" d="M281.793 119.336C300.321 108.649 318.405 96.5985 336.105 83.3708C317.33 92.0642 299.188 103.868 281.793 119.336Z" fill="#995C64"/>
<path fill-rule="evenodd" clip-rule="evenodd" d="M286.73 125.33L335.797 94.0977C322.441 107.831 306.557 118.764 286.73 125.33Z" fill="#7C4B4F"/>
<path fill-rule="evenodd" clip-rule="evenodd" d="M286.113 107.979C299.096 100.068 311.071 90.4025 321.293 77.6925C308.554 86.7531 296.919 96.9418 286.113 107.979Z" fill="#603235"/>
<path fill-rule="evenodd" clip-rule="evenodd" d="M371.264 163.786C365.662 162.81 360.436 160.838 355.939 156.926L371.016 153.369C372.004 156.749 372.487 160.18 371.264 163.786Z" fill="#B6A093"/>
<path fill-rule="evenodd" clip-rule="evenodd" d="M379.722 152.225L382.373 144.84C375.091 132.366 353.532 134.983 344.93 141.995C356.834 136.491 373.818 138.924 379.722 152.225Z" fill="#673A26"/>
<path fill-rule="evenodd" clip-rule="evenodd" d="M296.511 201.584C285.908 203.523 278.325 199.085 271.867 192.269C257.333 171.07 260.298 158.275 268.967 150.349C278.628 145.923 287.783 154.492 291.437 172.896C291.329 178.871 292.191 184.428 297.339 188.14C299.855 193.165 299.794 197.689 296.511 201.584Z" fill="#B78573"/>
<path fill-rule="evenodd" clip-rule="evenodd" d="M277.458 163.158C270.127 170.45 275.818 189.639 288.434 184.118C281.923 176.881 283.93 172.933 283.775 167.392C283.674 163.804 281.778 161.784 277.458 163.158Z" fill="#996655"/>
<path fill-rule="evenodd" clip-rule="evenodd" d="M285.431 191.633C283.939 197.231 289.715 201.492 293.922 199.678C293.922 199.678 295.198 197.548 295.475 195.762C296.446 189.51 286.601 188.283 285.431 191.633Z" fill="#CEC8C5"/>
<path fill-rule="evenodd" clip-rule="evenodd" d="M299.17 199.47C295.768 220.197 301.105 235.2 316.903 247.371C316.224 256.898 317.883 266.425 320.656 275.952C309.403 266.801 297.782 267.416 285.838 276.614L284.026 259.544C278.662 239.104 276.698 217.795 275.484 196.294C284.54 201.44 293.234 205.31 299.17 199.47Z" fill="#A5735C"/>
<path fill-rule="evenodd" clip-rule="evenodd" d="M348.367 74.6191L364.628 93.3096L376.196 88.265C372.598 89.1399 368.888 88.8662 365.113 87.9343L373.607 85.9491C367.914 85.853 362.297 84.7554 356.781 82.3103L368.187 81.3181C363.215 80.9927 358.817 79.7439 355.082 77.4314L361.473 76.2735C357.104 76.07 352.736 75.5451 348.367 74.6191Z" fill="#8C3F39"/>
<path fill-rule="evenodd" clip-rule="evenodd" d="M357.159 165.511C361.015 167.895 368.781 168.97 373.5 166.503L366.381 177.089C365.97 172.525 361.456 168.752 357.159 165.511Z" fill="#BA846A"/>
<path fill-rule="evenodd" clip-rule="evenodd" d="M346.056 270.086C346.056 270.086 346.331 284.275 347.815 291.16C349.389 298.464 355.501 313.911 355.501 313.911L350.428 311.371C337.399 317.84 330.183 314.467 325.99 305.972L325.059 281.307C331.547 273.647 338.464 269.278 346.056 270.086Z" fill="#180300"/>
<path fill-rule="evenodd" clip-rule="evenodd" d="M332.361 518.867C314.638 530.586 300.234 542.869 297.004 557.057C280.274 555.224 265.217 552.82 254.454 548.953C268.314 534.523 295.867 527.879 332.361 518.867Z" fill="#121421" stroke="black" stroke-width="0.573101" stroke-miterlimit="1.5" stroke-linecap="round" stroke-linejoin="round"/>
<rect width="360" height="640" fill="url(#paint1_linear)"/>
<circle cx="24" cy="404" r="84" fill="url(#paint2_linear)"/>
<circle cx="354" cy="589" r="49" fill="url(#paint3_linear)"/>
<defs>
<linearGradient id="paint0_linear" x1="147" y1="67" x2="338.259" y2="67" gradientUnits="userSpaceOnUse">
<stop stop-color="#E92B2B"/>
<stop offset="1" stop-color="#F7AB53"/>
</linearGradient>
<linearGradient id="paint1_linear" x1="180" y1="0" x2="180" y2="640" gradientUnits="userSpaceOnUse">
<stop stop-color="#FFEDD9" stop-opacity="0"/>
<stop offset="0.557048" stop-color="#FFEDD9"/>
<stop offset="1" stop-color="#FFEDD9"/>
</linearGradient>
<linearGradient id="paint2_linear" x1="-60" y1="404" x2="47.1049" y2="404" gradientUnits="userSpaceOnUse">
<stop stop-color="#E92B2B"/>
<stop offset="1" stop-color="#F7AB53"/>
</linearGradient>
<linearGradient id="paint3_linear" x1="305" y1="589" x2="367.478" y2="589" gradientUnits="userSpaceOnUse">
<stop stop-color="#E92B2B"/>
<stop offset="1" stop-color="#F7AB53"/>
</linearGradient>
</defs>
</svg>
