<svg width="195" height="51" viewBox="0 0 195 51" fill="none" xmlns="http://www.w3.org/2000/svg">
<path d="M36.2104 41.2524C36.2104 40.591 35.9769 40.0853 35.5101 39.7354C35.0437 39.3778 34.2034 39.0044 32.9899 38.6152C31.7764 38.2186 30.8158 37.8297 30.1079 37.4485C28.1788 36.4062 27.2142 35.0021 27.2142 33.2363C27.2142 32.3185 27.4709 31.5017 27.9843 30.7861C28.5055 30.0627 29.2484 29.4987 30.2129 29.0942C31.1852 28.6897 32.2743 28.4875 33.4801 28.4875C34.6933 28.4875 35.7747 28.7092 36.7237 29.1526C37.6728 29.5882 38.4076 30.2065 38.9291 31.0078C39.4578 31.809 39.7224 32.7191 39.7224 33.7381H36.2219C36.2219 32.9602 35.9769 32.3574 35.487 31.9295C34.9967 31.4939 34.3084 31.2761 33.4217 31.2761C32.566 31.2761 31.9009 31.4589 31.4264 31.8245C30.9519 32.1824 30.7146 32.6568 30.7146 33.248C30.7146 33.8003 30.9908 34.2632 31.5431 34.6365C32.1032 35.0099 32.9238 35.3599 34.005 35.6866C35.9961 36.2856 37.447 37.0285 38.3573 37.9152C39.2675 38.8021 39.7224 39.9065 39.7224 41.229C39.7224 42.6991 39.1663 43.8542 38.0538 44.6945C36.9413 45.5266 35.4439 45.9426 33.5616 45.9426C32.2548 45.9426 31.0647 45.7054 29.9912 45.2309C28.9178 44.7486 28.0971 44.0915 27.5293 43.2593C26.9692 42.4268 26.6892 41.4624 26.6892 40.3657H30.2012C30.2012 42.2403 31.3214 43.1774 33.5616 43.1774C34.3938 43.1774 35.0437 43.0101 35.5101 42.6756C35.9769 42.3333 36.2104 41.8588 36.2104 41.2524ZM45.1713 34.4615C46.0657 33.388 47.1898 32.8513 48.5433 32.8513C51.2813 32.8513 52.6699 34.442 52.7087 37.6235V45.7096H49.3366V37.7169C49.3366 36.9934 49.1813 36.4606 48.8702 36.1183C48.5587 35.7683 48.0415 35.5933 47.3182 35.5933C46.3303 35.5933 45.6147 35.9744 45.1713 36.7367V45.7096H41.7993V27.7874H45.1713V34.4615ZM62.5683 45.7096C62.4126 45.4062 62.2999 45.029 62.2299 44.5775C61.4132 45.4877 60.3515 45.9426 59.0444 45.9426C57.8077 45.9426 56.781 45.585 55.9642 44.8694C55.1551 44.1538 54.7506 43.2512 54.7506 42.1622C54.7506 40.8244 55.2448 39.7977 56.2326 39.0821C57.2282 38.3664 58.6633 38.0047 60.5379 37.9969H62.09V37.2735C62.09 36.6901 61.9381 36.2233 61.6346 35.8733C61.3393 35.5233 60.8687 35.3482 60.223 35.3482C59.655 35.3482 59.2078 35.4844 58.8814 35.7566C58.5622 36.0289 58.4026 36.4023 58.4026 36.8768H55.0305C55.0305 36.1455 55.2563 35.4688 55.7073 34.8465C56.1588 34.2242 56.7963 33.7381 57.6212 33.3881C58.4457 33.0302 59.3713 32.8513 60.398 32.8513C61.9538 32.8513 63.1867 33.2441 64.0969 34.0298C65.0148 34.8077 65.4735 35.9044 65.4735 37.3201V42.7925C65.4812 43.9903 65.6485 44.8967 65.9754 45.5112V45.7096H62.5683ZM59.7796 43.3643C60.2776 43.3643 60.7364 43.2551 61.1563 43.0374C61.5766 42.8117 61.8877 42.5126 62.09 42.1392V39.9688H60.8298C59.1417 39.9688 58.2434 40.5522 58.1346 41.7188L58.1226 41.9173C58.1226 42.3372 58.2707 42.6837 58.566 42.9559C58.8617 43.2282 59.2663 43.3643 59.7796 43.3643ZM75.1582 36.2467C74.699 36.1845 74.2945 36.1534 73.9446 36.1534C72.6687 36.1534 71.8327 36.5851 71.4358 37.4485V45.7096H68.0638V33.0847H71.2493L71.3424 34.5899C72.0192 33.4308 72.9567 32.8513 74.1545 32.8513C74.5279 32.8513 74.8779 32.9019 75.2047 33.003L75.1582 36.2467ZM82.3687 45.9426C80.5175 45.9426 79.0086 45.3751 77.8415 44.2391C76.6825 43.1036 76.103 41.5908 76.103 39.7004V39.3735C76.103 38.1058 76.3479 36.974 76.8383 35.9783C77.3281 34.9749 78.0207 34.2048 78.9152 33.6681C79.8173 33.1236 80.8444 32.8513 81.9953 32.8513C83.7223 32.8513 85.0797 33.3958 86.0676 34.4848C87.0632 35.5739 87.5612 37.1179 87.5612 39.1171V40.4937H79.522C79.6308 41.3186 79.9572 41.9796 80.5018 42.4776C81.0544 42.9751 81.7504 43.2244 82.5906 43.2244C83.8896 43.2244 84.9048 42.7537 85.6358 41.8123L87.2928 43.6677C86.7871 44.3834 86.1026 44.9432 85.2393 45.3478C84.3756 45.7446 83.4189 45.9426 82.3687 45.9426ZM81.9838 35.5816C81.3147 35.5816 80.7702 35.8072 80.3503 36.2584C79.938 36.7095 79.6735 37.3552 79.557 38.1952H84.2472V37.9269C84.2318 37.1801 84.0296 36.6045 83.6408 36.2C83.2516 35.7877 82.6994 35.5816 81.9838 35.5816ZM107.747 31.5562H102.543V45.7096H99.0424V31.5562H93.9084V28.7208H107.747V31.5562ZM112.822 34.4615C113.717 33.388 114.841 32.8513 116.194 32.8513C118.932 32.8513 120.321 34.442 120.36 37.6235V45.7096H116.988V37.7169C116.988 36.9934 116.832 36.4606 116.521 36.1183C116.21 35.7683 115.693 35.5933 114.969 35.5933C113.981 35.5933 113.266 35.9744 112.822 36.7367V45.7096H109.45V27.7874H112.822V34.4615ZM122.378 39.2805C122.378 38.028 122.619 36.9117 123.102 35.9317C123.584 34.9516 124.276 34.1931 125.178 33.6564C126.089 33.1197 127.143 32.8513 128.341 32.8513C130.044 32.8513 131.433 33.3725 132.506 34.4148C133.587 35.4572 134.19 36.8729 134.315 38.6622L134.338 39.5254C134.338 41.4624 133.798 43.0178 132.716 44.1926C131.635 45.3593 130.184 45.9426 128.364 45.9426C126.544 45.9426 125.089 45.3593 124 44.1926C122.919 43.0259 122.378 41.4389 122.378 39.432V39.2805ZM125.75 39.5254C125.75 40.7233 125.976 41.6412 126.427 42.2791C126.878 42.909 127.524 43.2244 128.364 43.2244C129.181 43.2244 129.819 42.9128 130.277 42.2907C130.737 41.6608 130.966 40.6571 130.966 39.2805C130.966 38.1058 130.737 37.1957 130.277 36.5501C129.819 35.9044 129.173 35.5816 128.341 35.5816C127.516 35.5816 126.878 35.9044 126.427 36.5501C125.976 37.1879 125.75 38.1797 125.75 39.5254ZM143.976 44.426C143.143 45.4374 141.992 45.9426 140.522 45.9426C139.168 45.9426 138.134 45.5539 137.418 44.776C136.711 43.998 136.349 42.8586 136.333 41.3574V33.0847H139.705V41.2405C139.705 42.5552 140.304 43.2124 141.502 43.2124C142.646 43.2124 143.431 42.816 143.859 42.0223V33.0847H147.243V45.7096H144.069L143.976 44.426ZM149.297 39.3035C149.297 37.3668 149.755 35.8072 150.673 34.6248C151.599 33.4425 152.844 32.8513 154.407 32.8513C155.791 32.8513 156.869 33.3258 157.639 34.2748L157.779 33.0847H160.836V45.2893C160.836 46.3941 160.583 47.3547 160.077 48.1715C159.58 48.9882 158.876 49.6104 157.966 50.0384C157.056 50.466 155.99 50.6798 154.769 50.6798C153.843 50.6798 152.941 50.4933 152.062 50.1199C151.183 49.7542 150.518 49.2797 150.066 48.6963L151.56 46.6429C152.4 47.5843 153.419 48.0545 154.617 48.0545C155.511 48.0545 156.208 47.8134 156.705 47.3312C157.203 46.8567 157.452 46.1799 157.452 45.3013V44.6245C156.674 45.5031 155.651 45.9426 154.384 45.9426C152.867 45.9426 151.638 45.3516 150.697 44.1691C149.763 42.979 149.297 41.4039 149.297 39.4439V39.3035ZM152.669 39.5489C152.669 40.6921 152.898 41.5908 153.357 42.2442C153.816 42.8898 154.446 43.2124 155.247 43.2124C156.274 43.2124 157.009 42.8275 157.452 42.0572V36.7484C157.001 35.9783 156.274 35.5933 155.27 35.5933C154.461 35.5933 153.824 35.9239 153.357 36.5851C152.898 37.2463 152.669 38.2341 152.669 39.5489ZM166.729 34.4615C167.623 33.388 168.747 32.8513 170.101 32.8513C172.839 32.8513 174.227 34.442 174.266 37.6235V45.7096H170.894V37.7169C170.894 36.9934 170.738 36.4606 170.427 36.1183C170.116 35.7683 169.599 35.5933 168.875 35.5933C167.888 35.5933 167.172 35.9744 166.729 36.7367V45.7096H163.357V27.7874H166.729V34.4615ZM180.847 29.981V33.0847H183.005V35.5583H180.847V41.8588C180.847 42.3257 180.936 42.6602 181.115 42.8625C181.294 43.0648 181.636 43.1659 182.142 43.1659C182.515 43.1659 182.846 43.1386 183.133 43.084V45.6392C182.472 45.8415 181.792 45.9426 181.092 45.9426C178.727 45.9426 177.521 44.7486 177.475 42.3606V35.5583H175.631V33.0847H177.475V29.981H180.847ZM191.721 42.2207C191.721 41.8085 191.515 41.4854 191.103 41.2524C190.699 41.0113 190.045 40.7971 189.143 40.6106C186.14 39.9803 184.639 38.7048 184.639 36.7834C184.639 35.6633 185.102 34.7299 186.027 33.9831C186.961 33.2286 188.178 32.8513 189.68 32.8513C191.282 32.8513 192.561 33.2286 193.518 33.9831C194.483 34.7376 194.965 35.7178 194.965 36.9234H191.593C191.593 36.4412 191.437 36.0445 191.126 35.7333C190.815 35.4144 190.329 35.2549 189.668 35.2549C189.1 35.2549 188.66 35.3833 188.349 35.64C188.038 35.8966 187.883 36.2233 187.883 36.6201C187.883 36.9934 188.057 37.2968 188.407 37.5302C188.765 37.7557 189.364 37.9541 190.204 38.1252C191.045 38.2886 191.752 38.4753 192.328 38.6852C194.109 39.3385 195 40.4707 195 42.0807C195 43.232 194.506 44.1653 193.518 44.8809C192.53 45.5889 191.255 45.9426 189.691 45.9426C188.633 45.9426 187.692 45.7562 186.867 45.3828C186.051 45.0017 185.409 44.4845 184.942 43.8307C184.475 43.1697 184.242 42.4579 184.242 41.6958H187.439C187.47 42.2945 187.692 42.7537 188.104 43.0724C188.516 43.3912 189.069 43.5508 189.761 43.5508C190.407 43.5508 190.893 43.4305 191.22 43.1889C191.554 42.9402 191.721 42.6175 191.721 42.2207Z" fill="#D8E9A8"/>
<path d="M35.4956 26.2498C29.7313 24.5812 23.3603 27.7667 25.7874 35.9579C20.4257 35.9579 16.0792 31.6114 16.0792 26.2498C16.0792 20.8881 20.4257 16.5416 25.7874 16.5416C31.149 16.5416 35.4956 20.8881 35.4956 26.2498Z" fill="#D8E9A8"/>
<path d="M0 26.5532C9.85986 27.3116 21.3883 37.0198 17.7478 32.6208C14.1072 28.2218 15.0173 23.5194 17.7478 19.4237C20.4782 15.3281 8.34296 25.4914 0 26.5532Z" fill="#D8E9A8"/>
<path d="M26.0805 0C25.1248 9.84267 15.1878 21.1745 19.6588 17.6227C24.1298 14.071 28.813 15.0751 32.8532 17.8869C36.8936 20.6988 26.9751 8.36255 26.0805 0Z" fill="#D8E9A8"/>
</svg>
