<svg width="501" height="164" viewBox="0 0 501 164" fill="none" xmlns="http://www.w3.org/2000/svg">
<g filter="url(#filter0_d)">
<path d="M106.894 106.493C106.894 104.943 106.347 103.758 105.253 102.938C104.16 102.1 102.191 101.225 99.3472 100.313C96.5036 99.3835 94.2524 98.4721 92.5936 97.5789C88.0729 95.1363 85.8126 91.8461 85.8126 87.7082C85.8126 85.5573 86.4141 83.6433 87.6172 81.9663C88.8385 80.271 90.5793 78.9495 92.8397 78.0016C95.1182 77.0537 97.6702 76.5798 100.496 76.5798C103.339 76.5798 105.873 77.0993 108.097 78.1383C110.321 79.1591 112.043 80.6082 113.265 82.4858C114.504 84.3633 115.124 86.496 115.124 88.8839H106.921C106.921 87.0611 106.347 85.6484 105.199 84.6458C104.05 83.625 102.437 83.1146 100.359 83.1146C98.3538 83.1146 96.7952 83.543 95.6833 84.3998C94.5714 85.2383 94.0154 86.3502 94.0154 87.7356C94.0154 89.0298 94.6625 90.1144 95.9567 90.9893C97.2692 91.8643 99.1923 92.6846 101.726 93.4502C106.392 94.8538 109.792 96.5946 111.925 98.6726C114.058 100.751 115.124 103.339 115.124 106.438C115.124 109.883 113.821 112.59 111.214 114.559C108.607 116.509 105.098 117.484 100.687 117.484C97.6246 117.484 94.8357 116.928 92.3202 115.816C89.8046 114.686 87.8815 113.146 86.5509 111.196C85.2384 109.245 84.5822 106.985 84.5822 104.415H92.8123C92.8123 108.808 95.4372 111.004 100.687 111.004C102.637 111.004 104.16 110.612 105.253 109.828C106.347 109.026 106.894 107.914 106.894 106.493ZM127.893 90.5792C129.989 88.0637 132.623 86.8059 135.795 86.8059C142.211 86.8059 145.465 90.5336 145.556 97.989V116.938H137.654V98.2078C137.654 96.5125 137.29 95.2639 136.561 94.4618C135.831 93.6416 134.619 93.2314 132.924 93.2314C130.609 93.2314 128.932 94.1246 127.893 95.911V116.938H119.991V74.9392H127.893V90.5792ZM168.661 116.938C168.296 116.227 168.032 115.343 167.868 114.285C165.954 116.418 163.466 117.484 160.403 117.484C157.505 117.484 155.099 116.646 153.185 114.969C151.289 113.292 150.341 111.177 150.341 108.625C150.341 105.49 151.499 103.084 153.814 101.407C156.147 99.7299 159.51 98.8822 163.903 98.864H167.54V97.1688C167.54 95.8016 167.184 94.7079 166.473 93.8877C165.781 93.0674 164.678 92.6572 163.165 92.6572C161.834 92.6572 160.786 92.9762 160.021 93.6142C159.273 94.2522 158.899 95.1272 158.899 96.2391H150.997C150.997 94.5256 151.526 92.9398 152.583 91.4815C153.641 90.0232 155.135 88.8839 157.068 88.0637C159 87.2252 161.169 86.8059 163.575 86.8059C167.221 86.8059 170.11 87.7264 172.243 89.5675C174.394 91.3904 175.469 93.9606 175.469 97.2781V110.102C175.487 112.909 175.879 115.033 176.645 116.473V116.938H168.661ZM162.126 111.442C163.293 111.442 164.368 111.186 165.352 110.676C166.337 110.147 167.066 109.446 167.54 108.571V103.485H164.587C160.631 103.485 158.526 104.852 158.271 107.586L158.243 108.051C158.243 109.035 158.59 109.847 159.282 110.485C159.975 111.123 160.923 111.442 162.126 111.442ZM198.164 94.7626C197.088 94.6168 196.14 94.5439 195.32 94.5439C192.33 94.5439 190.371 95.5556 189.441 97.5789V116.938H181.539V87.3528H189.004L189.222 90.88C190.808 88.1639 193.005 86.8059 195.812 86.8059C196.687 86.8059 197.507 86.9244 198.273 87.1614L198.164 94.7626ZM215.061 117.484C210.723 117.484 207.187 116.154 204.452 113.492C201.736 110.831 200.378 107.286 200.378 102.856V102.09C200.378 99.1192 200.952 96.467 202.101 94.1337C203.249 91.7823 204.872 89.9777 206.968 88.7199C209.082 87.4439 211.489 86.8059 214.186 86.8059C218.233 86.8059 221.414 88.0819 223.729 90.6339C226.062 93.1859 227.229 96.8042 227.229 101.489V104.715H208.39C208.645 106.648 209.41 108.197 210.686 109.364C211.981 110.53 213.612 111.114 215.581 111.114C218.625 111.114 221.004 110.011 222.717 107.805L226.6 112.153C225.415 113.83 223.811 115.142 221.788 116.09C219.764 117.02 217.522 117.484 215.061 117.484ZM214.159 93.2041C212.591 93.2041 211.315 93.7327 210.331 94.79C209.365 95.8472 208.745 97.3602 208.472 99.3288H219.463V98.7C219.427 96.95 218.953 95.6011 218.042 94.6532C217.13 93.6871 215.836 93.2041 214.159 93.2041ZM274.532 83.7709H262.337V116.938H254.134V83.7709H242.103V77.1266H274.532V83.7709ZM286.426 90.5792C288.522 88.0637 291.156 86.8059 294.328 86.8059C300.744 86.8059 303.998 90.5336 304.089 97.989V116.938H296.187V98.2078C296.187 96.5125 295.822 95.2639 295.093 94.4618C294.364 93.6416 293.152 93.2314 291.457 93.2314C289.142 93.2314 287.465 94.1246 286.426 95.911V116.938H278.524V74.9392H286.426V90.5792ZM308.819 101.872C308.819 98.9369 309.384 96.3211 310.514 94.0244C311.645 91.7276 313.267 89.9503 315.381 88.6925C317.514 87.4348 319.984 86.8059 322.791 86.8059C326.783 86.8059 330.037 88.0272 332.553 90.4698C335.086 92.9124 336.499 96.23 336.791 100.423L336.845 102.446C336.845 106.985 335.579 110.63 333.045 113.383C330.511 116.117 327.111 117.484 322.846 117.484C318.581 117.484 315.172 116.117 312.62 113.383C310.086 110.649 308.819 106.93 308.819 102.227V101.872ZM316.721 102.446C316.721 105.253 317.25 107.404 318.307 108.899C319.364 110.375 320.877 111.114 322.846 111.114C324.76 111.114 326.255 110.384 327.33 108.926C328.406 107.45 328.943 105.098 328.943 101.872C328.943 99.1192 328.406 96.9865 327.33 95.4735C326.255 93.9606 324.742 93.2041 322.791 93.2041C320.859 93.2041 319.364 93.9606 318.307 95.4735C317.25 96.9683 316.721 99.2924 316.721 102.446ZM359.43 113.93C357.48 116.3 354.782 117.484 351.337 117.484C348.165 117.484 345.741 116.573 344.064 114.75C342.405 112.927 341.557 110.257 341.521 106.739V87.3528H349.423V106.465C349.423 109.546 350.827 111.086 353.634 111.086C356.313 111.086 358.154 110.157 359.157 108.297V87.3528H367.086V116.938H359.649L359.43 113.93ZM371.899 101.926C371.899 97.3875 372.974 93.7327 375.125 90.962C377.294 88.1913 380.211 86.8059 383.875 86.8059C387.119 86.8059 389.644 87.9178 391.449 90.1417L391.777 87.3528H398.941V115.953C398.941 118.542 398.348 120.793 397.163 122.707C395.997 124.621 394.347 126.079 392.214 127.082C390.082 128.084 387.584 128.585 384.722 128.585C382.553 128.585 380.439 128.148 378.379 127.273C376.319 126.416 374.761 125.304 373.703 123.937L377.203 119.125C379.172 121.331 381.56 122.433 384.367 122.433C386.463 122.433 388.095 121.868 389.261 120.738C390.428 119.626 391.011 118.04 391.011 115.981V114.395C389.188 116.454 386.791 117.484 383.82 117.484C380.266 117.484 377.385 116.099 375.18 113.328C372.992 110.539 371.899 106.848 371.899 102.255V101.926ZM379.801 102.501C379.801 105.18 380.338 107.286 381.414 108.817C382.489 110.33 383.966 111.086 385.843 111.086C388.25 111.086 389.972 110.184 391.011 108.379V95.9383C389.954 94.1337 388.25 93.2314 385.898 93.2314C384.002 93.2314 382.508 94.0061 381.414 95.5556C380.338 97.105 379.801 99.42 379.801 102.501ZM412.749 90.5792C414.845 88.0637 417.479 86.8059 420.651 86.8059C427.067 86.8059 430.321 90.5336 430.412 97.989V116.938H422.51V98.2078C422.51 96.5125 422.145 95.2639 421.416 94.4618C420.687 93.6416 419.475 93.2314 417.78 93.2314C415.465 93.2314 413.788 94.1246 412.749 95.911V116.938H404.847V74.9392H412.749V90.5792ZM445.833 80.0796V87.3528H450.892V93.1494H445.833V107.914C445.833 109.008 446.043 109.792 446.462 110.266C446.881 110.74 447.683 110.977 448.868 110.977C449.743 110.977 450.518 110.913 451.192 110.785V116.773C449.643 117.247 448.048 117.484 446.407 117.484C440.866 117.484 438.041 114.686 437.931 109.09V93.1494H433.611V87.3528H437.931V80.0796H445.833ZM471.317 108.762C471.317 107.796 470.833 107.039 469.867 106.493C468.92 105.928 467.388 105.426 465.274 104.989C458.238 103.512 454.72 100.523 454.72 96.0204C454.72 93.3955 455.804 91.2081 457.973 89.4581C460.161 87.69 463.014 86.8059 466.532 86.8059C470.287 86.8059 473.285 87.69 475.527 89.4581C477.788 91.2263 478.918 93.5231 478.918 96.3485H471.016C471.016 95.2183 470.651 94.2887 469.922 93.5595C469.193 92.8122 468.054 92.4385 466.504 92.4385C465.174 92.4385 464.144 92.7393 463.415 93.3408C462.685 93.9423 462.321 94.7079 462.321 95.6376C462.321 96.5125 462.731 97.2235 463.551 97.7703C464.39 98.2989 465.793 98.7638 467.762 99.1648C469.731 99.5476 471.389 99.9851 472.738 100.477C476.913 102.008 479 104.661 479 108.434C479 111.132 477.842 113.319 475.527 114.996C473.212 116.655 470.223 117.484 466.559 117.484C464.08 117.484 461.874 117.047 459.942 116.172C458.028 115.279 456.524 114.067 455.43 112.535C454.337 110.986 453.79 109.318 453.79 107.532H461.282C461.355 108.935 461.874 110.011 462.84 110.758C463.806 111.505 465.101 111.879 466.723 111.879C468.236 111.879 469.375 111.597 470.141 111.031C470.925 110.448 471.317 109.692 471.317 108.762Z" fill="#26712F"/>
<path d="M105.219 71.3359C91.7109 67.4258 76.7812 74.8906 82.4688 94.0859C69.9043 94.0859 59.7188 83.9004 59.7188 71.3359C59.7188 58.7715 69.9043 48.5859 82.4688 48.5859C95.0332 48.5859 105.219 58.7715 105.219 71.3359Z" fill="#26712F"/>
<path d="M22.039 72.047C45.1445 73.8243 72.1601 96.5743 63.6289 86.2657C55.0976 75.9571 57.2304 64.9376 63.6289 55.3399C70.0273 45.7422 41.5898 69.5587 22.039 72.047Z" fill="#26712F"/>
<path d="M83.1558 9.82248C80.9163 32.8877 57.6299 59.4425 68.1073 51.1193C78.5846 42.7962 89.5592 45.1492 99.0269 51.7385C108.495 58.3278 85.2522 29.4192 83.1558 9.82248Z" fill="#26712F"/>
</g>
<defs>
<filter id="filter0_d" x="0.039032" y="0.484375" width="500.961" height="163.101" filterUnits="userSpaceOnUse" color-interpolation-filters="sRGB">
<feFlood flood-opacity="0" result="BackgroundImageFix"/>
<feColorMatrix in="SourceAlpha" type="matrix" values="0 0 0 0 0 0 0 0 0 0 0 0 0 0 0 0 0 0 127 0"/>
<feOffset dy="13"/>
<feGaussianBlur stdDeviation="11"/>
<feColorMatrix type="matrix" values="0 0 0 0 0 0 0 0 0 0 0 0 0 0 0 0 0 0 0.15 0"/>
<feBlend mode="normal" in2="BackgroundImageFix" result="effect1_dropShadow"/>
<feBlend mode="normal" in="SourceGraphic" in2="effect1_dropShadow" result="shape"/>
</filter>
</defs>
</svg>
