<svg width="502" height="164" viewBox="0 0 502 164" fill="none" xmlns="http://www.w3.org/2000/svg">
<g filter="url(#filter0_d)">
<path d="M107.567 106.076C107.567 104.527 107.02 103.342 105.926 102.521C104.833 101.683 102.864 100.808 100.02 99.8965C97.1768 98.9669 94.9256 98.0555 93.2668 97.1623C88.7461 94.7197 86.4858 91.4294 86.4858 87.2916C86.4858 85.1406 87.0873 83.2266 88.2904 81.5496C89.5117 79.8544 91.2525 78.5328 93.5129 77.5849C95.7914 76.6371 98.3434 76.1631 101.169 76.1631C104.012 76.1631 106.546 76.6826 108.77 77.7217C110.994 78.7425 112.717 80.1916 113.938 82.0691C115.177 83.9467 115.797 86.0794 115.797 88.4673H107.594C107.594 86.6445 107.02 85.2318 105.872 84.2292C104.723 83.2084 103.11 82.698 101.032 82.698C99.027 82.698 97.4684 83.1264 96.3565 83.9831C95.2446 84.8216 94.6886 85.9336 94.6886 87.3189C94.6886 88.6131 95.3357 89.6977 96.6299 90.5727C97.9424 91.4477 99.8655 92.2679 102.399 93.0335C107.066 94.4371 110.465 96.1779 112.598 98.256C114.731 100.334 115.797 102.922 115.797 106.021C115.797 109.466 114.494 112.173 111.887 114.142C109.28 116.093 105.771 117.068 101.36 117.068C98.2978 117.068 95.5089 116.512 92.9934 115.4C90.4778 114.27 88.5547 112.729 87.2241 110.779C85.9116 108.828 85.2554 106.568 85.2554 103.998H93.4855C93.4855 108.391 96.1104 110.588 101.36 110.588C103.311 110.588 104.833 110.196 105.926 109.412C107.02 108.61 107.567 107.498 107.567 106.076ZM128.566 90.1626C130.662 87.647 133.296 86.3893 136.468 86.3893C142.885 86.3893 146.138 90.117 146.229 97.5724V116.521H138.327V97.7912C138.327 96.0959 137.963 94.8473 137.234 94.0452C136.505 93.2249 135.292 92.8148 133.597 92.8148C131.282 92.8148 129.605 93.708 128.566 95.4944V116.521H120.664V74.5226H128.566V90.1626ZM169.334 116.521C168.969 115.81 168.705 114.926 168.541 113.869C166.627 116.001 164.139 117.068 161.077 117.068C158.178 117.068 155.772 116.229 153.858 114.552C151.962 112.875 151.014 110.761 151.014 108.209C151.014 105.073 152.172 102.667 154.487 100.99C156.82 99.3132 160.183 98.4656 164.576 98.4474H168.213V96.7521C168.213 95.385 167.858 94.2913 167.147 93.471C166.454 92.6507 165.351 92.2406 163.838 92.2406C162.507 92.2406 161.459 92.5596 160.694 93.1976C159.946 93.8356 159.573 94.7106 159.573 95.8225H151.671C151.671 94.109 152.199 92.5231 153.257 91.0649C154.314 89.6066 155.809 88.4673 157.741 87.647C159.673 86.8085 161.842 86.3893 164.248 86.3893C167.894 86.3893 170.783 87.3098 172.916 89.1509C175.067 90.9737 176.142 93.5439 176.142 96.8615V109.685C176.161 112.492 176.552 114.616 177.318 116.056V116.521H169.334ZM162.799 111.025C163.966 111.025 165.041 110.77 166.026 110.259C167.01 109.731 167.739 109.029 168.213 108.154V103.068H165.26C161.304 103.068 159.199 104.435 158.944 107.17L158.916 107.635C158.916 108.619 159.263 109.43 159.955 110.068C160.648 110.706 161.596 111.025 162.799 111.025ZM198.837 94.346C197.761 94.2002 196.813 94.1272 195.993 94.1272C193.004 94.1272 191.044 95.1389 190.114 97.1623V116.521H182.212V86.9361H189.677L189.896 90.4633C191.482 87.7473 193.678 86.3893 196.485 86.3893C197.36 86.3893 198.181 86.5078 198.946 86.7447L198.837 94.346ZM215.734 117.068C211.396 117.068 207.86 115.737 205.126 113.076C202.409 110.414 201.051 106.869 201.051 102.439V101.674C201.051 98.7026 201.626 96.0503 202.774 93.7171C203.922 91.3656 205.545 89.561 207.641 88.3033C209.756 87.0273 212.162 86.3893 214.86 86.3893C218.906 86.3893 222.087 87.6653 224.402 90.2173C226.735 92.7692 227.902 96.3876 227.902 101.072V104.299H209.063C209.318 106.231 210.084 107.78 211.36 108.947C212.654 110.114 214.285 110.697 216.254 110.697C219.298 110.697 221.677 109.594 223.39 107.388L227.273 111.736C226.088 113.413 224.484 114.725 222.461 115.673C220.437 116.603 218.195 117.068 215.734 117.068ZM214.832 92.7875C213.265 92.7875 211.989 93.3161 211.004 94.3733C210.038 95.4306 209.418 96.9435 209.145 98.9122H220.137V98.2833C220.1 96.5334 219.626 95.1845 218.715 94.2366C217.803 93.2705 216.509 92.7875 214.832 92.7875ZM275.205 83.3542H263.01V116.521H254.807V83.3542H242.776V76.71H275.205V83.3542ZM287.099 90.1626C289.195 87.647 291.829 86.3893 295.001 86.3893C301.417 86.3893 304.671 90.117 304.762 97.5724V116.521H296.86V97.7912C296.86 96.0959 296.496 94.8473 295.766 94.0452C295.037 93.2249 293.825 92.8148 292.13 92.8148C289.815 92.8148 288.138 93.708 287.099 95.4944V116.521H279.197V74.5226H287.099V90.1626ZM309.492 101.455C309.492 98.5203 310.057 95.9045 311.188 93.6077C312.318 91.311 313.94 89.5337 316.055 88.2759C318.187 87.0182 320.657 86.3893 323.464 86.3893C327.457 86.3893 330.71 87.6106 333.226 90.0532C335.76 92.4958 337.172 95.8134 337.464 100.006L337.519 102.029C337.519 106.568 336.252 110.214 333.718 112.966C331.184 115.701 327.785 117.068 323.519 117.068C319.254 117.068 315.845 115.701 313.293 112.966C310.759 110.232 309.492 106.513 309.492 101.811V101.455ZM317.394 102.029C317.394 104.836 317.923 106.987 318.98 108.482C320.038 109.959 321.551 110.697 323.519 110.697C325.433 110.697 326.928 109.968 328.003 108.509C329.079 107.033 329.617 104.682 329.617 101.455C329.617 98.7026 329.079 96.5699 328.003 95.0569C326.928 93.5439 325.415 92.7875 323.464 92.7875C321.532 92.7875 320.038 93.5439 318.98 95.0569C317.923 96.5516 317.394 98.8758 317.394 102.029ZM360.104 113.513C358.153 115.883 355.455 117.068 352.01 117.068C348.838 117.068 346.414 116.156 344.737 114.333C343.078 112.511 342.231 109.84 342.194 106.322V86.9361H350.096V106.049C350.096 109.129 351.5 110.67 354.307 110.67C356.987 110.67 358.828 109.74 359.83 107.881V86.9361H367.76V116.521H360.322L360.104 113.513ZM372.572 101.51C372.572 96.9709 373.647 93.3161 375.798 90.5454C377.967 87.7746 380.884 86.3893 384.548 86.3893C387.793 86.3893 390.317 87.5012 392.122 89.7251L392.45 86.9361H399.614V115.537C399.614 118.125 399.021 120.376 397.836 122.29C396.67 124.204 395.02 125.662 392.887 126.665C390.755 127.668 388.257 128.169 385.396 128.169C383.226 128.169 381.112 127.731 379.052 126.856C376.992 126 375.434 124.888 374.376 123.521L377.876 118.708C379.845 120.914 382.233 122.017 385.04 122.017C387.136 122.017 388.768 121.452 389.934 120.322C391.101 119.21 391.684 117.624 391.684 115.564V113.978C389.862 116.038 387.465 117.068 384.493 117.068C380.939 117.068 378.059 115.682 375.853 112.912C373.666 110.123 372.572 106.431 372.572 101.838V101.51ZM380.474 102.084C380.474 104.764 381.012 106.869 382.087 108.4C383.163 109.913 384.639 110.67 386.517 110.67C388.923 110.67 390.645 109.767 391.684 107.963V95.5217C390.627 93.7171 388.923 92.8148 386.571 92.8148C384.676 92.8148 383.181 93.5895 382.087 95.1389C381.012 96.6883 380.474 99.0034 380.474 102.084ZM413.422 90.1626C415.518 87.647 418.152 86.3893 421.324 86.3893C427.74 86.3893 430.994 90.117 431.085 97.5724V116.521H423.183V97.7912C423.183 96.0959 422.819 94.8473 422.089 94.0452C421.36 93.2249 420.148 92.8148 418.453 92.8148C416.138 92.8148 414.461 93.708 413.422 95.4944V116.521H405.52V74.5226H413.422V90.1626ZM446.506 79.663V86.9361H451.565V92.7328H446.506V107.498C446.506 108.592 446.716 109.375 447.135 109.849C447.555 110.323 448.357 110.56 449.541 110.56C450.416 110.56 451.191 110.496 451.866 110.369V116.357C450.316 116.831 448.721 117.068 447.081 117.068C441.539 117.068 438.714 114.27 438.604 108.674V92.7328H434.284V86.9361H438.604V79.663H446.506ZM471.99 108.345C471.99 107.379 471.507 106.623 470.541 106.076C469.593 105.511 468.062 105.01 465.947 104.572C458.911 103.096 455.393 100.106 455.393 95.6038C455.393 92.9789 456.477 90.7914 458.647 89.0415C460.834 87.2734 463.687 86.3893 467.205 86.3893C470.96 86.3893 473.958 87.2734 476.201 89.0415C478.461 90.8097 479.591 93.1065 479.591 95.9319H471.689C471.689 94.8017 471.324 93.8721 470.595 93.1429C469.866 92.3955 468.727 92.0219 467.177 92.0219C465.847 92.0219 464.817 92.3226 464.088 92.9242C463.359 93.5257 462.994 94.2913 462.994 95.221C462.994 96.0959 463.404 96.8068 464.224 97.3537C465.063 97.8823 466.467 98.3471 468.435 98.7482C470.404 99.131 472.063 99.5684 473.412 100.061C477.586 101.592 479.673 104.244 479.673 108.017C479.673 110.715 478.516 112.903 476.201 114.58C473.885 116.238 470.896 117.068 467.232 117.068C464.753 117.068 462.547 116.63 460.615 115.755C458.701 114.862 457.197 113.65 456.104 112.119C455.01 110.569 454.463 108.901 454.463 107.115H461.955C462.028 108.519 462.547 109.594 463.514 110.341C464.48 111.089 465.774 111.462 467.396 111.462C468.909 111.462 470.048 111.18 470.814 110.615C471.598 110.032 471.99 109.275 471.99 108.345Z" fill="#B92626"/>
<path d="M105.762 70.924C92.2448 67.011 77.3041 74.4813 82.9958 93.6907C70.4221 93.6907 60.2291 83.4977 60.2291 70.924C60.2291 58.3503 70.4221 48.1573 82.9958 48.1573C95.5695 48.1573 105.762 58.3503 105.762 70.924Z" fill="#B92626"/>
<path d="M22.5219 71.6355C45.6442 73.4141 72.6797 96.1808 64.1422 85.8646C55.6047 75.5485 57.739 64.5209 64.1422 54.9162C70.5453 45.3115 42.087 69.1453 22.5219 71.6355Z" fill="#B92626"/>
<path d="M83.6834 9.36542C81.4422 32.4476 58.1388 59.0217 68.6238 50.6925C79.1088 42.3633 90.0915 44.718 99.566 51.3121C109.041 57.9063 85.7813 28.9765 83.6834 9.36542Z" fill="#B92626"/>
</g>
<defs>
<filter id="filter0_d" x="0.521851" y="0.0270996" width="501.151" height="163.142" filterUnits="userSpaceOnUse" color-interpolation-filters="sRGB">
<feFlood flood-opacity="0" result="BackgroundImageFix"/>
<feColorMatrix in="SourceAlpha" type="matrix" values="0 0 0 0 0 0 0 0 0 0 0 0 0 0 0 0 0 0 127 0"/>
<feOffset dy="13"/>
<feGaussianBlur stdDeviation="11"/>
<feColorMatrix type="matrix" values="0 0 0 0 0 0 0 0 0 0 0 0 0 0 0 0 0 0 0.15 0"/>
<feBlend mode="normal" in2="BackgroundImageFix" result="effect1_dropShadow"/>
<feBlend mode="normal" in="SourceGraphic" in2="effect1_dropShadow" result="shape"/>
</filter>
</defs>
</svg>
